<svg xmlns="http://www.w3.org/2000/svg" width="1223pt" height="709pt" viewBox="0.00 0.00 1223.00 708.73">
<g id="graph0" class="graph" transform="scale(1 1) rotate(0) translate(4 704.73)">
<polygon fill="white" stroke="none" points="-4,4 -4,-704.73 1219,-704.73 1219,4 -4,4" />

<g id="node1" class="node" x-title="0x7f889a505f00">
<polygon fill="lightgrey" stroke="black" points="854,-661.73 800,-661.73 800,-642.73 854,-642.73 854,-661.73" />
<text text-anchor="middle" x="827" y="-649.73" font-family="Times,serif" font-size="10.00">dag.svg</text>
</g>

<g id="node2" class="node" x-title="0x7f889a505e70">
<ellipse fill="lightgrey" stroke="black" cx="691.5" cy="-652.23" rx="57.5" ry="13.5" />
<text text-anchor="middle" x="691.5" y="-649.73" font-family="Times,serif" font-size="10.00">lib.gengraph.py</text>
</g>

<g id="edge1" class="edge" x-title="0x7f889a505e70-&gt;0x7f889a505f00">
<path fill="none" stroke="black" d="M749.12,-652.23C762.47,-652.23 776.38,-652.23 788.64,-652.23" />
<polygon fill="black" stroke="black" points="788.3,-655.73 798.3,-652.23 788.3,-648.73 788.3,-655.73" />
</g>

<g id="node3" class="node" x-title="0x7f889a505f70">
<polygon fill="lightgrey" stroke="black" points="575,-698.73 513,-698.73 513,-679.73 575,-679.73 575,-698.73" />
<text text-anchor="middle" x="544" y="-686.73" font-family="Times,serif" font-size="10.00">build.ninja</text>
</g>

<g id="edge2" class="edge" x-title="0x7f889a505f70-&gt;0x7f889a505e70">
<path fill="none" stroke="black" d="M575.15,-681.56C597.21,-675.95 627.33,-668.29 651.26,-662.21" />
</g>

<g id="node4" class="node" x-title="0x7f889a506010">
<polygon fill="lightgrey" stroke="black" points="575.5,-661.73 512.5,-661.73 512.5,-642.73 575.5,-642.73 575.5,-661.73" />
<text text-anchor="middle" x="544" y="-649.73" font-family="Times,serif" font-size="10.00">lib/graph.js</text>
</g>

<g id="edge3" class="edge" x-title="0x7f889a506010-&gt;0x7f889a505e70">
<path fill="none" stroke="black" d="M575.86,-652.23C592.62,-652.23 613.89,-652.23 633.55,-652.23" />
</g>

<g id="node5" class="node" x-title="0x7f889a5060e0">
<polygon fill="lightgrey" stroke="black" points="585,-624.73 503,-624.73 503,-605.73 585,-605.73 585,-624.73" />
<text text-anchor="middle" x="544" y="-612.73" font-family="Times,serif" font-size="10.00">lib/gengraph.py</text>
</g>

<g id="edge4" class="edge" x-title="0x7f889a5060e0-&gt;0x7f889a505e70">
<path fill="none" stroke="black" d="M583.99,-625.14C604.78,-630.43 630.3,-636.92 651.15,-642.22" />
</g>

<g id="node6" class="node" x-title="0x7f889a5064b0">
<ellipse fill="lightgrey" stroke="black" cx="405" cy="-653.23" rx="39.5" ry="13.5" />
<text text-anchor="middle" x="405" y="-650.73" font-family="Times,serif" font-size="10.00">..build.py</text>
</g>

<g id="edge5" class="edge" x-title="0x7f889a5064b0-&gt;0x7f889a505f70">
<path fill="none" stroke="black" d="M437.09,-661.4C456.14,-666.4 480.76,-672.87 501.47,-678.32" />
<polygon fill="black" stroke="black" points="500.48,-681.68 511.04,-680.83 502.26,-674.91 500.48,-681.68" />
</g>

<g id="node7" class="node" x-title="0x7f889a506540">
<polygon fill="lightgrey" stroke="black" points="307,-700.73 253,-700.73 253,-681.73 307,-681.73 307,-700.73" />
<text text-anchor="middle" x="280" y="-688.73" font-family="Times,serif" font-size="10.00">lib/x.py</text>
</g>

<g id="edge6" class="edge" x-title="0x7f889a506540-&gt;0x7f889a5064b0">
<path fill="none" stroke="black" d="M307.39,-683.08C327.15,-676.97 354.19,-668.62 374.64,-662.3" />
</g>

<g id="node8" class="node" x-title="0x7f889a5065b0">
<polygon fill="lightgrey" stroke="black" points="76,-253.73 0,-253.73 0,-234.73 76,-234.73 76,-253.73" />
<text text-anchor="middle" x="38" y="-241.73" font-family="Times,serif" font-size="10.00">dat/config.yml</text>
</g>

<g id="edge7" class="edge" x-title="0x7f889a5065b0-&gt;0x7f889a5064b0">
<path fill="none" stroke="black" d="M39.78,-254.23C43.99,-305.54 65.46,-538.91 112,-591.23 176.93,-664.22 304.56,-663.33 367.35,-657.79" />
</g>

<g id="node9" class="node" x-title="0x7f889a506a30">
<ellipse fill="lightgrey" stroke="black" cx="158" cy="-265.23" rx="46" ry="13.5" />
<text text-anchor="middle" x="158" y="-262.73" font-family="Times,serif" font-size="10.00">src.query.py</text>
</g>

<g id="edge8" class="edge" x-title="0x7f889a5065b0-&gt;0x7f889a506a30">
<path fill="none" stroke="black" d="M76.34,-250.87C89.57,-253.23 104.49,-255.88 117.87,-258.27" />
</g>

<g id="node10" class="node" x-title="0x7f889a507770">
<ellipse fill="lightgrey" stroke="black" cx="405" cy="-223.23" rx="49" ry="13.5" />
<text text-anchor="middle" x="405" y="-220.73" font-family="Times,serif" font-size="10.00">src.period.py</text>
</g>

<g id="edge9" class="edge" x-title="0x7f889a5065b0-&gt;0x7f889a507770">
<path fill="none" stroke="black" d="M76.35,-242.08C143.21,-238.23 283.22,-230.18 356.69,-225.95" />
</g>

<g id="node11" class="node" x-title="0x7f889a507d60">
<ellipse fill="lightgrey" stroke="black" cx="968" cy="-464.23" rx="45.5" ry="13.5" />
<text text-anchor="middle" x="968" y="-461.73" font-family="Times,serif" font-size="10.00">src.color.py</text>
</g>

<g id="edge10" class="edge" x-title="0x7f889a5065b0-&gt;0x7f889a507d60">
<path fill="none" stroke="black" d="M39.41,-254.17C41.36,-289.6 52.3,-411.5 112,-485.23 165.33,-551.08 194.26,-577.23 279,-577.23 279,-577.23 279,-577.23 692.5,-577.23 773.03,-577.23 795.83,-569.87 869,-536.23 902.18,-520.97 935.27,-493.46 953.24,-477.22" />
</g>

<g id="node12" class="node" x-title="0x7f889a5070e0">
<ellipse fill="lightgrey" stroke="black" cx="691.5" cy="-419.23" rx="55" ry="13.5" />
<text text-anchor="middle" x="691.5" y="-416.73" font-family="Times,serif" font-size="10.00">src.calibrate.py</text>
</g>

<g id="edge11" class="edge" x-title="0x7f889a5065b0-&gt;0x7f889a5070e0">
<path fill="none" stroke="black" d="M41.58,-254.04C55.7,-305.23 128.47,-539.23 279,-539.23 279,-539.23 279,-539.23 406,-539.23 515.09,-539.23 630.52,-463.4 673.28,-432.3" />
</g>

<g id="node13" class="node" x-title="0x7f889a508390">
<ellipse fill="lightgrey" stroke="black" cx="968" cy="-278.23" rx="63" ry="13.5" />
<text text-anchor="middle" x="968" y="-275.73" font-family="Times,serif" font-size="10.00">src.lightcurves.py</text>
</g>

<g id="edge12" class="edge" x-title="0x7f889a5065b0-&gt;0x7f889a508390">
<path fill="none" stroke="black" d="M39.68,-234.46C42.4,-202.78 55.34,-101.9 112,-49.23 168.65,3.44 201.65,-0.23 279,-0.23 279,-0.23 279,-0.23 692.5,-0.23 842.74,-0.23 938.49,-208.35 961.57,-264.44" />
</g>

<g id="node14" class="node" x-title="0x7f889a5086f0">
<ellipse fill="lightgrey" stroke="black" cx="691.5" cy="-197.23" rx="41" ry="13.5" />
<text text-anchor="middle" x="691.5" y="-194.73" font-family="Times,serif" font-size="10.00">src.tess.py</text>
</g>

<g id="edge13" class="edge" x-title="0x7f889a5065b0-&gt;0x7f889a5086f0">
<path fill="none" stroke="black" d="M48.5,-234.46C78.95,-204.23 178.07,-114.23 279,-114.23 279,-114.23 279,-114.23 406,-114.23 507.1,-114.23 620.62,-163.13 667.92,-185.86" />
</g>

<g id="node15" class="node" x-title="0x7f889a509620">
<ellipse fill="lightgrey" stroke="black" cx="691.5" cy="-139.23" rx="48" ry="13.5" />
<text text-anchor="middle" x="691.5" y="-136.73" font-family="Times,serif" font-size="10.00">src.asassn.py</text>
</g>

<g id="edge14" class="edge" x-title="0x7f889a5065b0-&gt;0x7f889a509620">
<path fill="none" stroke="black" d="M43.07,-234.25C52.38,-212.41 77.18,-159.75 112,-127.23 173.46,-69.82 194.9,-38.23 279,-38.23 279,-38.23 279,-38.23 406,-38.23 510.56,-38.23 624.93,-99.57 670.32,-126.64" />
</g>

<g id="node16" class="node" x-title="0x7f889a5066b0">
<polygon fill="lightgrey" stroke="black" points="320,-274.73 240,-274.73 240,-255.73 320,-255.73 320,-274.73" />
<text text-anchor="middle" x="280" y="-262.73" font-family="Times,serif" font-size="10.00">dat/known.json</text>
</g>

<g id="edge15" class="edge" x-title="0x7f889a506a30-&gt;0x7f889a5066b0">
<path fill="none" stroke="black" d="M204.37,-265.23C212.22,-265.23 220.42,-265.23 228.4,-265.23" />
<polygon fill="black" stroke="black" points="228.34,-268.73 238.34,-265.23 228.34,-261.73 228.34,-268.73" />
</g>

<g id="node17" class="node" x-title="0x7f889a507960">
<polygon fill="lightgrey" stroke="black" points="598,-199.73 490,-199.73 490,-180.73 598,-180.73 598,-199.73" />
<text text-anchor="middle" x="544" y="-187.73" font-family="Times,serif" font-size="10.00">img/period/asassn.png</text>
</g>

<g id="edge16" class="edge" x-title="0x7f889a507770-&gt;0x7f889a507960">
<path fill="none" stroke="black" d="M443.07,-214.3C457.75,-210.76 474.89,-206.63 490.79,-202.81" />
<polygon fill="black" stroke="black" points="491.18,-206.31 500.08,-200.57 489.54,-199.51 491.18,-206.31" />
</g>

<g id="node18" class="node" x-title="0x7f889a5075c0">
<polygon fill="lightgrey" stroke="black" points="583,-236.73 505,-236.73 505,-217.73 583,-217.73 583,-236.73" />
<text text-anchor="middle" x="544" y="-224.73" font-family="Times,serif" font-size="10.00">dat/period.json</text>
</g>

<g id="edge17" class="edge" x-title="0x7f889a507770-&gt;0x7f889a5075c0">
<path fill="none" stroke="black" d="M453.92,-224.63C466.68,-225 480.49,-225.4 493.34,-225.78" />
<polygon fill="black" stroke="black" points="493.2,-229.28 503.3,-226.07 493.41,-222.28 493.2,-229.28" />
</g>

<g id="node19" class="node" x-title="0x7f889a507f10">
<polygon fill="lightgrey" stroke="black" points="1192.5,-473.73 1089.5,-473.73 1089.5,-454.73 1192.5,-454.73 1192.5,-473.73" />
<text text-anchor="middle" x="1141" y="-461.73" font-family="Times,serif" font-size="10.00">img/color_index.png</text>
</g>

<g id="edge18" class="edge" x-title="0x7f889a507d60-&gt;0x7f889a507f10">
<path fill="none" stroke="black" d="M1013.93,-464.23C1033.38,-464.23 1056.48,-464.23 1077.56,-464.23" />
<polygon fill="black" stroke="black" points="1077.52,-467.73 1087.52,-464.23 1077.52,-460.73 1077.52,-467.73" />
</g>

<g id="node20" class="node" x-title="0x7f889a507170">
<polygon fill="lightgrey" stroke="black" points="854.5,-362.73 799.5,-362.73 799.5,-343.73 854.5,-343.73 854.5,-362.73" />
<text text-anchor="middle" x="827" y="-350.73" font-family="Times,serif" font-size="10.00">dat/B.csv</text>
</g>

<g id="edge19" class="edge" x-title="0x7f889a5070e0-&gt;0x7f889a507170">
<path fill="none" stroke="black" d="M715.48,-406.78C734.07,-396.83 761.01,-382.71 785,-371.23 787.43,-370.07 789.95,-368.89 792.49,-367.73" />
<polygon fill="black" stroke="black" points="793.82,-370.97 801.51,-363.68 790.96,-364.58 793.82,-370.97" />
</g>

<g id="node21" class="node" x-title="0x7f889a5071e0">
<polygon fill="lightgrey" stroke="black" points="854,-510.73 800,-510.73 800,-491.73 854,-491.73 854,-510.73" />
<text text-anchor="middle" x="827" y="-498.73" font-family="Times,serif" font-size="10.00">dat/V.csv</text>
</g>

<g id="edge20" class="edge" x-title="0x7f889a5070e0-&gt;0x7f889a5071e0">
<path fill="none" stroke="black" d="M709.68,-432.19C727.85,-445.6 757.62,-466.7 785,-482.23 787.51,-483.65 790.14,-485.06 792.81,-486.42" />
<polygon fill="black" stroke="black" points="791.22,-489.54 801.75,-490.77 794.28,-483.25 791.22,-489.54" />
</g>

<g id="node22" class="node" x-title="0x7f889a507280">
<polygon fill="lightgrey" stroke="black" points="857.5,-473.73 796.5,-473.73 796.5,-454.73 857.5,-454.73 857.5,-473.73" />
<text text-anchor="middle" x="827" y="-461.73" font-family="Times,serif" font-size="10.00">dat/SG.csv</text>
</g>

<g id="edge21" class="edge" x-title="0x7f889a5070e0-&gt;0x7f889a507280">
<path fill="none" stroke="black" d="M725.16,-430.24C743.44,-436.4 766.39,-444.13 785.77,-450.67" />
<polygon fill="black" stroke="black" points="784.38,-453.89 794.98,-453.77 786.62,-447.26 784.38,-453.89" />
</g>

<g id="node23" class="node" x-title="0x7f889a5073e0">
<polygon fill="lightgrey" stroke="black" points="857,-436.73 797,-436.73 797,-417.73 857,-417.73 857,-436.73" />
<text text-anchor="middle" x="827" y="-424.73" font-family="Times,serif" font-size="10.00">dat/SR.csv</text>
</g>

<g id="edge22" class="edge" x-title="0x7f889a5070e0-&gt;0x7f889a5073e0">
<path fill="none" stroke="black" d="M745.26,-422.39C758.65,-423.19 772.83,-424.04 785.51,-424.8" />
<polygon fill="black" stroke="black" points="784.96,-428.28 795.15,-425.38 785.38,-421.29 784.96,-428.28" />
</g>

<g id="node24" class="node" x-title="0x7f889a507480">
<polygon fill="lightgrey" stroke="black" points="855,-399.73 799,-399.73 799,-380.73 855,-380.73 855,-399.73" />
<text text-anchor="middle" x="827" y="-387.73" font-family="Times,serif" font-size="10.00">dat/SI.csv</text>
</g>

<g id="edge23" class="edge" x-title="0x7f889a5070e0-&gt;0x7f889a507480">
<path fill="none" stroke="black" d="M733.64,-410.29C750.82,-406.56 770.67,-402.25 787.55,-398.58" />
<polygon fill="black" stroke="black" points="788.19,-402.02 797.22,-396.48 786.71,-395.18 788.19,-402.02" />
</g>

<g id="node25" class="node" x-title="0x7f889a508910">
<polygon fill="lightgrey" stroke="black" points="1197.5,-398.73 1084.5,-398.73 1084.5,-379.73 1197.5,-379.73 1197.5,-398.73" />
<text text-anchor="middle" x="1141" y="-386.73" font-family="Times,serif" font-size="10.00">img/lightcurves/all.png</text>
</g>

<g id="edge24" class="edge" x-title="0x7f889a508390-&gt;0x7f889a508910">
<path fill="none" stroke="black" d="M979.51,-291.7C995.97,-311.87 1029.81,-349.71 1067,-370.23 1070.43,-372.12 1074.05,-373.83 1077.78,-375.37" />
<polygon fill="black" stroke="black" points="1076.46,-378.62 1087.06,-378.78 1078.87,-372.05 1076.46,-378.62" />
</g>

<g id="node26" class="node" x-title="0x7f889a507320">
<polygon fill="lightgrey" stroke="black" points="1199.5,-361.73 1082.5,-361.73 1082.5,-342.73 1199.5,-342.73 1199.5,-361.73" />
<text text-anchor="middle" x="1141" y="-349.73" font-family="Times,serif" font-size="10.00">img/lightcurves/tess.png</text>
</g>

<g id="edge25" class="edge" x-title="0x7f889a508390-&gt;0x7f889a507320">
<path fill="none" stroke="black" d="M988.89,-291.41C1008.17,-303.69 1038.59,-321.78 1067,-333.23 1072.26,-335.35 1077.82,-337.29 1083.44,-339.06" />
<polygon fill="black" stroke="black" points="1082.21,-342.35 1092.79,-341.82 1084.19,-335.63 1082.21,-342.35" />
</g>

<g id="node27" class="node" x-title="0x7f889a508b30">
<polygon fill="lightgrey" stroke="black" points="1205,-324.73 1077,-324.73 1077,-305.73 1205,-305.73 1205,-324.73" />
<text text-anchor="middle" x="1141" y="-312.73" font-family="Times,serif" font-size="10.00">img/lightcurves/asassn.png</text>
</g>

<g id="edge26" class="edge" x-title="0x7f889a508390-&gt;0x7f889a508b30">
<path fill="none" stroke="black" d="M1013.48,-287.85C1034.65,-292.43 1060.2,-297.96 1082.79,-302.85" />
<polygon fill="black" stroke="black" points="1081.96,-306.25 1092.47,-304.95 1083.44,-299.41 1081.96,-306.25" />
</g>

<g id="node28" class="node" x-title="0x7f889a508bf0">
<polygon fill="lightgrey" stroke="black" points="1215,-287.73 1067,-287.73 1067,-268.73 1215,-268.73 1215,-287.73" />
<text text-anchor="middle" x="1141" y="-275.73" font-family="Times,serif" font-size="10.00">img/lightcurves/asassn_tess.png</text>
</g>

<g id="edge27" class="edge" x-title="0x7f889a508390-&gt;0x7f889a508bf0">
<path fill="none" stroke="black" d="M1031.22,-278.23C1039.07,-278.23 1047.21,-278.23 1055.34,-278.23" />
<polygon fill="black" stroke="black" points="1055.28,-281.73 1065.28,-278.23 1055.28,-274.73 1055.28,-281.73" />
</g>

<g id="node29" class="node" x-title="0x7f889a508cb0">
<polygon fill="lightgrey" stroke="black" points="1195.5,-250.73 1086.5,-250.73 1086.5,-231.73 1195.5,-231.73 1195.5,-250.73" />
<text text-anchor="middle" x="1141" y="-238.73" font-family="Times,serif" font-size="10.00">img/lightcurves/B.png</text>
</g>

<g id="edge28" class="edge" x-title="0x7f889a508390-&gt;0x7f889a508cb0">
<path fill="none" stroke="black" d="M1013.48,-268.6C1034.65,-264.03 1060.2,-258.5 1082.79,-253.61" />
<polygon fill="black" stroke="black" points="1083.44,-257.05 1092.47,-251.51 1081.96,-250.21 1083.44,-257.05" />
</g>

<g id="node30" class="node" x-title="0x7f889a508d20">
<polygon fill="lightgrey" stroke="black" points="1195,-213.73 1087,-213.73 1087,-194.73 1195,-194.73 1195,-213.73" />
<text text-anchor="middle" x="1141" y="-201.73" font-family="Times,serif" font-size="10.00">img/lightcurves/V.png</text>
</g>

<g id="edge29" class="edge" x-title="0x7f889a508390-&gt;0x7f889a508d20">
<path fill="none" stroke="black" d="M988.09,-265.19C1007.27,-252.6 1038.07,-233.8 1067,-222.23 1071.36,-220.48 1075.94,-218.87 1080.59,-217.4" />
<polygon fill="black" stroke="black" points="1081.44,-220.79 1090.04,-214.61 1079.46,-214.08 1081.44,-220.79" />
</g>

<g id="node31" class="node" x-title="0x7f889a508d90">
<polygon fill="lightgrey" stroke="black" points="1198.5,-176.73 1083.5,-176.73 1083.5,-157.73 1198.5,-157.73 1198.5,-176.73" />
<text text-anchor="middle" x="1141" y="-164.73" font-family="Times,serif" font-size="10.00">img/lightcurves/SG.png</text>
</g>

<g id="edge30" class="edge" x-title="0x7f889a508390-&gt;0x7f889a508d90">
<path fill="none" stroke="black" d="M979.44,-264.54C995.82,-244.08 1029.55,-205.71 1067,-185.23 1069.65,-183.78 1072.41,-182.45 1075.25,-181.22" />
<polygon fill="black" stroke="black" points="1076.25,-184.58 1084.36,-177.76 1073.77,-178.04 1076.25,-184.58" />
</g>

<g id="node32" class="node" x-title="0x7f889a508e30">
<polygon fill="lightgrey" stroke="black" points="1198,-139.73 1084,-139.73 1084,-120.73 1198,-120.73 1198,-139.73" />
<text text-anchor="middle" x="1141" y="-127.73" font-family="Times,serif" font-size="10.00">img/lightcurves/SR.png</text>
</g>

<g id="edge31" class="edge" x-title="0x7f889a508390-&gt;0x7f889a508e30">
<path fill="none" stroke="black" d="M975.41,-264.36C988.55,-237.51 1021.23,-178.43 1067,-148.23 1069,-146.91 1071.09,-145.69 1073.24,-144.55" />
<polygon fill="black" stroke="black" points="1074.63,-147.77 1082.34,-140.49 1071.78,-141.37 1074.63,-147.77" />
</g>

<g id="node33" class="node" x-title="0x7f889a508ed0">
<polygon fill="lightgrey" stroke="black" points="1196,-435.73 1086,-435.73 1086,-416.73 1196,-416.73 1196,-435.73" />
<text text-anchor="middle" x="1141" y="-423.73" font-family="Times,serif" font-size="10.00">img/lightcurves/SI.png</text>
</g>

<g id="edge32" class="edge" x-title="0x7f889a508390-&gt;0x7f889a508ed0">
<path fill="none" stroke="black" d="M975.47,-291.94C988.73,-318.49 1021.6,-376.97 1067,-407.23 1069.57,-408.94 1072.28,-410.5 1075.09,-411.91" />
<polygon fill="black" stroke="black" points="1073.65,-415.1 1084.22,-415.86 1076.43,-408.68 1073.65,-415.1" />
</g>

<g id="node34" class="node" x-title="0x7f889a509000">
<polygon fill="lightgrey" stroke="black" points="858.5,-210.73 795.5,-210.73 795.5,-191.73 858.5,-191.73 858.5,-210.73" />
<text text-anchor="middle" x="827" y="-198.73" font-family="Times,serif" font-size="10.00">dat/tess.csv</text>
</g>

<g id="edge33" class="edge" x-title="0x7f889a5086f0-&gt;0x7f889a509000">
<path fill="none" stroke="black" d="M732.55,-198.43C748.75,-198.91 767.45,-199.47 783.85,-199.97" />
<polygon fill="black" stroke="black" points="783.7,-203.46 793.8,-200.26 783.91,-196.47 783.7,-203.46" />
</g>

<g id="node35" class="node" x-title="0x7f889a5090a0">
<polygon fill="lightgrey" stroke="black" points="869,-173.73 785,-173.73 785,-154.73 869,-154.73 869,-173.73" />
<text text-anchor="middle" x="827" y="-161.73" font-family="Times,serif" font-size="10.00">dat/asassn_g.csv</text>
</g>

<g id="edge34" class="edge" x-title="0x7f889a509620-&gt;0x7f889a5090a0">
<path fill="none" stroke="black" d="M732.19,-146.66C745.16,-149.09 759.77,-151.83 773.53,-154.4" />
<polygon fill="black" stroke="black" points="772.88,-157.84 783.35,-156.24 774.17,-150.96 772.88,-157.84" />
</g>

<g id="node36" class="node" x-title="0x7f889a509140">
<polygon fill="lightgrey" stroke="black" points="868.5,-136.73 785.5,-136.73 785.5,-117.73 868.5,-117.73 868.5,-136.73" />
<text text-anchor="middle" x="827" y="-124.73" font-family="Times,serif" font-size="10.00">dat/asassn_v.csv</text>
</g>

<g id="edge35" class="edge" x-title="0x7f889a509620-&gt;0x7f889a509140">
<path fill="none" stroke="black" d="M737.7,-135.17C749.39,-134.12 762.07,-132.98 774.08,-131.9" />
<polygon fill="black" stroke="black" points="774.18,-135.4 783.83,-131.02 773.55,-128.43 774.18,-135.4" />
</g>

<g id="edge36" class="edge" x-title="0x7f889a5066b0-&gt;0x7f889a5064b0">
<path fill="none" stroke="black" d="M285.46,-275.08C293.12,-292.17 309,-328.57 320,-360.23 356.73,-465.95 390.1,-596.97 400.6,-639.33" />
</g>

<g id="edge37" class="edge" x-title="0x7f889a5066b0-&gt;0x7f889a507770">
<path fill="none" stroke="black" d="M310.15,-255.28C329.05,-248.82 353.64,-240.43 372.91,-233.85" />
</g>

<g id="edge38" class="edge" x-title="0x7f889a5066b0-&gt;0x7f889a5070e0">
<path fill="none" stroke="black" d="M292.5,-274.92C306.64,-286.41 331.76,-305.49 356,-317.23 455.44,-365.4 582.56,-396.63 647.74,-410.66" />
</g>

<g id="edge39" class="edge" x-title="0x7f889a5066b0-&gt;0x7f889a508390">
<path fill="none" stroke="black" d="M315.04,-275.19C327.77,-278.44 342.44,-281.62 356,-283.23 399.25,-288.35 410.44,-283.44 454,-283.23 616.54,-282.44 808.05,-280.23 904.62,-279.03" />
</g>

<g id="edge40" class="edge" x-title="0x7f889a5066b0-&gt;0x7f889a5086f0">
<path fill="none" stroke="black" d="M320.41,-267.89C381.21,-270.85 501.03,-272.15 598,-245.23 625.54,-237.58 654.32,-221.09 672.32,-209.58" />
</g>

<g id="edge41" class="edge" x-title="0x7f889a5066b0-&gt;0x7f889a509620">
<path fill="none" stroke="black" d="M289.15,-255.59C301.88,-241.19 327.95,-214.25 356,-200.23 450.38,-153.04 576.04,-142.01 643.29,-139.65" />
</g>

<g id="edge42" class="edge" x-title="0x7f889a5075c0-&gt;0x7f889a5070e0">
<path fill="none" stroke="black" d="M552.42,-237.01C576.51,-268.8 652.61,-369.23 680.3,-405.77" />
</g>

<g id="edge43" class="edge" x-title="0x7f889a5075c0-&gt;0x7f889a508390">
<path fill="none" stroke="black" d="M583.47,-230.99C644.21,-237.03 766.04,-249.64 869,-263.23 884.44,-265.27 901.21,-267.74 916.45,-270.08" />
</g>

<g id="edge44" class="edge" x-title="0x7f889a5075c0-&gt;0x7f889a5086f0">
<path fill="none" stroke="black" d="M583.23,-219.35C605.79,-214.69 634.13,-208.85 656.01,-204.34" />
</g>

<g id="edge45" class="edge" x-title="0x7f889a5075c0-&gt;0x7f889a509620">
<path fill="none" stroke="black" d="M579.32,-217.27C585.75,-214.76 592.25,-211.76 598,-208.23 616.76,-196.72 616.56,-187.65 634,-174.23 644.88,-165.86 657.86,-157.71 668.63,-151.38" />
</g>

<g id="edge46" class="edge" x-title="0x7f889a507170-&gt;0x7f889a507d60">
<path fill="none" stroke="black" d="M854.3,-363.16C859.35,-365.51 864.47,-368.22 869,-371.23 904.36,-394.72 938.71,-431.49 955.8,-451.01" />
</g>

<g id="edge47" class="edge" x-title="0x7f889a507170-&gt;0x7f889a508390">
<path fill="none" stroke="black" d="M846.46,-343.27C871.42,-329.8 915.96,-305.77 943.35,-290.99" />
</g>

<g id="edge48" class="edge" x-title="0x7f889a5071e0-&gt;0x7f889a507d60">
<path fill="none" stroke="black" d="M854.47,-494.18C876.76,-488.25 908.79,-479.72 932.98,-473.28" />
</g>

<g id="edge49" class="edge" x-title="0x7f889a5071e0-&gt;0x7f889a508390">
<path fill="none" stroke="black" d="M854.44,-492.26C859.7,-489.61 864.87,-486.31 869,-482.23 926.63,-425.39 954.97,-327.93 963.84,-292.03" />
</g>

<g id="edge50" class="edge" x-title="0x7f889a507280-&gt;0x7f889a507d60">
<path fill="none" stroke="black" d="M857.82,-464.23C876.57,-464.23 901.1,-464.23 922.17,-464.23" />
</g>

<g id="edge51" class="edge" x-title="0x7f889a507280-&gt;0x7f889a508390">
<path fill="none" stroke="black" d="M855.47,-454.34C860.31,-451.84 865.05,-448.81 869,-445.23 919.03,-399.82 950.91,-322.77 962.3,-291.75" />
</g>

<g id="edge52" class="edge" x-title="0x7f889a5073e0-&gt;0x7f889a507d60">
<path fill="none" stroke="black" d="M857.48,-435.08C879.63,-440.97 910.02,-449.06 933.16,-455.22" />
</g>

<g id="edge53" class="edge" x-title="0x7f889a5073e0-&gt;0x7f889a508390">
<path fill="none" stroke="black" d="M854.28,-417.39C859.44,-414.83 864.61,-411.78 869,-408.23 911.44,-373.95 945.59,-317.47 959.83,-291.75" />
</g>

<g id="edge54" class="edge" x-title="0x7f889a507480-&gt;0x7f889a507d60">
<path fill="none" stroke="black" d="M851.61,-400.09C857.36,-402.63 863.45,-405.43 869,-408.23 896.65,-422.15 927.5,-440.22 947.07,-452.01" />
</g>

<g id="edge55" class="edge" x-title="0x7f889a507480-&gt;0x7f889a508390">
<path fill="none" stroke="black" d="M852.56,-380.43C858.15,-377.77 863.94,-374.67 869,-371.23 903.93,-347.51 938.19,-311.17 955.45,-291.68" />
</g>

<g id="edge56" class="edge" x-title="0x7f889a509000-&gt;0x7f889a508390">
<path fill="none" stroke="black" d="M845.89,-211.14C870.96,-225.03 916.58,-250.3 944.1,-265.55" />
</g>

<g id="edge57" class="edge" x-title="0x7f889a5090a0-&gt;0x7f889a508390">
<path fill="none" stroke="black" d="M854.34,-174.1C859.38,-176.46 864.49,-179.18 869,-182.23 904.72,-206.37 938.92,-244.36 955.89,-264.55" />
</g>

<g id="edge58" class="edge" x-title="0x7f889a509140-&gt;0x7f889a508390">
<path fill="none" stroke="black" d="M856.04,-137.17C860.61,-139.44 865.11,-142.12 869,-145.23 912.45,-179.99 946.33,-238.44 960.19,-264.72" />
</g>

<g id="node37" class="node" x-title="0x7f889a506720">
<polygon fill="lightgrey" stroke="black" points="307,-624.73 253,-624.73 253,-605.73 307,-605.73 307,-624.73" />
<text text-anchor="middle" x="280" y="-612.73" font-family="Times,serif" font-size="10.00">build.py</text>
</g>

<g id="edge59" class="edge" x-title="0x7f889a506720-&gt;0x7f889a5064b0">
<path fill="none" stroke="black" d="M307.39,-623.38C327.15,-629.49 354.19,-637.84 374.64,-644.16" />
</g>

<g id="node38" class="node" x-title="0x7f889a507a00">
<polygon fill="lightgrey" stroke="black" points="313.5,-388.73 246.5,-388.73 246.5,-369.73 313.5,-369.73 313.5,-388.73" />
<text text-anchor="middle" x="280" y="-376.73" font-family="Times,serif" font-size="10.00">matplotlibrc</text>
</g>

<g id="edge60" class="edge" x-title="0x7f889a507a00-&gt;0x7f889a507770">
<path fill="none" stroke="black" d="M288.69,-369.47C309.94,-342.52 369.45,-267.05 393.61,-236.41" />
</g>

<g id="edge61" class="edge" x-title="0x7f889a507a00-&gt;0x7f889a507d60">
<path fill="none" stroke="black" d="M306.97,-389.16C380.54,-416.69 597.16,-493.63 785,-519.23 821.99,-524.27 832.88,-528.67 869,-519.23 900.15,-511.09 931.85,-490.59 950.46,-477.05" />
</g>

<g id="edge62" class="edge" x-title="0x7f889a507a00-&gt;0x7f889a508390">
<path fill="none" stroke="black" d="M313.86,-374.69C403.15,-362.32 657.72,-326.74 869,-294.23 884.68,-291.82 901.74,-289.07 917.17,-286.55" />
</g>

<g id="node39" class="node" x-title="0x7f889a507aa0">
<polygon fill="lightgrey" stroke="black" points="317,-178.73 243,-178.73 243,-159.73 317,-159.73 317,-178.73" />
<text text-anchor="middle" x="280" y="-166.73" font-family="Times,serif" font-size="10.00">dat/asassn.csv</text>
</g>

<g id="edge63" class="edge" x-title="0x7f889a507aa0-&gt;0x7f889a507770">
<path fill="none" stroke="black" d="M303.56,-179.13C324.5,-188.33 355.69,-202.02 377.74,-211.7" />
</g>

<g id="edge64" class="edge" x-title="0x7f889a507aa0-&gt;0x7f889a509620">
<path fill="none" stroke="black" d="M299.16,-159.35C313.97,-151.89 335.69,-142.26 356,-138.23 458.82,-117.82 582.94,-126.69 647.21,-133.69" />
</g>

<g id="node40" class="node" x-title="0x7f889a507550">
<polygon fill="lightgrey" stroke="black" points="579,-428.73 509,-428.73 509,-409.73 579,-409.73 579,-428.73" />
<text text-anchor="middle" x="544" y="-416.73" font-family="Times,serif" font-size="10.00">dat/stars.json</text>
</g>

<g id="edge65" class="edge" x-title="0x7f889a507550-&gt;0x7f889a5070e0">
<path fill="none" stroke="black" d="M579.48,-419.23C596.37,-419.23 617.11,-419.23 636.07,-419.23" />
</g>
</g>
<script>function fade(node, reset=false) {
    node.style.opacity = reset ? "" : "20%";
}
function getDisconnectedElems(node) {
    const nodeId = node.getAttribute("x-title");
    const connectedIds = [nodeId];
    const ret = [];
    for (const edge of document.querySelectorAll('.edge')) {
        const edgeId = edge.getAttribute("x-title");
        const nodeIds = edgeId.split('-&gt;');
        if (nodeIds.includes(nodeId)) {
            const otherNodeId = nodeIds[Number(nodeIds[0] == nodeId)];
            if (!ret.includes(otherNodeId))
                connectedIds.push(otherNodeId);
            connectedIds.push(edgeId);
        }
    }
    for (const el of document.querySelectorAll('.node, .edge')) {
        const id = el.getAttribute("x-title");
        if (!connectedIds.includes(id))
            ret.push(el);
    }
    return ret;
}
function highlight(ev) {
    const el = ev.target;
    const reset = ev.type == 'mouseleave';
    if (el.className.baseVal != "node" &amp;&amp; !reset)
        return;
    for (const elem of getDisconnectedElems(el))
        fade(elem, reset);
}
for (const el of document.querySelectorAll('.node, .edge'))
    el.onmouseenter = el.onmouseleave = highlight;
</script></svg>