<svg xmlns="http://www.w3.org/2000/svg" width="1227pt" height="728pt" viewBox="0.00 0.00 1227.00 728.34">
<g id="graph0" class="graph" transform="scale(1 1) rotate(0) translate(4 724.34)">
<polygon fill="white" stroke="none" points="-4,4 -4,-724.34 1223,-724.34 1223,4 -4,4" />

<g id="node1" class="node" x-title="0x7fb6ce605fe0">
<polygon fill="lightgrey" stroke="black" points="854,-653.84 800,-653.84 800,-634.84 854,-634.84 854,-653.84" />
<text text-anchor="middle" x="827" y="-641.84" font-family="Times,serif" font-size="10.00">dag.svg</text>
</g>

<g id="node2" class="node" x-title="0x7fb6ce605f50">
<ellipse fill="lightgrey" stroke="black" cx="691.5" cy="-644.34" rx="57.5" ry="13.5" />
<text text-anchor="middle" x="691.5" y="-641.84" font-family="Times,serif" font-size="10.00">lib.gengraph.py</text>
</g>

<g id="edge1" class="edge" x-title="0x7fb6ce605f50-&gt;0x7fb6ce605fe0">
<path fill="none" stroke="black" d="M749.12,-644.34C762.47,-644.34 776.38,-644.34 788.64,-644.34" />
<polygon fill="black" stroke="black" points="788.3,-647.84 798.3,-644.34 788.3,-640.84 788.3,-647.84" />
</g>

<g id="node3" class="node" x-title="0x7fb6ce606050">
<polygon fill="lightgrey" stroke="black" points="575,-690.84 513,-690.84 513,-671.84 575,-671.84 575,-690.84" />
<text text-anchor="middle" x="544" y="-678.84" font-family="Times,serif" font-size="10.00">build.ninja</text>
</g>

<g id="edge2" class="edge" x-title="0x7fb6ce606050-&gt;0x7fb6ce605f50">
<path fill="none" stroke="black" d="M575.15,-673.68C597.21,-668.07 627.33,-660.41 651.26,-654.32" />
</g>

<g id="node4" class="node" x-title="0x7fb6ce6060f0">
<polygon fill="lightgrey" stroke="black" points="575.5,-653.84 512.5,-653.84 512.5,-634.84 575.5,-634.84 575.5,-653.84" />
<text text-anchor="middle" x="544" y="-641.84" font-family="Times,serif" font-size="10.00">lib/graph.js</text>
</g>

<g id="edge3" class="edge" x-title="0x7fb6ce6060f0-&gt;0x7fb6ce605f50">
<path fill="none" stroke="black" d="M575.86,-644.34C592.62,-644.34 613.89,-644.34 633.55,-644.34" />
</g>

<g id="node5" class="node" x-title="0x7fb6ce6061c0">
<polygon fill="lightgrey" stroke="black" points="585,-616.84 503,-616.84 503,-597.84 585,-597.84 585,-616.84" />
<text text-anchor="middle" x="544" y="-604.84" font-family="Times,serif" font-size="10.00">lib/gengraph.py</text>
</g>

<g id="edge4" class="edge" x-title="0x7fb6ce6061c0-&gt;0x7fb6ce605f50">
<path fill="none" stroke="black" d="M583.99,-617.26C604.78,-622.55 630.3,-629.04 651.15,-634.34" />
</g>

<g id="node6" class="node" x-title="0x7fb6ce606590">
<ellipse fill="lightgrey" stroke="black" cx="405" cy="-644.34" rx="39.5" ry="13.5" />
<text text-anchor="middle" x="405" y="-641.84" font-family="Times,serif" font-size="10.00">..build.py</text>
</g>

<g id="edge5" class="edge" x-title="0x7fb6ce606590-&gt;0x7fb6ce606050">
<path fill="none" stroke="black" d="M436.75,-652.65C456,-657.85 481.05,-664.61 501.99,-670.27" />
<polygon fill="black" stroke="black" points="500.8,-673.57 511.37,-672.8 502.63,-666.81 500.8,-673.57" />
</g>

<g id="node7" class="node" x-title="0x7fb6ce606620">
<polygon fill="lightgrey" stroke="black" points="307,-691.84 253,-691.84 253,-672.84 307,-672.84 307,-691.84" />
<text text-anchor="middle" x="280" y="-679.84" font-family="Times,serif" font-size="10.00">lib/x.py</text>
</g>

<g id="edge6" class="edge" x-title="0x7fb6ce606620-&gt;0x7fb6ce606590">
<path fill="none" stroke="black" d="M307.39,-674.19C327.15,-668.09 354.19,-659.73 374.64,-653.41" />
</g>

<g id="node8" class="node" x-title="0x7fb6ce606690">
<polygon fill="lightgrey" stroke="black" points="76,-277.84 0,-277.84 0,-258.84 76,-258.84 76,-277.84" />
<text text-anchor="middle" x="38" y="-265.84" font-family="Times,serif" font-size="10.00">dat/config.yml</text>
</g>

<g id="edge7" class="edge" x-title="0x7fb6ce606690-&gt;0x7fb6ce606590">
<path fill="none" stroke="black" d="M40.02,-278.34C45.14,-326.65 69.47,-535.54 112,-582.34 177.69,-654.64 304.96,-654.09 367.51,-648.76" />
</g>

<g id="node9" class="node" x-title="0x7fb6ce606b10">
<ellipse fill="lightgrey" stroke="black" cx="158" cy="-275.34" rx="46" ry="13.5" />
<text text-anchor="middle" x="158" y="-272.84" font-family="Times,serif" font-size="10.00">src.query.py</text>
</g>

<g id="edge8" class="edge" x-title="0x7fb6ce606690-&gt;0x7fb6ce606b10">
<path fill="none" stroke="black" d="M76.34,-270.56C87.81,-271.24 100.56,-272 112.47,-272.7" />
</g>

<g id="node10" class="node" x-title="0x7fb6ce607850">
<ellipse fill="lightgrey" stroke="black" cx="405" cy="-223.34" rx="49" ry="13.5" />
<text text-anchor="middle" x="405" y="-220.84" font-family="Times,serif" font-size="10.00">src.period.py</text>
</g>

<g id="edge9" class="edge" x-title="0x7fb6ce606690-&gt;0x7fb6ce607850">
<path fill="none" stroke="black" d="M76.35,-259.28C87.74,-256.75 100.34,-254.19 112,-252.34 197.79,-238.73 298.83,-230.39 356.75,-226.33" />
</g>

<g id="node11" class="node" x-title="0x7fb6ce607dc0">
<ellipse fill="lightgrey" stroke="black" cx="970" cy="-471.34" rx="65" ry="13.5" />
<text text-anchor="middle" x="970" y="-468.84" font-family="Times,serif" font-size="10.00">src.color_index.py</text>
</g>

<g id="edge10" class="edge" x-title="0x7fb6ce606690-&gt;0x7fb6ce607dc0">
<path fill="none" stroke="black" d="M39.96,-278.02C45.12,-328.72 70.98,-563.73 112,-622.34 161.34,-692.85 192.94,-720.34 279,-720.34 279,-720.34 279,-720.34 692.5,-720.34 774.93,-720.34 806.03,-716.54 869,-663.34 927.85,-613.62 956.57,-520.41 965.68,-485.25" />
</g>

<g id="node12" class="node" x-title="0x7fb6ce6071c0">
<ellipse fill="lightgrey" stroke="black" cx="691.5" cy="-416.34" rx="55" ry="13.5" />
<text text-anchor="middle" x="691.5" y="-413.84" font-family="Times,serif" font-size="10.00">src.calibrate.py</text>
</g>

<g id="edge11" class="edge" x-title="0x7fb6ce606690-&gt;0x7fb6ce6071c0">
<path fill="none" stroke="black" d="M50.28,-278.09C79.42,-302.67 160.47,-367.34 240,-397.34 389.71,-453.82 438.82,-451.52 598,-435.34 615.94,-433.52 635.54,-429.76 652.07,-426.05" />
</g>

<g id="node13" class="node" x-title="0x7fb6ce608490">
<ellipse fill="lightgrey" stroke="black" cx="970" cy="-285.34" rx="63" ry="13.5" />
<text text-anchor="middle" x="970" y="-282.84" font-family="Times,serif" font-size="10.00">src.lightcurves.py</text>
</g>

<g id="edge12" class="edge" x-title="0x7fb6ce606690-&gt;0x7fb6ce608490">
<path fill="none" stroke="black" d="M39.18,-258.79C40.36,-224.85 49.01,-108.83 112,-48.34 167.7,5.15 201.77,-0.34 279,-0.34 279,-0.34 279,-0.34 692.5,-0.34 782.01,-0.34 806.14,-33.62 869,-97.34 921.83,-150.9 953.86,-238.11 964.77,-271.62" />
</g>

<g id="node14" class="node" x-title="0x7fb6ce608840">
<ellipse fill="lightgrey" stroke="black" cx="691.5" cy="-186.34" rx="41" ry="13.5" />
<text text-anchor="middle" x="691.5" y="-183.84" font-family="Times,serif" font-size="10.00">src.tess.py</text>
</g>

<g id="edge13" class="edge" x-title="0x7fb6ce606690-&gt;0x7fb6ce608840">
<path fill="none" stroke="black" d="M46.53,-258.71C73.82,-225 171.57,-114.34 279,-114.34 279,-114.34 279,-114.34 406,-114.34 504.59,-114.34 616.68,-155.48 665.54,-175.56" />
</g>

<g id="node15" class="node" x-title="0x7fb6ce609740">
<ellipse fill="lightgrey" stroke="black" cx="691.5" cy="-128.34" rx="48" ry="13.5" />
<text text-anchor="middle" x="691.5" y="-125.84" font-family="Times,serif" font-size="10.00">src.asassn.py</text>
</g>

<g id="edge14" class="edge" x-title="0x7fb6ce606690-&gt;0x7fb6ce609740">
<path fill="none" stroke="black" d="M42.01,-258.46C49.9,-233.99 73.24,-169.77 112,-130.34 171.41,-69.92 194.26,-38.34 279,-38.34 279,-38.34 279,-38.34 406,-38.34 508.06,-38.34 621.52,-91.64 668.39,-116.21" />
</g>

<g id="node16" class="node" x-title="0x7fb6ce606790">
<polygon fill="lightgrey" stroke="black" points="320,-303.84 240,-303.84 240,-284.84 320,-284.84 320,-303.84" />
<text text-anchor="middle" x="280" y="-291.84" font-family="Times,serif" font-size="10.00">dat/known.json</text>
</g>

<g id="edge15" class="edge" x-title="0x7fb6ce606b10-&gt;0x7fb6ce606790">
<path fill="none" stroke="black" d="M199.29,-281.72C208.69,-283.21 218.81,-284.81 228.58,-286.36" />
<polygon fill="black" stroke="black" points="227.91,-289.8 238.34,-287.9 229.01,-282.88 227.91,-289.8" />
</g>

<g id="node17" class="node" x-title="0x7fb6ce607a40">
<polygon fill="lightgrey" stroke="black" points="598,-199.84 490,-199.84 490,-180.84 598,-180.84 598,-199.84" />
<text text-anchor="middle" x="544" y="-187.84" font-family="Times,serif" font-size="10.00">img/period/asassn.png</text>
</g>

<g id="edge16" class="edge" x-title="0x7fb6ce607850-&gt;0x7fb6ce607a40">
<path fill="none" stroke="black" d="M443.07,-214.41C457.75,-210.88 474.89,-206.75 490.79,-202.92" />
<polygon fill="black" stroke="black" points="491.18,-206.43 500.08,-200.68 489.54,-199.62 491.18,-206.43" />
</g>

<g id="node18" class="node" x-title="0x7fb6ce6076a0">
<polygon fill="lightgrey" stroke="black" points="583,-236.84 505,-236.84 505,-217.84 583,-217.84 583,-236.84" />
<text text-anchor="middle" x="544" y="-224.84" font-family="Times,serif" font-size="10.00">dat/period.json</text>
</g>

<g id="edge17" class="edge" x-title="0x7fb6ce607850-&gt;0x7fb6ce6076a0">
<path fill="none" stroke="black" d="M453.92,-224.74C466.68,-225.11 480.49,-225.52 493.34,-225.89" />
<polygon fill="black" stroke="black" points="493.2,-229.39 503.3,-226.18 493.41,-222.39 493.2,-229.39" />
</g>

<g id="node19" class="node" x-title="0x7fb6ce607ee0">
<polygon fill="lightgrey" stroke="black" points="1196.5,-480.84 1093.5,-480.84 1093.5,-461.84 1196.5,-461.84 1196.5,-480.84" />
<text text-anchor="middle" x="1145" y="-468.84" font-family="Times,serif" font-size="10.00">img/color_index.png</text>
</g>

<g id="edge18" class="edge" x-title="0x7fb6ce607dc0-&gt;0x7fb6ce607ee0">
<path fill="none" stroke="black" d="M1035.42,-471.34C1050.58,-471.34 1066.7,-471.34 1081.76,-471.34" />
<polygon fill="black" stroke="black" points="1081.52,-474.84 1091.52,-471.34 1081.52,-467.84 1081.52,-474.84" />
</g>

<g id="node20" class="node" x-title="0x7fb6ce607250">
<polygon fill="lightgrey" stroke="black" points="854.5,-351.84 799.5,-351.84 799.5,-332.84 854.5,-332.84 854.5,-351.84" />
<text text-anchor="middle" x="827" y="-339.84" font-family="Times,serif" font-size="10.00">dat/B.csv</text>
</g>

<g id="edge19" class="edge" x-title="0x7fb6ce6071c0-&gt;0x7fb6ce607250">
<path fill="none" stroke="black" d="M711.92,-403.56C730.35,-391.68 759.01,-373.84 785,-360.34 787.1,-359.25 789.28,-358.16 791.5,-357.1" />
<polygon fill="black" stroke="black" points="792.92,-360.3 800.53,-352.93 789.98,-353.94 792.92,-360.3" />
</g>

<g id="node21" class="node" x-title="0x7fb6ce6072c0">
<polygon fill="lightgrey" stroke="black" points="854,-499.84 800,-499.84 800,-480.84 854,-480.84 854,-499.84" />
<text text-anchor="middle" x="827" y="-487.84" font-family="Times,serif" font-size="10.00">dat/V.csv</text>
</g>

<g id="edge20" class="edge" x-title="0x7fb6ce6071c0-&gt;0x7fb6ce6072c0">
<path fill="none" stroke="black" d="M712.73,-429.19C731.24,-440.75 759.55,-457.92 785,-471.34 787.7,-472.77 790.54,-474.2 793.39,-475.6" />
<polygon fill="black" stroke="black" points="791.77,-478.71 802.3,-479.85 794.78,-472.39 791.77,-478.71" />
</g>

<g id="node22" class="node" x-title="0x7fb6ce607360">
<polygon fill="lightgrey" stroke="black" points="857.5,-462.84 796.5,-462.84 796.5,-443.84 857.5,-443.84 857.5,-462.84" />
<text text-anchor="middle" x="827" y="-450.84" font-family="Times,serif" font-size="10.00">dat/SG.csv</text>
</g>

<g id="edge21" class="edge" x-title="0x7fb6ce6071c0-&gt;0x7fb6ce607360">
<path fill="none" stroke="black" d="M729.33,-426.55C746.64,-431.35 767.32,-437.08 785.11,-442.01" />
<polygon fill="black" stroke="black" points="784,-445.33 794.57,-444.63 785.87,-438.59 784,-445.33" />
</g>

<g id="node23" class="node" x-title="0x7fb6ce6074c0">
<polygon fill="lightgrey" stroke="black" points="857,-425.84 797,-425.84 797,-406.84 857,-406.84 857,-425.84" />
<text text-anchor="middle" x="827" y="-413.84" font-family="Times,serif" font-size="10.00">dat/SR.csv</text>
</g>

<g id="edge22" class="edge" x-title="0x7fb6ce6071c0-&gt;0x7fb6ce6074c0">
<path fill="none" stroke="black" d="M746.8,-416.34C759.71,-416.34 773.26,-416.34 785.44,-416.34" />
<polygon fill="black" stroke="black" points="785.11,-419.84 795.11,-416.34 785.11,-412.84 785.11,-419.84" />
</g>

<g id="node24" class="node" x-title="0x7fb6ce607560">
<polygon fill="lightgrey" stroke="black" points="855,-388.84 799,-388.84 799,-369.84 855,-369.84 855,-388.84" />
<text text-anchor="middle" x="827" y="-376.84" font-family="Times,serif" font-size="10.00">dat/SI.csv</text>
</g>

<g id="edge23" class="edge" x-title="0x7fb6ce6071c0-&gt;0x7fb6ce607560">
<path fill="none" stroke="black" d="M729.33,-406.13C747.48,-401.1 769.36,-395.04 787.7,-389.96" />
<polygon fill="black" stroke="black" points="788.44,-393.38 797.15,-387.34 786.57,-386.64 788.44,-393.38" />
</g>

<g id="node25" class="node" x-title="0x7fb6ce608a30">
<polygon fill="lightgrey" stroke="black" points="1201.5,-405.84 1088.5,-405.84 1088.5,-386.84 1201.5,-386.84 1201.5,-405.84" />
<text text-anchor="middle" x="1145" y="-393.84" font-family="Times,serif" font-size="10.00">img/lightcurves/all.png</text>
</g>

<g id="edge24" class="edge" x-title="0x7fb6ce608490-&gt;0x7fb6ce608a30">
<path fill="none" stroke="black" d="M981.79,-298.81C998.66,-318.96 1033.3,-356.79 1071,-377.34 1074.44,-379.22 1078.07,-380.91 1081.8,-382.45" />
<polygon fill="black" stroke="black" points="1080.5,-385.7 1091.09,-385.83 1082.89,-379.12 1080.5,-385.7" />
</g>

<g id="node26" class="node" x-title="0x7fb6ce607400">
<polygon fill="lightgrey" stroke="black" points="1203.5,-368.84 1086.5,-368.84 1086.5,-349.84 1203.5,-349.84 1203.5,-368.84" />
<text text-anchor="middle" x="1145" y="-356.84" font-family="Times,serif" font-size="10.00">img/lightcurves/tess.png</text>
</g>

<g id="edge25" class="edge" x-title="0x7fb6ce608490-&gt;0x7fb6ce607400">
<path fill="none" stroke="black" d="M991.33,-298.5C1011.03,-310.76 1042.1,-328.84 1071,-340.34 1076.34,-342.47 1081.99,-344.42 1087.69,-346.2" />
<polygon fill="black" stroke="black" points="1086.62,-349.53 1097.2,-348.98 1088.59,-342.82 1086.62,-349.53" />
</g>

<g id="node27" class="node" x-title="0x7fb6ce608c50">
<polygon fill="lightgrey" stroke="black" points="1209,-331.84 1081,-331.84 1081,-312.84 1209,-312.84 1209,-331.84" />
<text text-anchor="middle" x="1145" y="-319.84" font-family="Times,serif" font-size="10.00">img/lightcurves/asassn.png</text>
</g>

<g id="edge26" class="edge" x-title="0x7fb6ce608490-&gt;0x7fb6ce608c50">
<path fill="none" stroke="black" d="M1016,-294.97C1037.51,-299.57 1063.51,-305.13 1086.44,-310.03" />
<polygon fill="black" stroke="black" points="1085.42,-313.39 1095.93,-312.06 1086.89,-306.55 1085.42,-313.39" />
</g>

<g id="node28" class="node" x-title="0x7fb6ce608d10">
<polygon fill="lightgrey" stroke="black" points="1219,-294.84 1071,-294.84 1071,-275.84 1219,-275.84 1219,-294.84" />
<text text-anchor="middle" x="1145" y="-282.84" font-family="Times,serif" font-size="10.00">img/lightcurves/asassn_tess.png</text>
</g>

<g id="edge27" class="edge" x-title="0x7fb6ce608490-&gt;0x7fb6ce608d10">
<path fill="none" stroke="black" d="M1033.46,-285.34C1041.87,-285.34 1050.61,-285.34 1059.33,-285.34" />
<polygon fill="black" stroke="black" points="1059.23,-288.84 1069.23,-285.34 1059.23,-281.84 1059.23,-288.84" />
</g>

<g id="node29" class="node" x-title="0x7fb6ce608dd0">
<polygon fill="lightgrey" stroke="black" points="1199.5,-257.84 1090.5,-257.84 1090.5,-238.84 1199.5,-238.84 1199.5,-257.84" />
<text text-anchor="middle" x="1145" y="-245.84" font-family="Times,serif" font-size="10.00">img/lightcurves/B.png</text>
</g>

<g id="edge28" class="edge" x-title="0x7fb6ce608490-&gt;0x7fb6ce608dd0">
<path fill="none" stroke="black" d="M1016,-275.72C1037.51,-271.12 1063.51,-265.56 1086.44,-260.65" />
<polygon fill="black" stroke="black" points="1086.89,-264.14 1095.93,-258.62 1085.42,-257.29 1086.89,-264.14" />
</g>

<g id="node30" class="node" x-title="0x7fb6ce608e40">
<polygon fill="lightgrey" stroke="black" points="1199,-220.84 1091,-220.84 1091,-201.84 1199,-201.84 1199,-220.84" />
<text text-anchor="middle" x="1145" y="-208.84" font-family="Times,serif" font-size="10.00">img/lightcurves/V.png</text>
</g>

<g id="edge29" class="edge" x-title="0x7fb6ce608490-&gt;0x7fb6ce608e40">
<path fill="none" stroke="black" d="M990.52,-272.32C1010.12,-259.75 1041.57,-240.96 1071,-229.34 1075.56,-227.54 1080.36,-225.88 1085.22,-224.36" />
<polygon fill="black" stroke="black" points="1085.83,-227.83 1094.45,-221.67 1083.87,-221.11 1085.83,-227.83" />
</g>

<g id="node31" class="node" x-title="0x7fb6ce608eb0">
<polygon fill="lightgrey" stroke="black" points="1202.5,-183.84 1087.5,-183.84 1087.5,-164.84 1202.5,-164.84 1202.5,-183.84" />
<text text-anchor="middle" x="1145" y="-171.84" font-family="Times,serif" font-size="10.00">img/lightcurves/SG.png</text>
</g>

<g id="edge30" class="edge" x-title="0x7fb6ce608490-&gt;0x7fb6ce608eb0">
<path fill="none" stroke="black" d="M981.72,-271.67C998.51,-251.21 1033.04,-212.86 1071,-192.34 1073.71,-190.88 1076.53,-189.54 1079.43,-188.3" />
<polygon fill="black" stroke="black" points="1080.63,-191.59 1088.77,-184.8 1078.18,-185.03 1080.63,-191.59" />
</g>

<g id="node32" class="node" x-title="0x7fb6ce608f50">
<polygon fill="lightgrey" stroke="black" points="1202,-146.84 1088,-146.84 1088,-127.84 1202,-127.84 1202,-146.84" />
<text text-anchor="middle" x="1145" y="-134.84" font-family="Times,serif" font-size="10.00">img/lightcurves/SR.png</text>
</g>

<g id="edge31" class="edge" x-title="0x7fb6ce608490-&gt;0x7fb6ce608f50">
<path fill="none" stroke="black" d="M977.62,-271.48C991.17,-244.63 1024.75,-185.54 1071,-155.34 1073.01,-154.03 1075.1,-152.82 1077.26,-151.69" />
<polygon fill="black" stroke="black" points="1078.64,-154.91 1086.37,-147.65 1075.81,-148.51 1078.64,-154.91" />
</g>

<g id="node33" class="node" x-title="0x7fb6ce608ff0">
<polygon fill="lightgrey" stroke="black" points="1200,-442.84 1090,-442.84 1090,-423.84 1200,-423.84 1200,-442.84" />
<text text-anchor="middle" x="1145" y="-430.84" font-family="Times,serif" font-size="10.00">img/lightcurves/SI.png</text>
</g>

<g id="edge32" class="edge" x-title="0x7fb6ce608490-&gt;0x7fb6ce608ff0">
<path fill="none" stroke="black" d="M977.68,-299.05C991.34,-325.6 1025.11,-384.08 1071,-414.34 1073.58,-416.04 1076.3,-417.59 1079.11,-419" />
<polygon fill="black" stroke="black" points="1077.68,-422.19 1088.25,-422.92 1080.44,-415.76 1077.68,-422.19" />
</g>

<g id="node34" class="node" x-title="0x7fb6ce609120">
<polygon fill="lightgrey" stroke="black" points="858.5,-199.84 795.5,-199.84 795.5,-180.84 858.5,-180.84 858.5,-199.84" />
<text text-anchor="middle" x="827" y="-187.84" font-family="Times,serif" font-size="10.00">dat/tess.csv</text>
</g>

<g id="edge33" class="edge" x-title="0x7fb6ce608840-&gt;0x7fb6ce609120">
<path fill="none" stroke="black" d="M732.55,-187.54C748.75,-188.03 767.45,-188.59 783.85,-189.08" />
<polygon fill="black" stroke="black" points="783.7,-192.58 793.8,-189.38 783.91,-185.58 783.7,-192.58" />
</g>

<g id="node35" class="node" x-title="0x7fb6ce609200">
<polygon fill="lightgrey" stroke="black" points="869,-125.84 785,-125.84 785,-106.84 869,-106.84 869,-125.84" />
<text text-anchor="middle" x="827" y="-113.84" font-family="Times,serif" font-size="10.00">dat/asassn_g.csv</text>
</g>

<g id="edge34" class="edge" x-title="0x7fb6ce609740-&gt;0x7fb6ce609200">
<path fill="none" stroke="black" d="M737.7,-124.28C749.28,-123.24 761.83,-122.11 773.73,-121.04" />
<polygon fill="black" stroke="black" points="773.74,-124.56 783.38,-120.17 773.11,-117.58 773.74,-124.56" />
</g>

<g id="node36" class="node" x-title="0x7fb6ce6092a0">
<polygon fill="lightgrey" stroke="black" points="868.5,-162.84 785.5,-162.84 785.5,-143.84 868.5,-143.84 868.5,-162.84" />
<text text-anchor="middle" x="827" y="-150.84" font-family="Times,serif" font-size="10.00">dat/asassn_v.csv</text>
</g>

<g id="edge35" class="edge" x-title="0x7fb6ce609740-&gt;0x7fb6ce6092a0">
<path fill="none" stroke="black" d="M732.19,-135.78C745.41,-138.25 760.34,-141.05 774.33,-143.67" />
<polygon fill="black" stroke="black" points="773.34,-147.04 783.82,-145.44 774.63,-140.16 773.34,-147.04" />
</g>

<g id="edge36" class="edge" x-title="0x7fb6ce606790-&gt;0x7fb6ce606590">
<path fill="none" stroke="black" d="M288.05,-304.15C296.73,-316.64 311.36,-339.14 320,-360.34 345.38,-422.63 336.86,-442.86 356,-507.34 369.63,-553.25 389.47,-606.48 398.79,-630.87" />
</g>

<g id="edge37" class="edge" x-title="0x7fb6ce606790-&gt;0x7fb6ce607850">
<path fill="none" stroke="black" d="M298.1,-284.47C320.15,-271.74 358.5,-249.61 382.5,-235.76" />
</g>

<g id="edge38" class="edge" x-title="0x7fb6ce606790-&gt;0x7fb6ce607dc0">
<path fill="none" stroke="black" d="M292.37,-304.2C322.47,-329.78 407.56,-398.82 490,-435.34 646.84,-504.82 700.15,-538.58 869,-508.34 895.06,-503.68 923.21,-492.68 942.98,-483.88" />
</g>

<g id="edge39" class="edge" x-title="0x7fb6ce606790-&gt;0x7fb6ce6071c0">
<path fill="none" stroke="black" d="M313.1,-304.26C326.37,-308.34 341.92,-313.1 356,-317.34 464.73,-350.1 593.63,-387.98 654.82,-405.91" />
</g>

<g id="edge40" class="edge" x-title="0x7fb6ce606790-&gt;0x7fb6ce608490">
<path fill="none" stroke="black" d="M320.46,-293.83C434.89,-292.33 767.51,-287.98 906.66,-286.16" />
</g>

<g id="edge41" class="edge" x-title="0x7fb6ce606790-&gt;0x7fb6ce608840">
<path fill="none" stroke="black" d="M320.29,-290.32C393.48,-282.48 547.78,-264.28 598,-245.34 627.59,-234.19 657.7,-212.69 675.21,-198.96" />
</g>

<g id="edge42" class="edge" x-title="0x7fb6ce606790-&gt;0x7fb6ce609740">
<path fill="none" stroke="black" d="M285.85,-284.53C296,-265.11 321.4,-221.8 356,-200.34 404.46,-170.28 568.39,-144.81 647.32,-133.96" />
</g>

<g id="edge43" class="edge" x-title="0x7fb6ce6076a0-&gt;0x7fb6ce6071c0">
<path fill="none" stroke="black" d="M552.62,-237.24C576.88,-268.76 652.4,-366.85 680.14,-402.89" />
</g>

<g id="edge44" class="edge" x-title="0x7fb6ce6076a0-&gt;0x7fb6ce608490">
<path fill="none" stroke="black" d="M583.32,-227.32C644.37,-227.95 767.22,-231.94 869,-252.34 893.02,-257.16 919.29,-265.98 938.88,-273.28" />
</g>

<g id="edge45" class="edge" x-title="0x7fb6ce6076a0-&gt;0x7fb6ce608840">
<path fill="none" stroke="black" d="M580.22,-217.42C604.44,-210.59 636.31,-201.61 659.55,-195.06" />
</g>

<g id="edge46" class="edge" x-title="0x7fb6ce6076a0-&gt;0x7fb6ce609740">
<path fill="none" stroke="black" d="M581.13,-217.45C587.05,-214.98 592.91,-211.98 598,-208.34 618.84,-193.46 614.83,-180.33 634,-163.34 644.02,-154.46 656.56,-146.45 667.28,-140.33" />
</g>

<g id="edge47" class="edge" x-title="0x7fb6ce607250-&gt;0x7fb6ce607dc0">
<path fill="none" stroke="black" d="M854.93,-352.2C859.81,-354.53 864.71,-357.25 869,-360.34 908.32,-388.75 943.55,-434.88 959.69,-457.69" />
</g>

<g id="edge48" class="edge" x-title="0x7fb6ce607250-&gt;0x7fb6ce608490">
<path fill="none" stroke="black" d="M852.56,-332.41C876.55,-322.72 913.1,-307.94 938.84,-297.54" />
</g>

<g id="edge49" class="edge" x-title="0x7fb6ce6072c0-&gt;0x7fb6ce607dc0">
<path fill="none" stroke="black" d="M854.19,-486.81C871.07,-484.54 893.66,-481.5 914.33,-478.71" />
</g>

<g id="edge50" class="edge" x-title="0x7fb6ce6072c0-&gt;0x7fb6ce608490">
<path fill="none" stroke="black" d="M854.3,-481.23C859.57,-478.59 864.77,-475.32 869,-471.34 923.3,-420.18 954.46,-332.82 964.96,-299.15" />
</g>

<g id="edge51" class="edge" x-title="0x7fb6ce607360-&gt;0x7fb6ce607dc0">
<path fill="none" stroke="black" d="M857.9,-457.16C874.07,-459.22 894.56,-461.84 913.53,-464.26" />
</g>

<g id="edge52" class="edge" x-title="0x7fb6ce607360-&gt;0x7fb6ce608490">
<path fill="none" stroke="black" d="M854.87,-443.48C859.87,-440.95 864.82,-437.91 869,-434.34 915.67,-394.49 949.73,-327.74 962.95,-299.09" />
</g>

<g id="edge53" class="edge" x-title="0x7fb6ce6074c0-&gt;0x7fb6ce607dc0">
<path fill="none" stroke="black" d="M853.53,-426.3C877.26,-435.56 912.66,-449.36 938,-459.25" />
</g>

<g id="edge54" class="edge" x-title="0x7fb6ce6074c0-&gt;0x7fb6ce608490">
<path fill="none" stroke="black" d="M853.63,-406.43C858.94,-403.85 864.34,-400.8 869,-397.34 908.16,-368.31 943.47,-321.93 959.66,-299.04" />
</g>

<g id="edge55" class="edge" x-title="0x7fb6ce607560-&gt;0x7fb6ce607dc0">
<path fill="none" stroke="black" d="M853.16,-389.33C858.5,-391.74 864.02,-394.46 869,-397.34 900.58,-415.65 934.04,-442.04 953.14,-457.86" />
</g>

<g id="edge56" class="edge" x-title="0x7fb6ce607560-&gt;0x7fb6ce608490">
<path fill="none" stroke="black" d="M851.42,-369.52C857.29,-366.78 863.48,-363.64 869,-360.34 900.67,-341.42 934.37,-314.55 953.45,-298.64" />
</g>

<g id="edge57" class="edge" x-title="0x7fb6ce609120-&gt;0x7fb6ce608490">
<path fill="none" stroke="black" d="M845.76,-200.29C853.05,-204.48 861.52,-209.51 869,-214.34 898.51,-233.4 931.52,-257.39 951.26,-272.03" />
</g>

<g id="edge58" class="edge" x-title="0x7fb6ce609200-&gt;0x7fb6ce608490">
<path fill="none" stroke="black" d="M856.6,-126.34C861.01,-128.58 865.31,-131.24 869,-134.34 916.63,-174.44 950.4,-242.84 963.26,-271.78" />
</g>

<g id="edge59" class="edge" x-title="0x7fb6ce6092a0-&gt;0x7fb6ce608490">
<path fill="none" stroke="black" d="M854.96,-163.15C859.84,-165.49 864.74,-168.22 869,-171.34 908.93,-200.59 944.14,-248.36 960.03,-271.68" />
</g>

<g id="node37" class="node" x-title="0x7fb6ce606800">
<polygon fill="lightgrey" stroke="black" points="307,-615.84 253,-615.84 253,-596.84 307,-596.84 307,-615.84" />
<text text-anchor="middle" x="280" y="-603.84" font-family="Times,serif" font-size="10.00">build.py</text>
</g>

<g id="edge60" class="edge" x-title="0x7fb6ce606800-&gt;0x7fb6ce606590">
<path fill="none" stroke="black" d="M307.39,-614.5C327.15,-620.6 354.19,-628.96 374.64,-635.27" />
</g>

<g id="node38" class="node" x-title="0x7fb6ce607ae0">
<polygon fill="lightgrey" stroke="black" points="313.5,-388.84 246.5,-388.84 246.5,-369.84 313.5,-369.84 313.5,-388.84" />
<text text-anchor="middle" x="280" y="-376.84" font-family="Times,serif" font-size="10.00">matplotlibrc</text>
</g>

<g id="edge61" class="edge" x-title="0x7fb6ce607ae0-&gt;0x7fb6ce607850">
<path fill="none" stroke="black" d="M288.69,-369.58C309.94,-342.64 369.45,-267.16 393.61,-236.52" />
</g>

<g id="edge62" class="edge" x-title="0x7fb6ce607ae0-&gt;0x7fb6ce607dc0">
<path fill="none" stroke="black" d="M283.42,-389.21C290.09,-414.07 311.3,-479.25 356,-507.34 452.75,-568.14 760.14,-577.06 869,-542.34 904.5,-531.02 938.19,-502 955.96,-484.77" />
</g>

<g id="edge63" class="edge" x-title="0x7fb6ce607ae0-&gt;0x7fb6ce608490">
<path fill="none" stroke="black" d="M313.72,-374.87C423.61,-359.86 780.14,-311.15 915.87,-292.6" />
</g>

<g id="node39" class="node" x-title="0x7fb6ce607b80">
<polygon fill="lightgrey" stroke="black" points="317,-183.84 243,-183.84 243,-164.84 317,-164.84 317,-183.84" />
<text text-anchor="middle" x="280" y="-171.84" font-family="Times,serif" font-size="10.00">dat/asassn.csv</text>
</g>

<g id="edge64" class="edge" x-title="0x7fb6ce607b80-&gt;0x7fb6ce607850">
<path fill="none" stroke="black" d="M305.89,-184.26C326.11,-192.31 354.62,-203.67 375.7,-212.07" />
</g>

<g id="edge65" class="edge" x-title="0x7fb6ce607b80-&gt;0x7fb6ce609740">
<path fill="none" stroke="black" d="M296.65,-164.43C311.34,-155.72 334.25,-143.64 356,-138.34 457.19,-113.72 580.67,-118.68 645.62,-123.86" />
</g>

<g id="node40" class="node" x-title="0x7fb6ce607630">
<polygon fill="lightgrey" stroke="black" points="579,-426.84 509,-426.84 509,-407.84 579,-407.84 579,-426.84" />
<text text-anchor="middle" x="544" y="-414.84" font-family="Times,serif" font-size="10.00">dat/stars.json</text>
</g>

<g id="edge66" class="edge" x-title="0x7fb6ce607630-&gt;0x7fb6ce6071c0">
<path fill="none" stroke="black" d="M579.48,-417.11C596.37,-416.99 617.11,-416.85 636.07,-416.72" />
</g>
</g>
<script>function fade(node, reset=false) {
    node.style.opacity = reset ? "" : "20%";
}
function getDisconnectedElems(node) {
    const nodeId = node.getAttribute("x-title");
    const connectedIds = [nodeId];
    const ret = [];
    for (const edge of document.querySelectorAll('.edge')) {
        const edgeId = edge.getAttribute("x-title");
        const nodeIds = edgeId.split('-&gt;');
        if (nodeIds.includes(nodeId)) {
            const otherNodeId = nodeIds[Number(nodeIds[0] == nodeId)];
            if (!ret.includes(otherNodeId))
                connectedIds.push(otherNodeId);
            connectedIds.push(edgeId);
        }
    }
    for (const el of document.querySelectorAll('.node, .edge')) {
        const id = el.getAttribute("x-title");
        if (!connectedIds.includes(id))
            ret.push(el);
    }
    return ret;
}
function highlight(ev) {
    const el = ev.target;
    const reset = ev.type == 'mouseleave';
    if (el.className.baseVal != "node" &amp;&amp; !reset)
        return;
    for (const elem of getDisconnectedElems(el))
        fade(elem, reset);
}
for (const el of document.querySelectorAll('.node, .edge'))
    el.onmouseenter = el.onmouseleave = highlight;
</script></svg>