<?xml version="1.0" encoding="UTF-8" standalone="no"?>
<!DOCTYPE svg PUBLIC "-//W3C//DTD SVG 1.1//EN"
 "http://www.w3.org/Graphics/SVG/1.1/DTD/svg11.dtd">
<!-- Generated by graphviz version 7.0.5 (20221223.1930)
 -->
<!-- Title: gvpr_result Pages: 1 -->
<svg width="1480pt" height="903pt"
 viewBox="0.00 0.00 1480.00 902.73" xmlns="http://www.w3.org/2000/svg" xmlns:xlink="http://www.w3.org/1999/xlink">
<g id="graph0" class="graph" transform="scale(1 1) rotate(0) translate(4 898.73)">
<title>gvpr_result</title>
<polygon fill="white" stroke="none" points="-4,4 -4,-898.73 1476,-898.73 1476,4 -4,4"/>
<!-- 0x19bb220 -->
<g id="node1" class="node">
<title>0x19bb220</title>
<polygon fill="lightgrey" stroke="black" points="1087,-727.73 1030,-727.73 1030,-708.73 1087,-708.73 1087,-727.73"/>
<text text-anchor="middle" x="1058.5" y="-715.73" font-family="Times,serif" font-size="10.00">dag.svg</text>
</g>
<!-- 0x19ba1b0 -->
<g id="node2" class="node">
<title>0x19ba1b0</title>
<ellipse fill="lightgrey" stroke="black" cx="889.5" cy="-718.23" rx="47.5" ry="13.5"/>
<text text-anchor="middle" x="889.5" y="-715.73" font-family="Times,serif" font-size="10.00">gengraph</text>
</g>
<!-- 0x19ba1b0&#45;&gt;0x19bb220 -->
<g id="edge1" class="edge">
<title>0x19ba1b0&#45;&gt;0x19bb220</title>
<path fill="none" stroke="black" d="M937.46,-718.23C963,-718.23 994.21,-718.23 1018.41,-718.23"/>
<polygon fill="black" stroke="black" points="1018.15,-721.73 1028.15,-718.23 1018.15,-714.73 1018.15,-721.73"/>
</g>
<!-- 0x19ba5e0 -->
<g id="node3" class="node">
<title>0x19ba5e0</title>
<polygon fill="lightgrey" stroke="black" points="768,-744.73 697,-744.73 697,-725.73 768,-725.73 768,-744.73"/>
<text text-anchor="middle" x="732.5" y="-732.73" font-family="Times,serif" font-size="10.00">build.ninja</text>
</g>
<!-- 0x19ba5e0&#45;&gt;0x19ba1b0 -->
<g id="edge2" class="edge">
<title>0x19ba5e0&#45;&gt;0x19ba1b0</title>
<path fill="none" stroke="black" d="M768.29,-731.41C790.87,-728.94 820.48,-725.69 844.67,-723.04"/>
</g>
<!-- 0x19ba6b0 -->
<g id="node4" class="node">
<title>0x19ba6b0</title>
<polygon fill="lightgrey" stroke="black" points="769.5,-707.73 695.5,-707.73 695.5,-688.73 769.5,-688.73 769.5,-707.73"/>
<text text-anchor="middle" x="732.5" y="-695.73" font-family="Times,serif" font-size="10.00">lib/graph.js</text>
</g>
<!-- 0x19ba6b0&#45;&gt;0x19ba1b0 -->
<g id="edge3" class="edge">
<title>0x19ba6b0&#45;&gt;0x19ba1b0</title>
<path fill="none" stroke="black" d="M769.84,-702.92C792.48,-705.84 821.72,-709.61 845.51,-712.68"/>
</g>
<!-- 0x19ba830 -->
<g id="node5" class="node">
<title>0x19ba830</title>
<ellipse fill="lightgrey" stroke="black" cx="584" cy="-735.23" rx="41.54" ry="13.5"/>
<text text-anchor="middle" x="584" y="-732.73" font-family="Times,serif" font-size="10.00">build.py</text>
</g>
<!-- 0x19ba830&#45;&gt;0x19ba5e0 -->
<g id="edge4" class="edge">
<title>0x19ba830&#45;&gt;0x19ba5e0</title>
<path fill="none" stroke="black" d="M625.81,-735.23C644.32,-735.23 666.29,-735.23 685.4,-735.23"/>
<polygon fill="black" stroke="black" points="685.35,-738.73 695.35,-735.23 685.35,-731.73 685.35,-738.73"/>
</g>
<!-- 0x19bac30 -->
<g id="node6" class="node">
<title>0x19bac30</title>
<polygon fill="lightgrey" stroke="black" points="454.5,-783.73 400.5,-783.73 400.5,-764.73 454.5,-764.73 454.5,-783.73"/>
<text text-anchor="middle" x="427.5" y="-771.73" font-family="Times,serif" font-size="10.00">lib/x.py</text>
</g>
<!-- 0x19bac30&#45;&gt;0x19ba830 -->
<g id="edge5" class="edge">
<title>0x19bac30&#45;&gt;0x19ba830</title>
<path fill="none" stroke="black" d="M454.71,-767.61C481.05,-760.96 521.73,-750.69 550.2,-743.51"/>
</g>
<!-- 0x19bad00 -->
<g id="node7" class="node">
<title>0x19bad00</title>
<polygon fill="lightgrey" stroke="black" points="120,-414.73 31,-414.73 31,-395.73 120,-395.73 120,-414.73"/>
<text text-anchor="middle" x="75.5" y="-402.73" font-family="Times,serif" font-size="10.00">dat/config.yml</text>
</g>
<!-- 0x19bad00&#45;&gt;0x19ba830 -->
<g id="edge6" class="edge">
<title>0x19bad00&#45;&gt;0x19ba830</title>
<path fill="none" stroke="black" d="M77.43,-415.1C81.7,-454.43 102.9,-601.29 187,-674.23 290.66,-764.13 469.68,-751.7 546.38,-741.27"/>
</g>
<!-- 0x19bb430 -->
<g id="node8" class="node">
<title>0x19bb430</title>
<ellipse fill="lightgrey" stroke="black" cx="252" cy="-434.23" rx="43" ry="13.5"/>
<text text-anchor="middle" x="252" y="-431.73" font-family="Times,serif" font-size="10.00">query.py</text>
</g>
<!-- 0x19bad00&#45;&gt;0x19bb430 -->
<g id="edge7" class="edge">
<title>0x19bad00&#45;&gt;0x19bb430</title>
<path fill="none" stroke="black" d="M120.08,-412.47C148.75,-417.24 185.9,-423.41 213.29,-427.96"/>
</g>
<!-- 0x19bc650 -->
<g id="node9" class="node">
<title>0x19bc650</title>
<ellipse fill="lightgrey" stroke="black" cx="584" cy="-276.23" rx="46" ry="13.5"/>
<text text-anchor="middle" x="584" y="-273.73" font-family="Times,serif" font-size="10.00">period.py</text>
</g>
<!-- 0x19bad00&#45;&gt;0x19bc650 -->
<g id="edge8" class="edge">
<title>0x19bad00&#45;&gt;0x19bc650</title>
<path fill="none" stroke="black" d="M90.89,-395.39C111.41,-381.76 150.62,-357.12 187,-342.23 307.29,-292.97 462.49,-280.46 537.89,-277.29"/>
</g>
<!-- 0x19bcd50 -->
<g id="node10" class="node">
<title>0x19bcd50</title>
<ellipse fill="lightgrey" stroke="black" cx="1237.5" cy="-528.23" rx="64.5" ry="13.5"/>
<text text-anchor="middle" x="1237.5" y="-525.73" font-family="Times,serif" font-size="10.00">color_index.py</text>
</g>
<!-- 0x19bad00&#45;&gt;0x19bcd50 -->
<g id="edge9" class="edge">
<title>0x19bad00&#45;&gt;0x19bcd50</title>
<path fill="none" stroke="black" d="M82.01,-414.96C96.4,-439.65 137.45,-505.56 187,-545.23 279.18,-619.03 308.42,-660.23 426.5,-660.23 426.5,-660.23 426.5,-660.23 890.5,-660.23 1000.92,-660.23 1038.01,-678.15 1137,-629.23 1178.26,-608.84 1212.34,-564.34 1227.7,-541.84"/>
</g>
<!-- 0x19bb7f0 -->
<g id="node11" class="node">
<title>0x19bb7f0</title>
<ellipse fill="lightgrey" stroke="black" cx="889.5" cy="-510.23" rx="54.5" ry="13.5"/>
<text text-anchor="middle" x="889.5" y="-507.73" font-family="Times,serif" font-size="10.00">calibrate.py</text>
</g>
<!-- 0x19bad00&#45;&gt;0x19bb7f0 -->
<g id="edge10" class="edge">
<title>0x19bad00&#45;&gt;0x19bb7f0</title>
<path fill="none" stroke="black" d="M86.68,-415.11C126.47,-452.63 276.69,-584.23 426.5,-584.23 426.5,-584.23 426.5,-584.23 585,-584.23 688.86,-584.23 807.17,-542.82 860.19,-521.95"/>
</g>
<!-- 0x19bd6b0 -->
<g id="node12" class="node">
<title>0x19bd6b0</title>
<ellipse fill="lightgrey" stroke="black" cx="1237.5" cy="-436.23" rx="63" ry="13.5"/>
<text text-anchor="middle" x="1237.5" y="-433.73" font-family="Times,serif" font-size="10.00">lightcurves.py</text>
</g>
<!-- 0x19bad00&#45;&gt;0x19bd6b0 -->
<g id="edge11" class="edge">
<title>0x19bad00&#45;&gt;0x19bd6b0</title>
<path fill="none" stroke="black" d="M78.78,-395.28C87.35,-359.82 120.53,-237.7 187,-162.23 269.7,-68.32 301.37,-14.23 426.5,-14.23 426.5,-14.23 426.5,-14.23 890.5,-14.23 1000.71,-14.23 1053.89,31.16 1137,-41.23 1196.99,-93.48 1228.39,-359.01 1235.12,-422.55"/>
</g>
<!-- 0x19bde80 -->
<g id="node13" class="node">
<title>0x19bde80</title>
<ellipse fill="lightgrey" stroke="black" cx="889.5" cy="-128.23" rx="37.5" ry="13.5"/>
<text text-anchor="middle" x="889.5" y="-125.73" font-family="Times,serif" font-size="10.00">tess.py</text>
</g>
<!-- 0x19bad00&#45;&gt;0x19bde80 -->
<g id="edge12" class="edge">
<title>0x19bad00&#45;&gt;0x19bde80</title>
<path fill="none" stroke="black" d="M83.1,-395.26C110.41,-354.99 219.42,-203.87 353,-147.23 529.86,-72.23 769.83,-105.86 856.02,-121.67"/>
</g>
<!-- 0x19be120 -->
<g id="node14" class="node">
<title>0x19be120</title>
<ellipse fill="lightgrey" stroke="black" cx="889.5" cy="-356.23" rx="47.5" ry="13.5"/>
<text text-anchor="middle" x="889.5" y="-353.73" font-family="Times,serif" font-size="10.00">asassn.py</text>
</g>
<!-- 0x19bad00&#45;&gt;0x19be120 -->
<g id="edge13" class="edge">
<title>0x19bad00&#45;&gt;0x19be120</title>
<path fill="none" stroke="black" d="M120.44,-402.58C261.1,-394.09 699.4,-367.64 842.68,-358.99"/>
</g>
<!-- 0x19badd0 -->
<g id="node15" class="node">
<title>0x19badd0</title>
<polygon fill="lightgrey" stroke="black" points="474.5,-460.73 380.5,-460.73 380.5,-441.73 474.5,-441.73 474.5,-460.73"/>
<text text-anchor="middle" x="427.5" y="-448.73" font-family="Times,serif" font-size="10.00">dat/known.json</text>
</g>
<!-- 0x19bb430&#45;&gt;0x19badd0 -->
<g id="edge14" class="edge">
<title>0x19bb430&#45;&gt;0x19badd0</title>
<path fill="none" stroke="black" d="M293.68,-438.21C316.07,-440.41 344.24,-443.17 368.86,-445.58"/>
<polygon fill="black" stroke="black" points="368.46,-449.06 378.75,-446.55 369.14,-442.09 368.46,-449.06"/>
</g>
<!-- 0x19bc9d0 -->
<g id="node16" class="node">
<title>0x19bc9d0</title>
<polygon fill="lightgrey" stroke="black" points="799,-251.73 666,-251.73 666,-232.73 799,-232.73 799,-251.73"/>
<text text-anchor="middle" x="732.5" y="-239.73" font-family="Times,serif" font-size="10.00">img/period/asassn.png</text>
</g>
<!-- 0x19bc650&#45;&gt;0x19bc9d0 -->
<g id="edge15" class="edge">
<title>0x19bc650&#45;&gt;0x19bc9d0</title>
<path fill="none" stroke="black" d="M620.84,-267.91C637.82,-263.97 658.48,-259.18 677.32,-254.8"/>
<polygon fill="black" stroke="black" points="678.05,-258.23 687,-252.56 676.46,-251.41 678.05,-258.23"/>
</g>
<!-- 0x19bc3d0 -->
<g id="node17" class="node">
<title>0x19bc3d0</title>
<polygon fill="lightgrey" stroke="black" points="779,-327.73 686,-327.73 686,-308.73 779,-308.73 779,-327.73"/>
<text text-anchor="middle" x="732.5" y="-315.73" font-family="Times,serif" font-size="10.00">dat/period.json</text>
</g>
<!-- 0x19bc650&#45;&gt;0x19bc3d0 -->
<g id="edge16" class="edge">
<title>0x19bc650&#45;&gt;0x19bc3d0</title>
<path fill="none" stroke="black" d="M617.88,-285.65C637.94,-291.41 663.88,-298.84 685.91,-305.16"/>
<polygon fill="black" stroke="black" points="684.66,-308.44 695.24,-307.83 686.59,-301.71 684.66,-308.44"/>
</g>
<!-- 0x19bd330 -->
<g id="node18" class="node">
<title>0x19bd330</title>
<polygon fill="lightgrey" stroke="black" points="1465.5,-537.73 1344.5,-537.73 1344.5,-518.73 1465.5,-518.73 1465.5,-537.73"/>
<text text-anchor="middle" x="1405" y="-525.73" font-family="Times,serif" font-size="10.00">img/color_index.png</text>
</g>
<!-- 0x19bcd50&#45;&gt;0x19bd330 -->
<g id="edge17" class="edge">
<title>0x19bcd50&#45;&gt;0x19bd330</title>
<path fill="none" stroke="black" d="M1302.49,-528.23C1312.47,-528.23 1322.83,-528.23 1332.95,-528.23"/>
<polygon fill="black" stroke="black" points="1332.74,-531.73 1342.74,-528.23 1332.74,-524.73 1332.74,-531.73"/>
</g>
<!-- 0x19bbe60 -->
<g id="node19" class="node">
<title>0x19bbe60</title>
<polygon fill="lightgrey" stroke="black" points="1090,-519.73 1027,-519.73 1027,-500.73 1090,-500.73 1090,-519.73"/>
<text text-anchor="middle" x="1058.5" y="-507.73" font-family="Times,serif" font-size="10.00">dat/B.csv</text>
</g>
<!-- 0x19bb7f0&#45;&gt;0x19bbe60 -->
<g id="edge18" class="edge">
<title>0x19bb7f0&#45;&gt;0x19bbe60</title>
<path fill="none" stroke="black" d="M944.26,-510.23C967.27,-510.23 993.74,-510.23 1015.31,-510.23"/>
<polygon fill="black" stroke="black" points="1015.21,-513.73 1025.21,-510.23 1015.21,-506.73 1015.21,-513.73"/>
</g>
<!-- 0x19bbf10 -->
<g id="node20" class="node">
<title>0x19bbf10</title>
<polygon fill="lightgrey" stroke="black" points="1089,-482.73 1028,-482.73 1028,-463.73 1089,-463.73 1089,-482.73"/>
<text text-anchor="middle" x="1058.5" y="-470.73" font-family="Times,serif" font-size="10.00">dat/V.csv</text>
</g>
<!-- 0x19bb7f0&#45;&gt;0x19bbf10 -->
<g id="edge19" class="edge">
<title>0x19bb7f0&#45;&gt;0x19bbf10</title>
<path fill="none" stroke="black" d="M931.35,-501.18C957.26,-495.44 990.66,-488.04 1016.58,-482.3"/>
<polygon fill="black" stroke="black" points="1017.06,-485.77 1026.07,-480.19 1015.55,-478.94 1017.06,-485.77"/>
</g>
<!-- 0x19bbfc0 -->
<g id="node21" class="node">
<title>0x19bbfc0</title>
<polygon fill="lightgrey" stroke="black" points="1093.5,-445.73 1023.5,-445.73 1023.5,-426.73 1093.5,-426.73 1093.5,-445.73"/>
<text text-anchor="middle" x="1058.5" y="-433.73" font-family="Times,serif" font-size="10.00">dat/SG.csv</text>
</g>
<!-- 0x19bb7f0&#45;&gt;0x19bbfc0 -->
<g id="edge20" class="edge">
<title>0x19bb7f0&#45;&gt;0x19bbfc0</title>
<path fill="none" stroke="black" d="M907.39,-497.26C924.73,-484.54 952.92,-465.48 980,-454.23 990.13,-450.02 1001.43,-446.69 1012.21,-444.1"/>
<polygon fill="black" stroke="black" points="1012.69,-447.58 1021.69,-441.99 1011.17,-440.75 1012.69,-447.58"/>
</g>
<!-- 0x19bc070 -->
<g id="node22" class="node">
<title>0x19bc070</title>
<polygon fill="lightgrey" stroke="black" points="1093.5,-593.73 1023.5,-593.73 1023.5,-574.73 1093.5,-574.73 1093.5,-593.73"/>
<text text-anchor="middle" x="1058.5" y="-581.73" font-family="Times,serif" font-size="10.00">dat/SR.csv</text>
</g>
<!-- 0x19bb7f0&#45;&gt;0x19bc070 -->
<g id="edge21" class="edge">
<title>0x19bb7f0&#45;&gt;0x19bc070</title>
<path fill="none" stroke="black" d="M908.12,-523.35C925.55,-535.77 953.41,-554.12 980,-565.23 990.15,-569.47 1001.46,-572.91 1012.24,-575.63"/>
<polygon fill="black" stroke="black" points="1011.19,-578.98 1021.73,-577.87 1012.8,-572.17 1011.19,-578.98"/>
</g>
<!-- 0x19bc120 -->
<g id="node23" class="node">
<title>0x19bc120</title>
<polygon fill="lightgrey" stroke="black" points="1091.5,-556.73 1025.5,-556.73 1025.5,-537.73 1091.5,-537.73 1091.5,-556.73"/>
<text text-anchor="middle" x="1058.5" y="-544.73" font-family="Times,serif" font-size="10.00">dat/SI.csv</text>
</g>
<!-- 0x19bb7f0&#45;&gt;0x19bc120 -->
<g id="edge22" class="edge">
<title>0x19bb7f0&#45;&gt;0x19bc120</title>
<path fill="none" stroke="black" d="M931.35,-519.28C956.39,-524.83 988.42,-531.92 1013.94,-537.58"/>
<polygon fill="black" stroke="black" points="1013.16,-540.99 1023.68,-539.74 1014.68,-534.16 1013.16,-540.99"/>
</g>
<!-- 0x19bd970 -->
<g id="node24" class="node">
<title>0x19bd970</title>
<polygon fill="lightgrey" stroke="black" points="1472,-445.73 1338,-445.73 1338,-426.73 1472,-426.73 1472,-445.73"/>
<text text-anchor="middle" x="1405" y="-433.73" font-family="Times,serif" font-size="10.00">img/lightcurves/all.png</text>
</g>
<!-- 0x19bd6b0&#45;&gt;0x19bd970 -->
<g id="edge23" class="edge">
<title>0x19bd6b0&#45;&gt;0x19bd970</title>
<path fill="none" stroke="black" d="M1300.6,-436.23C1309.02,-436.23 1317.74,-436.23 1326.39,-436.23"/>
<polygon fill="black" stroke="black" points="1326.17,-439.73 1336.17,-436.23 1326.17,-432.73 1326.17,-439.73"/>
</g>
<!-- 0x19bdf10 -->
<g id="node25" class="node">
<title>0x19bdf10</title>
<polygon fill="lightgrey" stroke="black" points="1130,-137.73 987,-137.73 987,-118.73 1130,-118.73 1130,-137.73"/>
<text text-anchor="middle" x="1058.5" y="-125.73" font-family="Times,serif" font-size="10.00">img/lightcurves/tess.png</text>
</g>
<!-- 0x19bde80&#45;&gt;0x19bdf10 -->
<g id="edge24" class="edge">
<title>0x19bde80&#45;&gt;0x19bdf10</title>
<path fill="none" stroke="black" d="M927.15,-128.23C941.48,-128.23 958.54,-128.23 975.52,-128.23"/>
<polygon fill="black" stroke="black" points="975.12,-131.73 985.12,-128.23 975.12,-124.73 975.12,-131.73"/>
</g>
<!-- 0x19be520 -->
<g id="node26" class="node">
<title>0x19be520</title>
<polygon fill="lightgrey" stroke="black" points="1137,-365.73 980,-365.73 980,-346.73 1137,-346.73 1137,-365.73"/>
<text text-anchor="middle" x="1058.5" y="-353.73" font-family="Times,serif" font-size="10.00">img/lightcurves/asassn.png</text>
</g>
<!-- 0x19be120&#45;&gt;0x19be520 -->
<g id="edge25" class="edge">
<title>0x19be120&#45;&gt;0x19be520</title>
<path fill="none" stroke="black" d="M937.46,-356.23C947.1,-356.23 957.54,-356.23 968.11,-356.23"/>
<polygon fill="black" stroke="black" points="968.09,-359.73 978.09,-356.23 968.09,-352.73 968.09,-359.73"/>
</g>
<!-- 0x19badd0&#45;&gt;0x19ba830 -->
<g id="edge26" class="edge">
<title>0x19badd0&#45;&gt;0x19ba830</title>
<path fill="none" stroke="black" d="M433.82,-461C456.95,-503.53 548.87,-672.49 575.64,-721.71"/>
</g>
<!-- 0x19badd0&#45;&gt;0x19bc650 -->
<g id="edge27" class="edge">
<title>0x19badd0&#45;&gt;0x19bc650</title>
<path fill="none" stroke="black" d="M437.25,-441.32C463.55,-411.53 541.9,-322.78 571.5,-289.25"/>
</g>
<!-- 0x19badd0&#45;&gt;0x19bcd50 -->
<g id="edge28" class="edge">
<title>0x19badd0&#45;&gt;0x19bcd50</title>
<path fill="none" stroke="black" d="M437.6,-461.16C472.1,-497.66 599.52,-622.23 731.5,-622.23 731.5,-622.23 731.5,-622.23 890.5,-622.23 1000.42,-622.23 1034.14,-640.97 1137,-602.23 1172.26,-588.95 1205.81,-559.25 1223.51,-541.78"/>
</g>
<!-- 0x19badd0&#45;&gt;0x19bb7f0 -->
<g id="edge29" class="edge">
<title>0x19badd0&#45;&gt;0x19bb7f0</title>
<path fill="none" stroke="black" d="M451.53,-461.12C493.31,-478.46 584.8,-513.71 666,-526.23 724.42,-535.23 740.12,-531.45 799,-526.23 814.88,-524.82 832.16,-522.03 847.27,-519.17"/>
</g>
<!-- 0x19badd0&#45;&gt;0x19bd6b0 -->
<g id="edge30" class="edge">
<title>0x19badd0&#45;&gt;0x19bd6b0</title>
<path fill="none" stroke="black" d="M474.95,-454.49C515.81,-456.86 576.89,-459.18 630,-456.23 855.65,-443.7 912.01,-395.94 1137,-417.23 1155.73,-419 1176.19,-422.61 1193.66,-426.21"/>
</g>
<!-- 0x19badd0&#45;&gt;0x19bde80 -->
<g id="edge31" class="edge">
<title>0x19badd0&#45;&gt;0x19bde80</title>
<path fill="none" stroke="black" d="M441.14,-441.27C475.41,-414.68 573.78,-341.22 666,-299.23 722.06,-273.7 749.23,-296.52 799,-260.23 842.62,-228.42 871.72,-168.48 883.11,-141.72"/>
</g>
<!-- 0x19badd0&#45;&gt;0x19be120 -->
<g id="edge32" class="edge">
<title>0x19badd0&#45;&gt;0x19be120</title>
<path fill="none" stroke="black" d="M474.85,-451.85C546.31,-451.49 686.86,-445.51 799,-408.23 826.11,-399.21 854.07,-381.34 871.37,-369.09"/>
</g>
<!-- 0x19bc3d0&#45;&gt;0x19bb7f0 -->
<g id="edge33" class="edge">
<title>0x19bc3d0&#45;&gt;0x19bb7f0</title>
<path fill="none" stroke="black" d="M741.4,-328.01C767.06,-359.8 848.13,-460.23 877.63,-496.77"/>
</g>
<!-- 0x19bc3d0&#45;&gt;0x19bd6b0 -->
<g id="edge34" class="edge">
<title>0x19bc3d0&#45;&gt;0x19bd6b0</title>
<path fill="none" stroke="black" d="M779.48,-310.1C857,-298.59 1016.99,-284.36 1137,-337.23 1178.7,-355.6 1212.57,-399.96 1227.8,-422.53"/>
</g>
<!-- 0x19bc3d0&#45;&gt;0x19bde80 -->
<g id="edge35" class="edge">
<title>0x19bc3d0&#45;&gt;0x19bde80</title>
<path fill="none" stroke="black" d="M778.63,-308.27C786.25,-304.88 793.46,-300.32 799,-294.23 841.62,-247.31 795.54,-205.84 835,-156.23 841.66,-147.86 851.5,-141.71 860.94,-137.35"/>
</g>
<!-- 0x19bc3d0&#45;&gt;0x19be120 -->
<g id="edge36" class="edge">
<title>0x19bc3d0&#45;&gt;0x19be120</title>
<path fill="none" stroke="black" d="M774.22,-328.21C798.53,-334.17 829.12,-341.67 852.54,-347.41"/>
</g>
<!-- 0x19bbe60&#45;&gt;0x19bcd50 -->
<g id="edge37" class="edge">
<title>0x19bbe60&#45;&gt;0x19bcd50</title>
<path fill="none" stroke="black" d="M1090.33,-513.36C1114.7,-515.84 1149.39,-519.37 1178.86,-522.37"/>
</g>
<!-- 0x19bbe60&#45;&gt;0x19bd6b0 -->
<g id="edge38" class="edge">
<title>0x19bbe60&#45;&gt;0x19bd6b0</title>
<path fill="none" stroke="black" d="M1090.25,-504.65C1104.72,-501.53 1122.03,-497.08 1137,-491.23 1166.04,-479.87 1197.14,-461.58 1216.69,-449.25"/>
</g>
<!-- 0x19bbf10&#45;&gt;0x19bcd50 -->
<g id="edge39" class="edge">
<title>0x19bbf10&#45;&gt;0x19bcd50</title>
<path fill="none" stroke="black" d="M1089.17,-479.19C1103.71,-482.34 1121.39,-486.53 1137,-491.23 1160.83,-498.39 1187.19,-508.29 1206.8,-516.05"/>
</g>
<!-- 0x19bbf10&#45;&gt;0x19bd6b0 -->
<g id="edge40" class="edge">
<title>0x19bbf10&#45;&gt;0x19bd6b0</title>
<path fill="none" stroke="black" d="M1089.13,-467.04C1116.98,-461.21 1159.06,-452.42 1191.14,-445.71"/>
</g>
<!-- 0x19bbfc0&#45;&gt;0x19bcd50 -->
<g id="edge41" class="edge">
<title>0x19bbfc0&#45;&gt;0x19bcd50</title>
<path fill="none" stroke="black" d="M1093.69,-441.03C1107.56,-443.77 1123.46,-447.96 1137,-454.23 1170.79,-469.88 1204.35,-498.17 1222.56,-514.87"/>
</g>
<!-- 0x19bbfc0&#45;&gt;0x19bd6b0 -->
<g id="edge42" class="edge">
<title>0x19bbfc0&#45;&gt;0x19bd6b0</title>
<path fill="none" stroke="black" d="M1093.63,-436.23C1116.43,-436.23 1147.1,-436.23 1174.17,-436.23"/>
</g>
<!-- 0x19bc070&#45;&gt;0x19bcd50 -->
<g id="edge43" class="edge">
<title>0x19bc070&#45;&gt;0x19bcd50</title>
<path fill="none" stroke="black" d="M1093.68,-576.75C1107.26,-573.54 1122.96,-569.54 1137,-565.23 1160.61,-557.97 1186.76,-548.17 1206.33,-540.48"/>
</g>
<!-- 0x19bc070&#45;&gt;0x19bd6b0 -->
<g id="edge44" class="edge">
<title>0x19bc070&#45;&gt;0x19bd6b0</title>
<path fill="none" stroke="black" d="M1093.62,-581.7C1108.12,-579.22 1124.51,-574.44 1137,-565.23 1162.03,-546.77 1154.37,-530.13 1173,-505.23 1188.41,-484.63 1208.98,-463.17 1222.48,-449.77"/>
</g>
<!-- 0x19bc120&#45;&gt;0x19bcd50 -->
<g id="edge45" class="edge">
<title>0x19bc120&#45;&gt;0x19bcd50</title>
<path fill="none" stroke="black" d="M1091.96,-543.74C1116.32,-541.13 1150.28,-537.48 1179.17,-534.38"/>
</g>
<!-- 0x19bc120&#45;&gt;0x19bd6b0 -->
<g id="edge46" class="edge">
<title>0x19bc120&#45;&gt;0x19bd6b0</title>
<path fill="none" stroke="black" d="M1091.74,-543.08C1106.2,-540.29 1123.09,-535.71 1137,-528.23 1174.71,-507.95 1209.09,-470.01 1225.82,-449.76"/>
</g>
<!-- 0x19baea0 -->
<g id="node27" class="node">
<title>0x19baea0</title>
<polygon fill="lightgrey" stroke="black" points="457,-707.73 398,-707.73 398,-688.73 457,-688.73 457,-707.73"/>
<text text-anchor="middle" x="427.5" y="-695.73" font-family="Times,serif" font-size="10.00">build.py</text>
</g>
<!-- 0x19baea0&#45;&gt;0x19ba830 -->
<g id="edge47" class="edge">
<title>0x19baea0&#45;&gt;0x19ba830</title>
<path fill="none" stroke="black" d="M457.2,-705.1C483.38,-711.37 522.07,-720.64 549.62,-727.23"/>
</g>
<!-- 0x19bca70 -->
<g id="node28" class="node">
<title>0x19bca70</title>
<polygon fill="lightgrey" stroke="black" points="466.5,-175.73 388.5,-175.73 388.5,-156.73 466.5,-156.73 466.5,-175.73"/>
<text text-anchor="middle" x="427.5" y="-163.73" font-family="Times,serif" font-size="10.00">matplotlibrc</text>
</g>
<!-- 0x19bca70&#45;&gt;0x19bc650 -->
<g id="edge48" class="edge">
<title>0x19bca70&#45;&gt;0x19bc650</title>
<path fill="none" stroke="black" d="M442.48,-176.18C470.71,-196.28 534.44,-241.66 565.42,-263.72"/>
</g>
<!-- 0x19bca70&#45;&gt;0x19bcd50 -->
<g id="edge49" class="edge">
<title>0x19bca70&#45;&gt;0x19bcd50</title>
<path fill="none" stroke="black" d="M466.92,-162.08C586.85,-151.49 957,-137.05 1137,-337.23 1174.52,-378.95 1145.46,-409.34 1173,-458.23 1185.56,-480.53 1206.39,-501.65 1220.75,-514.74"/>
</g>
<!-- 0x19bca70&#45;&gt;0x19bd6b0 -->
<g id="edge50" class="edge">
<title>0x19bca70&#45;&gt;0x19bd6b0</title>
<path fill="none" stroke="black" d="M448.01,-156.26C537.78,-111.91 916.13,58 1137,-109.23 1189.51,-148.99 1225.77,-365.7 1234.48,-422.56"/>
</g>
<!-- 0x19bca70&#45;&gt;0x19bde80 -->
<g id="edge51" class="edge">
<title>0x19bca70&#45;&gt;0x19bde80</title>
<path fill="none" stroke="black" d="M466.95,-160.75C487.92,-157.91 514.35,-154.55 538,-152.23 652.27,-141.02 788.01,-133.32 851.86,-130.03"/>
</g>
<!-- 0x19bca70&#45;&gt;0x19be120 -->
<g id="edge52" class="edge">
<title>0x19bca70&#45;&gt;0x19be120</title>
<path fill="none" stroke="black" d="M466.75,-171.27C558.59,-183.5 785.01,-214.35 799,-223.23 845.06,-252.46 873.05,-314.89 883.65,-342.55"/>
</g>
<!-- 0x19bcb20 -->
<g id="node29" class="node">
<title>0x19bcb20</title>
<polygon fill="lightgrey" stroke="black" points="472.5,-326.73 382.5,-326.73 382.5,-307.73 472.5,-307.73 472.5,-326.73"/>
<text text-anchor="middle" x="427.5" y="-314.73" font-family="Times,serif" font-size="10.00">dat/asassn.csv</text>
</g>
<!-- 0x19bcb20&#45;&gt;0x19bc650 -->
<g id="edge53" class="edge">
<title>0x19bcb20&#45;&gt;0x19bc650</title>
<path fill="none" stroke="black" d="M465.9,-307.3C491.17,-300.6 524.28,-291.81 548.85,-285.29"/>
</g>
<!-- 0x19bcb20&#45;&gt;0x19be120 -->
<g id="edge54" class="edge">
<title>0x19bcb20&#45;&gt;0x19be120</title>
<path fill="none" stroke="black" d="M472.61,-320.97C560.19,-328.39 755.21,-344.93 843.51,-352.41"/>
</g>
<!-- 0x19bc230 -->
<g id="node30" class="node">
<title>0x19bc230</title>
<polygon fill="lightgrey" stroke="black" points="775,-517.73 690,-517.73 690,-498.73 775,-498.73 775,-517.73"/>
<text text-anchor="middle" x="732.5" y="-505.73" font-family="Times,serif" font-size="10.00">dat/stars.json</text>
</g>
<!-- 0x19bc230&#45;&gt;0x19bb7f0 -->
<g id="edge55" class="edge">
<title>0x19bc230&#45;&gt;0x19bb7f0</title>
<path fill="none" stroke="black" d="M775.45,-508.77C793.74,-509.01 815.4,-509.29 834.84,-509.54"/>
</g>
<!-- 0x19bedd0 -->
<g id="node31" class="node">
<title>0x19bedd0</title>
<polygon fill="lightgrey" stroke="black" points="502,-820.73 353,-820.73 353,-801.73 502,-801.73 502,-820.73"/>
<text text-anchor="middle" x="427.5" y="-808.73" font-family="Times,serif" font-size="10.00">screencasts/main/out.mp4</text>
</g>
<!-- 0x19be750 -->
<g id="node32" class="node">
<title>0x19be750</title>
<ellipse fill="lightgrey" stroke="black" cx="252" cy="-811.23" rx="65" ry="13.5"/>
<text text-anchor="middle" x="252" y="-808.73" font-family="Times,serif" font-size="10.00">screencasts.py</text>
</g>
<!-- 0x19be750&#45;&gt;0x19bedd0 -->
<g id="edge56" class="edge">
<title>0x19be750&#45;&gt;0x19bedd0</title>
<path fill="none" stroke="black" d="M317.11,-811.23C324.99,-811.23 333.13,-811.23 341.25,-811.23"/>
<polygon fill="black" stroke="black" points="341.18,-814.73 351.18,-811.23 341.18,-807.73 341.18,-814.73"/>
</g>
<!-- 0x19beeb0 -->
<g id="node33" class="node">
<title>0x19beeb0</title>
<polygon fill="lightgrey" stroke="black" points="134,-894.73 17,-894.73 17,-875.73 134,-875.73 134,-894.73"/>
<text text-anchor="middle" x="75.5" y="-882.73" font-family="Times,serif" font-size="10.00">dat/screencasts.yml</text>
</g>
<!-- 0x19beeb0&#45;&gt;0x19be750 -->
<g id="edge57" class="edge">
<title>0x19beeb0&#45;&gt;0x19be750</title>
<path fill="none" stroke="black" d="M125.98,-875.29C134.45,-873.02 143.07,-870.34 151,-867.23 180.45,-855.68 211.9,-836.87 231.49,-824.28"/>
</g>
<!-- 0x19befa0 -->
<g id="node34" class="node">
<title>0x19befa0</title>
<polygon fill="lightgrey" stroke="black" points="150.5,-857.73 0.5,-857.73 0.5,-838.73 150.5,-838.73 150.5,-857.73"/>
<text text-anchor="middle" x="75.5" y="-845.73" font-family="Times,serif" font-size="10.00">screencasts/main/sab.mov</text>
</g>
<!-- 0x19befa0&#45;&gt;0x19be750 -->
<g id="edge58" class="edge">
<title>0x19befa0&#45;&gt;0x19be750</title>
<path fill="none" stroke="black" d="M123.26,-838.31C148.6,-832.94 179.8,-826.33 205.01,-820.98"/>
</g>
<!-- 0x19bf0a0 -->
<g id="node35" class="node">
<title>0x19bf0a0</title>
<polygon fill="lightgrey" stroke="black" points="148.5,-820.73 2.5,-820.73 2.5,-801.73 148.5,-801.73 148.5,-820.73"/>
<text text-anchor="middle" x="75.5" y="-808.73" font-family="Times,serif" font-size="10.00">screencasts/main/tm.mov</text>
</g>
<!-- 0x19bf0a0&#45;&gt;0x19be750 -->
<g id="edge59" class="edge">
<title>0x19bf0a0&#45;&gt;0x19be750</title>
<path fill="none" stroke="black" d="M148.99,-811.23C161.44,-811.23 174.31,-811.23 186.53,-811.23"/>
</g>
<!-- 0x19bf190 -->
<g id="node36" class="node">
<title>0x19bf190</title>
<polygon fill="lightgrey" stroke="black" points="151,-783.73 0,-783.73 0,-764.73 151,-764.73 151,-783.73"/>
<text text-anchor="middle" x="75.5" y="-771.73" font-family="Times,serif" font-size="10.00">screencasts/main/elle.mp4</text>
</g>
<!-- 0x19bf190&#45;&gt;0x19be750 -->
<g id="edge60" class="edge">
<title>0x19bf190&#45;&gt;0x19be750</title>
<path fill="none" stroke="black" d="M123.26,-784.14C148.6,-789.52 179.8,-796.13 205.01,-801.48"/>
</g>
<!-- 0x19bf290 -->
<g id="node37" class="node">
<title>0x19bf290</title>
<polygon fill="lightgrey" stroke="black" points="147,-746.73 4,-746.73 4,-727.73 147,-727.73 147,-746.73"/>
<text text-anchor="middle" x="75.5" y="-734.73" font-family="Times,serif" font-size="10.00">screencasts/main/jb.mp4</text>
</g>
<!-- 0x19bf290&#45;&gt;0x19be750 -->
<g id="edge61" class="edge">
<title>0x19bf290&#45;&gt;0x19be750</title>
<path fill="none" stroke="black" d="M125.98,-747.17C134.45,-749.44 143.07,-752.12 151,-755.23 180.45,-766.78 211.9,-785.59 231.49,-798.18"/>
</g>
</g>
<script><![CDATA[
function child(el, tag) {
    for (c of el.children)
        if (c.tagName == tag)
            return c;
}
function colorNode(node, reset=false) {
    const container = child(node, "polygon") || child(node, "ellipse");
    const color = reset ? "black" : "#f00";
    container.style.stroke = color;
}
function colorEdge(edge, reset=false) {
    const path = child(edge, "path");
    const polygon = child(edge, "polygon");
    const color = reset ? "black" : "#f00";
    path.style.stroke = color;
    if (polygon) {
        polygon.style.fill = color;
        polygon.style.stroke = color;
    }
}
function connectedEdges(node) {
    const nodeTitle = child(node, "title").textContent;
    const ret = [];
    for (const edge of document.querySelectorAll('.edge')) {
        const edgeTitle = child(edge, "title").textContent;
        if (edgeTitle.includes(nodeTitle))
            ret.push(edge);
    }
    return ret;
}
function highlight(ev) {
    const el = ev.target;
    if (el.className.baseVal != "node")
        return;
    colorNode(el);
    for (const edge of connectedEdges(el))
        colorEdge(edge);
}
function unhighlight() {
    for (const el of document.querySelectorAll("g")) {
        if (el.className.baseVal == "node") {
            colorNode(el, reset=true);
        } else if (el.className.baseVal == "edge") {
            colorEdge(el, reset=true);
        }
    }
}
for (const el of document.querySelectorAll("g")) {
    el.onmouseenter = highlight;
    el.onmouseleave = unhighlight;
}
]]></script></svg>
