<?xml version="1.0" encoding="UTF-8" standalone="no"?>
<!DOCTYPE svg PUBLIC "-//W3C//DTD SVG 1.1//EN"
 "http://www.w3.org/Graphics/SVG/1.1/DTD/svg11.dtd">
<!-- Generated by graphviz version 7.0.5 (20221223.1930)
 -->
<!-- Title: gvpr_result Pages: 1 -->
<svg width="1584pt" height="905pt"
 viewBox="0.00 0.00 1584.00 904.74" xmlns="http://www.w3.org/2000/svg" xmlns:xlink="http://www.w3.org/1999/xlink">
<g id="graph0" class="graph" transform="scale(1 1) rotate(0) translate(4 900.74)">
<title>gvpr_result</title>
<polygon fill="white" stroke="none" points="-4,4 -4,-900.74 1580,-900.74 1580,4 -4,4"/>
<!-- 0x8df220 -->
<g id="node1" class="node">
<title>0x8df220</title>
<polygon fill="lightgrey" stroke="black" points="1163,-729.74 1106,-729.74 1106,-710.74 1163,-710.74 1163,-729.74"/>
<text text-anchor="middle" x="1134.5" y="-717.74" font-family="Times,serif" font-size="10.00">dag.svg</text>
</g>
<!-- 0x8de310 -->
<g id="node2" class="node">
<title>0x8de310</title>
<ellipse fill="lightgrey" stroke="black" cx="953" cy="-720.24" rx="47.5" ry="13.5"/>
<text text-anchor="middle" x="953" y="-717.74" font-family="Times,serif" font-size="10.00">gengraph</text>
</g>
<!-- 0x8de310&#45;&gt;0x8df220 -->
<g id="edge1" class="edge">
<title>0x8de310&#45;&gt;0x8df220</title>
<path fill="none" stroke="black" d="M1000.69,-720.24C1029.78,-720.24 1066.77,-720.24 1094.32,-720.24"/>
<polygon fill="black" stroke="black" points="1093.99,-723.74 1103.99,-720.24 1093.99,-716.74 1093.99,-723.74"/>
</g>
<!-- 0x8de740 -->
<g id="node3" class="node">
<title>0x8de740</title>
<polygon fill="lightgrey" stroke="black" points="819,-746.74 748,-746.74 748,-727.74 819,-727.74 819,-746.74"/>
<text text-anchor="middle" x="783.5" y="-734.74" font-family="Times,serif" font-size="10.00">build.ninja</text>
</g>
<!-- 0x8de740&#45;&gt;0x8de310 -->
<g id="edge2" class="edge">
<title>0x8de740&#45;&gt;0x8de310</title>
<path fill="none" stroke="black" d="M819.21,-733.71C844.89,-731.11 880.07,-727.54 907.77,-724.73"/>
</g>
<!-- 0x8de810 -->
<g id="node4" class="node">
<title>0x8de810</title>
<polygon fill="lightgrey" stroke="black" points="820.5,-709.74 746.5,-709.74 746.5,-690.74 820.5,-690.74 820.5,-709.74"/>
<text text-anchor="middle" x="783.5" y="-697.74" font-family="Times,serif" font-size="10.00">lib/graph.js</text>
</g>
<!-- 0x8de810&#45;&gt;0x8de310 -->
<g id="edge3" class="edge">
<title>0x8de810&#45;&gt;0x8de310</title>
<path fill="none" stroke="black" d="M820.85,-704.58C846.63,-707.65 881.36,-711.8 908.6,-715.05"/>
</g>
<!-- 0x8de990 -->
<g id="node5" class="node">
<title>0x8de990</title>
<ellipse fill="lightgrey" stroke="black" cx="622.5" cy="-737.24" rx="46" ry="13.5"/>
<text text-anchor="middle" x="622.5" y="-734.74" font-family="Times,serif" font-size="10.00">..build.py</text>
</g>
<!-- 0x8de990&#45;&gt;0x8de740 -->
<g id="edge4" class="edge">
<title>0x8de990&#45;&gt;0x8de740</title>
<path fill="none" stroke="black" d="M668.64,-737.24C689.79,-737.24 714.95,-737.24 736.24,-737.24"/>
<polygon fill="black" stroke="black" points="736.1,-740.74 746.1,-737.24 736.1,-733.74 736.1,-740.74"/>
</g>
<!-- 0x8ded90 -->
<g id="node6" class="node">
<title>0x8ded90</title>
<polygon fill="lightgrey" stroke="black" points="480.5,-785.74 426.5,-785.74 426.5,-766.74 480.5,-766.74 480.5,-785.74"/>
<text text-anchor="middle" x="453.5" y="-773.74" font-family="Times,serif" font-size="10.00">lib/x.py</text>
</g>
<!-- 0x8ded90&#45;&gt;0x8de990 -->
<g id="edge5" class="edge">
<title>0x8ded90&#45;&gt;0x8de990</title>
<path fill="none" stroke="black" d="M480.96,-770.06C509.2,-763.46 554.1,-752.98 585.53,-745.64"/>
</g>
<!-- 0x8dee60 -->
<g id="node7" class="node">
<title>0x8dee60</title>
<polygon fill="lightgrey" stroke="black" points="120,-416.74 31,-416.74 31,-397.74 120,-397.74 120,-416.74"/>
<text text-anchor="middle" x="75.5" y="-404.74" font-family="Times,serif" font-size="10.00">dat/config.yml</text>
</g>
<!-- 0x8dee60&#45;&gt;0x8de990 -->
<g id="edge6" class="edge">
<title>0x8dee60&#45;&gt;0x8de990</title>
<path fill="none" stroke="black" d="M77.37,-417.19C81.37,-456.82 101.72,-604.67 187,-676.24 302.53,-773.19 499.27,-756.66 582.49,-744.19"/>
</g>
<!-- 0x8df510 -->
<g id="node8" class="node">
<title>0x8df510</title>
<ellipse fill="lightgrey" stroke="black" cx="265" cy="-436.24" rx="56" ry="13.5"/>
<text text-anchor="middle" x="265" y="-433.74" font-family="Times,serif" font-size="10.00">src.query.py</text>
</g>
<!-- 0x8dee60&#45;&gt;0x8df510 -->
<g id="edge7" class="edge">
<title>0x8dee60&#45;&gt;0x8df510</title>
<path fill="none" stroke="black" d="M120.46,-414.04C149.47,-418.52 187.44,-424.39 217.04,-428.97"/>
</g>
<!-- 0x8e0820 -->
<g id="node9" class="node">
<title>0x8e0820</title>
<ellipse fill="lightgrey" stroke="black" cx="622.5" cy="-278.24" rx="58.5" ry="13.5"/>
<text text-anchor="middle" x="622.5" y="-275.74" font-family="Times,serif" font-size="10.00">src.period.py</text>
</g>
<!-- 0x8dee60&#45;&gt;0x8e0820 -->
<g id="edge8" class="edge">
<title>0x8dee60&#45;&gt;0x8e0820</title>
<path fill="none" stroke="black" d="M90.48,-397.46C110.82,-383.67 150.17,-358.59 187,-344.24 315.31,-294.21 478.69,-281.92 563.9,-279.02"/>
</g>
<!-- 0x8e0ef0 -->
<g id="node10" class="node">
<title>0x8e0ef0</title>
<ellipse fill="lightgrey" stroke="black" cx="1326" cy="-549.24" rx="77" ry="13.5"/>
<text text-anchor="middle" x="1326" y="-546.74" font-family="Times,serif" font-size="10.00">src.color_index.py</text>
</g>
<!-- 0x8dee60&#45;&gt;0x8e0ef0 -->
<g id="edge9" class="edge">
<title>0x8dee60&#45;&gt;0x8e0ef0</title>
<path fill="none" stroke="black" d="M81.94,-417C96.18,-441.75 136.9,-507.71 187,-546.24 289.08,-624.73 323.73,-662.24 452.5,-662.24 452.5,-662.24 452.5,-662.24 954,-662.24 1070.04,-662.24 1104.96,-671.58 1213,-629.24 1252.6,-613.72 1291.28,-581.1 1311.17,-562.67"/>
</g>
<!-- 0x8df950 -->
<g id="node11" class="node">
<title>0x8df950</title>
<ellipse fill="lightgrey" stroke="black" cx="953" cy="-512.24" rx="67" ry="13.5"/>
<text text-anchor="middle" x="953" y="-509.74" font-family="Times,serif" font-size="10.00">src.calibrate.py</text>
</g>
<!-- 0x8dee60&#45;&gt;0x8df950 -->
<g id="edge10" class="edge">
<title>0x8dee60&#45;&gt;0x8df950</title>
<path fill="none" stroke="black" d="M87.57,-417.11C130.82,-454.64 293.81,-586.24 452.5,-586.24 452.5,-586.24 452.5,-586.24 623.5,-586.24 734.87,-586.24 862.39,-545.26 920.36,-524.29"/>
</g>
<!-- 0x8e18c0 -->
<g id="node12" class="node">
<title>0x8e18c0</title>
<ellipse fill="lightgrey" stroke="black" cx="1326" cy="-438.24" rx="75.5" ry="13.5"/>
<text text-anchor="middle" x="1326" y="-435.74" font-family="Times,serif" font-size="10.00">src.lightcurves.py</text>
</g>
<!-- 0x8dee60&#45;&gt;0x8e18c0 -->
<g id="edge11" class="edge">
<title>0x8dee60&#45;&gt;0x8e18c0</title>
<path fill="none" stroke="black" d="M78.54,-397.63C86.46,-362.29 118.26,-237.74 187,-163.24 278.46,-64.1 317.62,-16.24 452.5,-16.24 452.5,-16.24 452.5,-16.24 954,-16.24 1069.65,-16.24 1124.25,32.91 1213,-41.24 1274.83,-92.89 1314.49,-360.42 1323.19,-424.45"/>
</g>
<!-- 0x8e2960 -->
<g id="node13" class="node">
<title>0x8e2960</title>
<ellipse fill="lightgrey" stroke="black" cx="953" cy="-130.24" rx="50" ry="13.5"/>
<text text-anchor="middle" x="953" y="-127.74" font-family="Times,serif" font-size="10.00">src.tess.py</text>
</g>
<!-- 0x8dee60&#45;&gt;0x8e2960 -->
<g id="edge12" class="edge">
<title>0x8dee60&#45;&gt;0x8e2960</title>
<path fill="none" stroke="black" d="M83.7,-397.36C113.95,-356.83 235.82,-202.84 379,-149.24 566.6,-79.01 813.36,-107.46 910.33,-122.83"/>
</g>
<!-- 0x8e2ba0 -->
<g id="node14" class="node">
<title>0x8e2ba0</title>
<ellipse fill="lightgrey" stroke="black" cx="953" cy="-358.24" rx="60" ry="13.5"/>
<text text-anchor="middle" x="953" y="-355.74" font-family="Times,serif" font-size="10.00">src.asassn.py</text>
</g>
<!-- 0x8dee60&#45;&gt;0x8e2ba0 -->
<g id="edge13" class="edge">
<title>0x8dee60&#45;&gt;0x8e2ba0</title>
<path fill="none" stroke="black" d="M120.22,-404.79C265.23,-396.67 730.48,-370.63 894.28,-361.47"/>
</g>
<!-- 0x8def30 -->
<g id="node15" class="node">
<title>0x8def30</title>
<polygon fill="lightgrey" stroke="black" points="500.5,-462.74 406.5,-462.74 406.5,-443.74 500.5,-443.74 500.5,-462.74"/>
<text text-anchor="middle" x="453.5" y="-450.74" font-family="Times,serif" font-size="10.00">dat/known.json</text>
</g>
<!-- 0x8df510&#45;&gt;0x8def30 -->
<g id="edge14" class="edge">
<title>0x8df510&#45;&gt;0x8def30</title>
<path fill="none" stroke="black" d="M317.95,-440.97C341.86,-443.15 370.32,-445.74 394.89,-447.98"/>
<polygon fill="black" stroke="black" points="394.45,-451.46 404.73,-448.88 395.08,-444.49 394.45,-451.46"/>
</g>
<!-- 0x8e0ba0 -->
<g id="node16" class="node">
<title>0x8e0ba0</title>
<polygon fill="lightgrey" stroke="black" points="850,-253.74 717,-253.74 717,-234.74 850,-234.74 850,-253.74"/>
<text text-anchor="middle" x="783.5" y="-241.74" font-family="Times,serif" font-size="10.00">img/period/asassn.png</text>
</g>
<!-- 0x8e0820&#45;&gt;0x8e0ba0 -->
<g id="edge15" class="edge">
<title>0x8e0820&#45;&gt;0x8e0ba0</title>
<path fill="none" stroke="black" d="M666.53,-269.04C684.44,-265.2 705.51,-260.7 724.74,-256.59"/>
<polygon fill="black" stroke="black" points="725.28,-260.05 734.33,-254.54 723.82,-253.21 725.28,-260.05"/>
</g>
<!-- 0x8e05a0 -->
<g id="node17" class="node">
<title>0x8e05a0</title>
<polygon fill="lightgrey" stroke="black" points="830,-329.74 737,-329.74 737,-310.74 830,-310.74 830,-329.74"/>
<text text-anchor="middle" x="783.5" y="-317.74" font-family="Times,serif" font-size="10.00">dat/period.json</text>
</g>
<!-- 0x8e0820&#45;&gt;0x8e05a0 -->
<g id="edge16" class="edge">
<title>0x8e0820&#45;&gt;0x8e05a0</title>
<path fill="none" stroke="black" d="M662.4,-288.51C683.97,-294.21 710.99,-301.35 733.93,-307.41"/>
<polygon fill="black" stroke="black" points="732.8,-310.73 743.36,-309.9 734.59,-303.96 732.8,-310.73"/>
</g>
<!-- 0x8e1540 -->
<g id="node18" class="node">
<title>0x8e1540</title>
<polygon fill="lightgrey" stroke="black" points="1568,-558.74 1447,-558.74 1447,-539.74 1568,-539.74 1568,-558.74"/>
<text text-anchor="middle" x="1507.5" y="-546.74" font-family="Times,serif" font-size="10.00">img/color_index.png</text>
</g>
<!-- 0x8e0ef0&#45;&gt;0x8e1540 -->
<g id="edge17" class="edge">
<title>0x8e0ef0&#45;&gt;0x8e1540</title>
<path fill="none" stroke="black" d="M1403.38,-549.24C1414.04,-549.24 1424.94,-549.24 1435.49,-549.24"/>
<polygon fill="black" stroke="black" points="1435.25,-552.74 1445.25,-549.24 1435.25,-545.74 1435.25,-552.74"/>
</g>
<!-- 0x8e0030 -->
<g id="node19" class="node">
<title>0x8e0030</title>
<polygon fill="lightgrey" stroke="black" points="1166,-521.74 1103,-521.74 1103,-502.74 1166,-502.74 1166,-521.74"/>
<text text-anchor="middle" x="1134.5" y="-509.74" font-family="Times,serif" font-size="10.00">dat/B.csv</text>
</g>
<!-- 0x8df950&#45;&gt;0x8e0030 -->
<g id="edge18" class="edge">
<title>0x8df950&#45;&gt;0x8e0030</title>
<path fill="none" stroke="black" d="M1020.33,-512.24C1043.98,-512.24 1069.97,-512.24 1091.07,-512.24"/>
<polygon fill="black" stroke="black" points="1091.04,-515.74 1101.04,-512.24 1091.04,-508.74 1091.04,-515.74"/>
</g>
<!-- 0x8e00e0 -->
<g id="node20" class="node">
<title>0x8e00e0</title>
<polygon fill="lightgrey" stroke="black" points="1165,-484.74 1104,-484.74 1104,-465.74 1165,-465.74 1165,-484.74"/>
<text text-anchor="middle" x="1134.5" y="-472.74" font-family="Times,serif" font-size="10.00">dat/V.csv</text>
</g>
<!-- 0x8df950&#45;&gt;0x8e00e0 -->
<g id="edge19" class="edge">
<title>0x8df950&#45;&gt;0x8e00e0</title>
<path fill="none" stroke="black" d="M1001.16,-502.51C1029.52,-496.67 1065.26,-489.3 1092.45,-483.7"/>
<polygon fill="black" stroke="black" points="1092.96,-487.17 1102.05,-481.72 1091.55,-480.31 1092.96,-487.17"/>
</g>
<!-- 0x8e0190 -->
<g id="node21" class="node">
<title>0x8e0190</title>
<polygon fill="lightgrey" stroke="black" points="1169.5,-447.74 1099.5,-447.74 1099.5,-428.74 1169.5,-428.74 1169.5,-447.74"/>
<text text-anchor="middle" x="1134.5" y="-435.74" font-family="Times,serif" font-size="10.00">dat/SG.csv</text>
</g>
<!-- 0x8df950&#45;&gt;0x8e0190 -->
<g id="edge20" class="edge">
<title>0x8df950&#45;&gt;0x8e0190</title>
<path fill="none" stroke="black" d="M973.91,-499.15C993.92,-486.53 1026,-467.71 1056,-456.24 1066.25,-452.32 1077.59,-449.1 1088.37,-446.52"/>
<polygon fill="black" stroke="black" points="1088.86,-450 1097.85,-444.4 1087.33,-443.17 1088.86,-450"/>
</g>
<!-- 0x8e0240 -->
<g id="node22" class="node">
<title>0x8e0240</title>
<polygon fill="lightgrey" stroke="black" points="1169.5,-595.74 1099.5,-595.74 1099.5,-576.74 1169.5,-576.74 1169.5,-595.74"/>
<text text-anchor="middle" x="1134.5" y="-583.74" font-family="Times,serif" font-size="10.00">dat/SR.csv</text>
</g>
<!-- 0x8df950&#45;&gt;0x8e0240 -->
<g id="edge21" class="edge">
<title>0x8df950&#45;&gt;0x8e0240</title>
<path fill="none" stroke="black" d="M974.74,-525.46C994.84,-537.77 1026.52,-555.89 1056,-567.24 1066.27,-571.19 1077.62,-574.52 1088.4,-577.23"/>
<polygon fill="black" stroke="black" points="1087.35,-580.58 1097.89,-579.48 1088.97,-573.76 1087.35,-580.58"/>
</g>
<!-- 0x8e02f0 -->
<g id="node23" class="node">
<title>0x8e02f0</title>
<polygon fill="lightgrey" stroke="black" points="1167.5,-558.74 1101.5,-558.74 1101.5,-539.74 1167.5,-539.74 1167.5,-558.74"/>
<text text-anchor="middle" x="1134.5" y="-546.74" font-family="Times,serif" font-size="10.00">dat/SI.csv</text>
</g>
<!-- 0x8df950&#45;&gt;0x8e02f0 -->
<g id="edge22" class="edge">
<title>0x8df950&#45;&gt;0x8e02f0</title>
<path fill="none" stroke="black" d="M1001.16,-521.96C1028.7,-527.63 1063.2,-534.75 1090.08,-540.28"/>
<polygon fill="black" stroke="black" points="1089.1,-543.66 1099.6,-542.25 1090.51,-536.8 1089.1,-543.66"/>
</g>
<!-- 0x8e2060 -->
<g id="node24" class="node">
<title>0x8e2060</title>
<polygon fill="lightgrey" stroke="black" points="1574.5,-410.74 1440.5,-410.74 1440.5,-391.74 1574.5,-391.74 1574.5,-410.74"/>
<text text-anchor="middle" x="1507.5" y="-398.74" font-family="Times,serif" font-size="10.00">img/lightcurves/all.png</text>
</g>
<!-- 0x8e18c0&#45;&gt;0x8e2060 -->
<g id="edge23" class="edge">
<title>0x8e18c0&#45;&gt;0x8e2060</title>
<path fill="none" stroke="black" d="M1377,-427.93C1398.65,-423.47 1424.18,-418.21 1446.81,-413.54"/>
<polygon fill="black" stroke="black" points="1447.44,-416.98 1456.52,-411.54 1446.02,-410.13 1447.44,-416.98"/>
</g>
<!-- 0x8e2130 -->
<g id="node25" class="node">
<title>0x8e2130</title>
<polygon fill="lightgrey" stroke="black" points="1572.5,-373.74 1442.5,-373.74 1442.5,-354.74 1572.5,-354.74 1572.5,-373.74"/>
<text text-anchor="middle" x="1507.5" y="-361.74" font-family="Times,serif" font-size="10.00">img/lightcurves/B.png</text>
</g>
<!-- 0x8e18c0&#45;&gt;0x8e2130 -->
<g id="edge24" class="edge">
<title>0x8e18c0&#45;&gt;0x8e2130</title>
<path fill="none" stroke="black" d="M1349.97,-425.01C1372.19,-412.65 1407.08,-394.33 1439,-382.24 1443.59,-380.5 1448.42,-378.86 1453.29,-377.33"/>
<polygon fill="black" stroke="black" points="1453.91,-380.8 1462.5,-374.6 1451.92,-374.09 1453.91,-380.8"/>
</g>
<!-- 0x8e2200 -->
<g id="node26" class="node">
<title>0x8e2200</title>
<polygon fill="lightgrey" stroke="black" points="1571.5,-336.74 1443.5,-336.74 1443.5,-317.74 1571.5,-317.74 1571.5,-336.74"/>
<text text-anchor="middle" x="1507.5" y="-324.74" font-family="Times,serif" font-size="10.00">img/lightcurves/V.png</text>
</g>
<!-- 0x8e18c0&#45;&gt;0x8e2200 -->
<g id="edge25" class="edge">
<title>0x8e18c0&#45;&gt;0x8e2200</title>
<path fill="none" stroke="black" d="M1339.42,-424.71C1358.76,-404.45 1398.13,-366.35 1439,-345.24 1441.88,-343.75 1444.89,-342.38 1447.98,-341.11"/>
<polygon fill="black" stroke="black" points="1449.07,-344.44 1457.26,-337.72 1446.67,-337.86 1449.07,-344.44"/>
</g>
<!-- 0x8e22d0 -->
<g id="node27" class="node">
<title>0x8e22d0</title>
<polygon fill="lightgrey" stroke="black" points="1576,-521.74 1439,-521.74 1439,-502.74 1576,-502.74 1576,-521.74"/>
<text text-anchor="middle" x="1507.5" y="-509.74" font-family="Times,serif" font-size="10.00">img/lightcurves/SG.png</text>
</g>
<!-- 0x8e18c0&#45;&gt;0x8e22d0 -->
<g id="edge26" class="edge">
<title>0x8e18c0&#45;&gt;0x8e22d0</title>
<path fill="none" stroke="black" d="M1350.47,-451.33C1372.75,-463.38 1407.44,-481.16 1439,-493.24 1444.34,-495.28 1449.98,-497.21 1455.65,-499"/>
<polygon fill="black" stroke="black" points="1454.45,-502.3 1465.04,-501.83 1456.48,-495.6 1454.45,-502.3"/>
</g>
<!-- 0x8e23a0 -->
<g id="node28" class="node">
<title>0x8e23a0</title>
<polygon fill="lightgrey" stroke="black" points="1576,-484.74 1439,-484.74 1439,-465.74 1576,-465.74 1576,-484.74"/>
<text text-anchor="middle" x="1507.5" y="-472.74" font-family="Times,serif" font-size="10.00">img/lightcurves/SR.png</text>
</g>
<!-- 0x8e18c0&#45;&gt;0x8e23a0 -->
<g id="edge27" class="edge">
<title>0x8e18c0&#45;&gt;0x8e23a0</title>
<path fill="none" stroke="black" d="M1377,-448.54C1398.65,-453.01 1424.18,-458.27 1446.81,-462.93"/>
<polygon fill="black" stroke="black" points="1446.02,-466.34 1456.52,-464.93 1447.44,-459.49 1446.02,-466.34"/>
</g>
<!-- 0x8e2470 -->
<g id="node29" class="node">
<title>0x8e2470</title>
<polygon fill="lightgrey" stroke="black" points="1574,-447.74 1441,-447.74 1441,-428.74 1574,-428.74 1574,-447.74"/>
<text text-anchor="middle" x="1507.5" y="-435.74" font-family="Times,serif" font-size="10.00">img/lightcurves/SI.png</text>
</g>
<!-- 0x8e18c0&#45;&gt;0x8e2470 -->
<g id="edge28" class="edge">
<title>0x8e18c0&#45;&gt;0x8e2470</title>
<path fill="none" stroke="black" d="M1401.82,-438.24C1410.89,-438.24 1420.16,-438.24 1429.26,-438.24"/>
<polygon fill="black" stroke="black" points="1429.15,-441.74 1439.15,-438.24 1429.15,-434.74 1429.15,-441.74"/>
</g>
<!-- 0x8e29f0 -->
<g id="node30" class="node">
<title>0x8e29f0</title>
<polygon fill="lightgrey" stroke="black" points="1206,-139.74 1063,-139.74 1063,-120.74 1206,-120.74 1206,-139.74"/>
<text text-anchor="middle" x="1134.5" y="-127.74" font-family="Times,serif" font-size="10.00">img/lightcurves/tess.png</text>
</g>
<!-- 0x8e2960&#45;&gt;0x8e29f0 -->
<g id="edge29" class="edge">
<title>0x8e2960&#45;&gt;0x8e29f0</title>
<path fill="none" stroke="black" d="M1003.05,-130.24C1017.98,-130.24 1034.81,-130.24 1051.3,-130.24"/>
<polygon fill="black" stroke="black" points="1051.12,-133.74 1061.12,-130.24 1051.12,-126.74 1051.12,-133.74"/>
</g>
<!-- 0x8e2ee0 -->
<g id="node31" class="node">
<title>0x8e2ee0</title>
<polygon fill="lightgrey" stroke="black" points="1213,-367.74 1056,-367.74 1056,-348.74 1213,-348.74 1213,-367.74"/>
<text text-anchor="middle" x="1134.5" y="-355.74" font-family="Times,serif" font-size="10.00">img/lightcurves/asassn.png</text>
</g>
<!-- 0x8e2ba0&#45;&gt;0x8e2ee0 -->
<g id="edge30" class="edge">
<title>0x8e2ba0&#45;&gt;0x8e2ee0</title>
<path fill="none" stroke="black" d="M1013.27,-358.24C1023.25,-358.24 1033.79,-358.24 1044.32,-358.24"/>
<polygon fill="black" stroke="black" points="1044.21,-361.74 1054.21,-358.24 1044.21,-354.74 1044.21,-361.74"/>
</g>
<!-- 0x8def30&#45;&gt;0x8de990 -->
<g id="edge31" class="edge">
<title>0x8def30&#45;&gt;0x8de990</title>
<path fill="none" stroke="black" d="M460.25,-463.01C485.25,-505.54 584.61,-674.49 613.55,-723.71"/>
</g>
<!-- 0x8def30&#45;&gt;0x8e0820 -->
<g id="edge32" class="edge">
<title>0x8def30&#45;&gt;0x8e0820</title>
<path fill="none" stroke="black" d="M463.96,-443.33C492.25,-413.68 576.25,-325.65 608.6,-291.75"/>
</g>
<!-- 0x8def30&#45;&gt;0x8e0ef0 -->
<g id="edge33" class="edge">
<title>0x8def30&#45;&gt;0x8e0ef0</title>
<path fill="none" stroke="black" d="M464.52,-463.17C502.45,-499.66 642.18,-624.24 782.5,-624.24 782.5,-624.24 782.5,-624.24 954,-624.24 1069.45,-624.24 1101.63,-634.67 1213,-604.24 1246.64,-595.04 1282.27,-575.66 1304.08,-562.54"/>
</g>
<!-- 0x8def30&#45;&gt;0x8df950 -->
<g id="edge34" class="edge">
<title>0x8def30&#45;&gt;0x8df950</title>
<path fill="none" stroke="black" d="M486.54,-463.12C508.34,-469.79 537.86,-478.71 564,-486.24 631.76,-505.74 647.12,-518.82 717,-528.24 775.58,-536.13 791.07,-532.83 850,-528.24 867.33,-526.88 886.18,-524.26 902.9,-521.52"/>
</g>
<!-- 0x8def30&#45;&gt;0x8e18c0 -->
<g id="edge35" class="edge">
<title>0x8def30&#45;&gt;0x8e18c0</title>
<path fill="none" stroke="black" d="M500.95,-456.26C546.75,-458.78 618.74,-461.46 681,-458.24 917.76,-445.96 976.76,-399.34 1213,-419.24 1233.44,-420.96 1255.76,-424.42 1275.05,-427.92"/>
</g>
<!-- 0x8def30&#45;&gt;0x8e2960 -->
<g id="edge36" class="edge">
<title>0x8def30&#45;&gt;0x8e2960</title>
<path fill="none" stroke="black" d="M468.66,-443.38C507.02,-417.06 616.81,-344.19 717,-301.24 773.62,-276.96 799.13,-296.97 850,-262.24 896.64,-230.39 931.41,-170.47 945.33,-143.72"/>
</g>
<!-- 0x8def30&#45;&gt;0x8e2ba0 -->
<g id="edge37" class="edge">
<title>0x8def30&#45;&gt;0x8e2ba0</title>
<path fill="none" stroke="black" d="M500.94,-453.57C575.95,-452.93 727.72,-446.71 850,-410.24 880.1,-401.26 911.9,-383.56 931.83,-371.32"/>
</g>
<!-- 0x8e05a0&#45;&gt;0x8df950 -->
<g id="edge38" class="edge">
<title>0x8e05a0&#45;&gt;0x8df950</title>
<path fill="none" stroke="black" d="M793.04,-330.02C820.7,-361.73 907.96,-461.75 940.02,-498.51"/>
</g>
<!-- 0x8e05a0&#45;&gt;0x8e18c0 -->
<g id="edge39" class="edge">
<title>0x8e05a0&#45;&gt;0x8e18c0</title>
<path fill="none" stroke="black" d="M830.38,-312.62C911.14,-301.28 1082.51,-286.5 1213,-339.24 1257.99,-357.42 1297.02,-401.86 1314.78,-424.5"/>
</g>
<!-- 0x8e05a0&#45;&gt;0x8e2960 -->
<g id="edge40" class="edge">
<title>0x8e05a0&#45;&gt;0x8e2960</title>
<path fill="none" stroke="black" d="M829.63,-310.28C837.25,-306.88 844.46,-302.33 850,-296.24 892.62,-249.32 844.57,-206.21 886,-158.24 893.48,-149.57 904.11,-143.52 914.66,-139.32"/>
</g>
<!-- 0x8e05a0&#45;&gt;0x8e2ba0 -->
<g id="edge41" class="edge">
<title>0x8e05a0&#45;&gt;0x8e2ba0</title>
<path fill="none" stroke="black" d="M828.51,-330.22C853.52,-335.89 884.68,-342.96 909.44,-348.58"/>
</g>
<!-- 0x8e0030&#45;&gt;0x8e0ef0 -->
<g id="edge42" class="edge">
<title>0x8e0030&#45;&gt;0x8e0ef0</title>
<path fill="none" stroke="black" d="M1166.37,-518.26C1195.21,-523.89 1238.83,-532.41 1273.04,-539.09"/>
</g>
<!-- 0x8e0030&#45;&gt;0x8e18c0 -->
<g id="edge43" class="edge">
<title>0x8e0030&#45;&gt;0x8e18c0</title>
<path fill="none" stroke="black" d="M1166.13,-506.33C1180.57,-503.14 1197.9,-498.72 1213,-493.24 1244.97,-481.62 1279.85,-463.57 1302.05,-451.34"/>
</g>
<!-- 0x8e00e0&#45;&gt;0x8e0ef0 -->
<g id="edge44" class="edge">
<title>0x8e00e0&#45;&gt;0x8e0ef0</title>
<path fill="none" stroke="black" d="M1165.41,-480.47C1180,-483.45 1197.67,-487.71 1213,-493.24 1245.31,-504.88 1280.4,-523.48 1302.53,-536.02"/>
</g>
<!-- 0x8e00e0&#45;&gt;0x8e18c0 -->
<g id="edge45" class="edge">
<title>0x8e00e0&#45;&gt;0x8e18c0</title>
<path fill="none" stroke="black" d="M1165.11,-469.45C1194.05,-463.8 1238.7,-455.09 1273.47,-448.3"/>
</g>
<!-- 0x8e0190&#45;&gt;0x8e0ef0 -->
<g id="edge46" class="edge">
<title>0x8e0190&#45;&gt;0x8e0ef0</title>
<path fill="none" stroke="black" d="M1169.86,-442.68C1183.76,-445.37 1199.64,-449.61 1213,-456.24 1254.21,-476.68 1293.43,-515.06 1312.66,-535.54"/>
</g>
<!-- 0x8e0190&#45;&gt;0x8e18c0 -->
<g id="edge47" class="edge">
<title>0x8e0190&#45;&gt;0x8e18c0</title>
<path fill="none" stroke="black" d="M1169.82,-438.24C1192.22,-438.24 1222.35,-438.24 1250.1,-438.24"/>
</g>
<!-- 0x8e0240&#45;&gt;0x8e0ef0 -->
<g id="edge48" class="edge">
<title>0x8e0240&#45;&gt;0x8e0ef0</title>
<path fill="none" stroke="black" d="M1169.82,-579.54C1198.61,-573.91 1240.19,-565.79 1273.07,-559.38"/>
</g>
<!-- 0x8e0240&#45;&gt;0x8e18c0 -->
<g id="edge49" class="edge">
<title>0x8e0240&#45;&gt;0x8e18c0</title>
<path fill="none" stroke="black" d="M1169.68,-582.49C1183.86,-579.8 1199.99,-575.18 1213,-567.24 1214.61,-566.25 1284.78,-484.92 1313.21,-451.92"/>
</g>
<!-- 0x8e02f0&#45;&gt;0x8e0ef0 -->
<g id="edge50" class="edge">
<title>0x8e02f0&#45;&gt;0x8e0ef0</title>
<path fill="none" stroke="black" d="M1167.65,-549.24C1189.93,-549.24 1220.57,-549.24 1248.89,-549.24"/>
</g>
<!-- 0x8e02f0&#45;&gt;0x8e18c0 -->
<g id="edge51" class="edge">
<title>0x8e02f0&#45;&gt;0x8e18c0</title>
<path fill="none" stroke="black" d="M1167.93,-544.63C1182.26,-541.77 1199,-537.24 1213,-530.24 1253.95,-509.74 1293.29,-471.89 1312.6,-451.72"/>
</g>
<!-- 0x8df000 -->
<g id="node32" class="node">
<title>0x8df000</title>
<polygon fill="lightgrey" stroke="black" points="483,-709.74 424,-709.74 424,-690.74 483,-690.74 483,-709.74"/>
<text text-anchor="middle" x="453.5" y="-697.74" font-family="Times,serif" font-size="10.00">build.py</text>
</g>
<!-- 0x8df000&#45;&gt;0x8de990 -->
<g id="edge52" class="edge">
<title>0x8df000&#45;&gt;0x8de990</title>
<path fill="none" stroke="black" d="M483.21,-706.6C511.28,-712.82 554.14,-722.31 584.7,-729.08"/>
</g>
<!-- 0x8e0c40 -->
<g id="node33" class="node">
<title>0x8e0c40</title>
<polygon fill="lightgrey" stroke="black" points="492.5,-177.74 414.5,-177.74 414.5,-158.74 492.5,-158.74 492.5,-177.74"/>
<text text-anchor="middle" x="453.5" y="-165.74" font-family="Times,serif" font-size="10.00">matplotlibrc</text>
</g>
<!-- 0x8e0c40&#45;&gt;0x8e0820 -->
<g id="edge53" class="edge">
<title>0x8e0c40&#45;&gt;0x8e0820</title>
<path fill="none" stroke="black" d="M469.61,-178.19C499.88,-198.13 567.93,-242.95 601.7,-265.2"/>
</g>
<!-- 0x8e0c40&#45;&gt;0x8e0ef0 -->
<g id="edge54" class="edge">
<title>0x8e0c40&#45;&gt;0x8e0ef0</title>
<path fill="none" stroke="black" d="M492.74,-163.49C617.54,-150.33 1016.21,-127.29 1213,-339.24 1251.18,-380.35 1222.2,-410.94 1249,-460.24 1265.3,-490.23 1292.94,-519.18 1310.01,-535.55"/>
</g>
<!-- 0x8e0c40&#45;&gt;0x8e18c0 -->
<g id="edge55" class="edge">
<title>0x8e0c40&#45;&gt;0x8e18c0</title>
<path fill="none" stroke="black" d="M474.3,-158.37C568.07,-113.22 972.78,64.19 1213,-111.24 1319.13,-188.74 1325.64,-372.95 1325.31,-424.58"/>
</g>
<!-- 0x8e0c40&#45;&gt;0x8e2960 -->
<g id="edge56" class="edge">
<title>0x8e0c40&#45;&gt;0x8e2960</title>
<path fill="none" stroke="black" d="M492.95,-162.7C513.91,-159.83 540.34,-156.48 564,-154.24 685.78,-142.7 829.61,-135.47 903.23,-132.23"/>
</g>
<!-- 0x8e0c40&#45;&gt;0x8e2ba0 -->
<g id="edge57" class="edge">
<title>0x8e0c40&#45;&gt;0x8e2ba0</title>
<path fill="none" stroke="black" d="M492.99,-173.39C590.89,-186.56 842.29,-220.72 850,-225.24 899.21,-254.06 932.86,-316.71 945.93,-344.49"/>
</g>
<!-- 0x8e0cc0 -->
<g id="node34" class="node">
<title>0x8e0cc0</title>
<polygon fill="lightgrey" stroke="black" points="498.5,-328.74 408.5,-328.74 408.5,-309.74 498.5,-309.74 498.5,-328.74"/>
<text text-anchor="middle" x="453.5" y="-316.74" font-family="Times,serif" font-size="10.00">dat/asassn.csv</text>
</g>
<!-- 0x8e0cc0&#45;&gt;0x8e0820 -->
<g id="edge58" class="edge">
<title>0x8e0cc0&#45;&gt;0x8e0820</title>
<path fill="none" stroke="black" d="M494.93,-309.31C521.09,-302.89 555.01,-294.56 581.16,-288.14"/>
</g>
<!-- 0x8e0cc0&#45;&gt;0x8e2ba0 -->
<g id="edge59" class="edge">
<title>0x8e0cc0&#45;&gt;0x8e2ba0</title>
<path fill="none" stroke="black" d="M498.65,-322.7C589.25,-329.8 796.05,-346.01 895.95,-353.84"/>
</g>
<!-- 0x8e0400 -->
<g id="node35" class="node">
<title>0x8e0400</title>
<polygon fill="lightgrey" stroke="black" points="826,-519.74 741,-519.74 741,-500.74 826,-500.74 826,-519.74"/>
<text text-anchor="middle" x="783.5" y="-507.74" font-family="Times,serif" font-size="10.00">dat/stars.json</text>
</g>
<!-- 0x8e0400&#45;&gt;0x8df950 -->
<g id="edge60" class="edge">
<title>0x8e0400&#45;&gt;0x8df950</title>
<path fill="none" stroke="black" d="M826.34,-510.74C844.26,-510.95 865.64,-511.2 885.64,-511.44"/>
</g>
<!-- 0x8e37c0 -->
<g id="node36" class="node">
<title>0x8e37c0</title>
<polygon fill="lightgrey" stroke="black" points="528,-822.74 379,-822.74 379,-803.74 528,-803.74 528,-822.74"/>
<text text-anchor="middle" x="453.5" y="-810.74" font-family="Times,serif" font-size="10.00">screencasts/main/out.mp4</text>
</g>
<!-- 0x8e30f0 -->
<g id="node37" class="node">
<title>0x8e30f0</title>
<ellipse fill="lightgrey" stroke="black" cx="265" cy="-813.24" rx="78" ry="13.5"/>
<text text-anchor="middle" x="265" y="-810.74" font-family="Times,serif" font-size="10.00">src.screencasts.py</text>
</g>
<!-- 0x8e30f0&#45;&gt;0x8e37c0 -->
<g id="edge61" class="edge">
<title>0x8e30f0&#45;&gt;0x8e37c0</title>
<path fill="none" stroke="black" d="M343.47,-813.24C351.27,-813.24 359.22,-813.24 367.1,-813.24"/>
<polygon fill="black" stroke="black" points="367.05,-816.74 377.05,-813.24 367.05,-809.74 367.05,-816.74"/>
</g>
<!-- 0x8e38a0 -->
<g id="node38" class="node">
<title>0x8e38a0</title>
<polygon fill="lightgrey" stroke="black" points="134,-896.74 17,-896.74 17,-877.74 134,-877.74 134,-896.74"/>
<text text-anchor="middle" x="75.5" y="-884.74" font-family="Times,serif" font-size="10.00">dat/screencasts.yml</text>
</g>
<!-- 0x8e38a0&#45;&gt;0x8e30f0 -->
<g id="edge62" class="edge">
<title>0x8e38a0&#45;&gt;0x8e30f0</title>
<path fill="none" stroke="black" d="M124.66,-877.27C133.52,-874.97 142.62,-872.28 151,-869.24 183.51,-857.42 218.94,-838.86 241.29,-826.38"/>
</g>
<!-- 0x8e3990 -->
<g id="node39" class="node">
<title>0x8e3990</title>
<polygon fill="lightgrey" stroke="black" points="150.5,-859.74 0.5,-859.74 0.5,-840.74 150.5,-840.74 150.5,-859.74"/>
<text text-anchor="middle" x="75.5" y="-847.74" font-family="Times,serif" font-size="10.00">screencasts/main/sab.mov</text>
</g>
<!-- 0x8e3990&#45;&gt;0x8e30f0 -->
<g id="edge63" class="edge">
<title>0x8e3990&#45;&gt;0x8e30f0</title>
<path fill="none" stroke="black" d="M126.75,-840.32C153.11,-835.12 185.36,-828.75 211.98,-823.5"/>
</g>
<!-- 0x8e3a90 -->
<g id="node40" class="node">
<title>0x8e3a90</title>
<polygon fill="lightgrey" stroke="black" points="148.5,-822.74 2.5,-822.74 2.5,-803.74 148.5,-803.74 148.5,-822.74"/>
<text text-anchor="middle" x="75.5" y="-810.74" font-family="Times,serif" font-size="10.00">screencasts/main/tm.mov</text>
</g>
<!-- 0x8e3a90&#45;&gt;0x8e30f0 -->
<g id="edge64" class="edge">
<title>0x8e3a90&#45;&gt;0x8e30f0</title>
<path fill="none" stroke="black" d="M148.99,-813.24C161.36,-813.24 174.25,-813.24 186.73,-813.24"/>
</g>
<!-- 0x8e3b80 -->
<g id="node41" class="node">
<title>0x8e3b80</title>
<polygon fill="lightgrey" stroke="black" points="151,-785.74 0,-785.74 0,-766.74 151,-766.74 151,-785.74"/>
<text text-anchor="middle" x="75.5" y="-773.74" font-family="Times,serif" font-size="10.00">screencasts/main/elle.mp4</text>
</g>
<!-- 0x8e3b80&#45;&gt;0x8e30f0 -->
<g id="edge65" class="edge">
<title>0x8e3b80&#45;&gt;0x8e30f0</title>
<path fill="none" stroke="black" d="M126.75,-786.15C153.11,-791.35 185.36,-797.72 211.98,-802.97"/>
</g>
<!-- 0x8e3c80 -->
<g id="node42" class="node">
<title>0x8e3c80</title>
<polygon fill="lightgrey" stroke="black" points="147,-748.74 4,-748.74 4,-729.74 147,-729.74 147,-748.74"/>
<text text-anchor="middle" x="75.5" y="-736.74" font-family="Times,serif" font-size="10.00">screencasts/main/jb.mp4</text>
</g>
<!-- 0x8e3c80&#45;&gt;0x8e30f0 -->
<g id="edge66" class="edge">
<title>0x8e3c80&#45;&gt;0x8e30f0</title>
<path fill="none" stroke="black" d="M124.66,-749.2C133.52,-751.51 142.62,-754.19 151,-757.24 183.51,-769.05 218.94,-787.61 241.29,-800.09"/>
</g>
</g>
<script><![CDATA[
function child(el, tag) {
    for (c of el.children)
        if (c.tagName == tag)
            return c;
}
function colorNode(node, reset=false) {
    const container = child(node, "polygon") || child(node, "ellipse");
    const color = reset ? "black" : "#f00";
    container.style.stroke = color;
}
function colorEdge(edge, reset=false) {
    const path = child(edge, "path");
    const polygon = child(edge, "polygon");
    const color = reset ? "black" : "#f00";
    path.style.stroke = color;
    if (polygon) {
        polygon.style.fill = color;
        polygon.style.stroke = color;
    }
}
function connectedEdges(node) {
    const nodeTitle = child(node, "title").textContent;
    const ret = [];
    for (const edge of document.querySelectorAll('.edge')) {
        const edgeTitle = child(edge, "title").textContent;
        if (edgeTitle.includes(nodeTitle))
            ret.push(edge);
    }
    return ret;
}
function highlight(ev) {
    const el = ev.target;
    if (el.className.baseVal != "node")
        return;
    colorNode(el);
    for (const edge of connectedEdges(el))
        colorEdge(edge);
}
function unhighlight() {
    for (const el of document.querySelectorAll("g")) {
        if (el.className.baseVal == "node") {
            colorNode(el, reset=true);
        } else if (el.className.baseVal == "edge") {
            colorEdge(el, reset=true);
        }
    }
}
for (const el of document.querySelectorAll("g")) {
    el.onmouseenter = highlight;
    el.onmouseleave = unhighlight;
}
]]></script></svg>
