<?xml version="1.0" encoding="UTF-8" standalone="no"?>
<!DOCTYPE svg PUBLIC "-//W3C//DTD SVG 1.1//EN"
 "http://www.w3.org/Graphics/SVG/1.1/DTD/svg11.dtd">
<!-- Generated by graphviz version 7.0.5 (20221223.1930)
 -->
<!-- Title: gvpr_result Pages: 1 -->
<svg width="1541pt" height="796pt"
 viewBox="0.00 0.00 1541.00 795.50" xmlns="http://www.w3.org/2000/svg" xmlns:xlink="http://www.w3.org/1999/xlink">
<g id="graph0" class="graph" transform="scale(1 1) rotate(0) translate(4 791.5)">
<title>gvpr_result</title>
<polygon fill="white" stroke="none" points="-4,4 -4,-791.5 1537,-791.5 1537,4 -4,4"/>
<!-- 0x8f4220 -->
<g id="node1" class="node">
<title>0x8f4220</title>
<polygon fill="lightgrey" stroke="black" points="976,-576.5 919,-576.5 919,-557.5 976,-557.5 976,-576.5"/>
<text text-anchor="middle" x="947.5" y="-564.5" font-family="Times,serif" font-size="10.00">dag.svg</text>
</g>
<!-- 0x8f3060 -->
<g id="node2" class="node">
<title>0x8f3060</title>
<polygon fill="lightgrey" stroke="black" points="772,-576.5 701,-576.5 701,-557.5 772,-557.5 772,-576.5"/>
<text text-anchor="middle" x="736.5" y="-564.5" font-family="Times,serif" font-size="10.00">build.ninja</text>
</g>
<!-- 0x8f3060&#45;&gt;0x8f4220 -->
<g id="edge1" class="edge">
<title>0x8f3060&#45;&gt;0x8f4220</title>
<path fill="none" stroke="black" d="M772.48,-567C809.76,-567 868.65,-567 907.42,-567"/>
<polygon fill="black" stroke="black" points="907.25,-570.5 917.25,-567 907.25,-563.5 907.25,-570.5"/>
<text text-anchor="middle" x="848" y="-570" font-family="Times,serif" font-size="10.00"> gengraph</text>
</g>
<!-- 0x8f35f0 -->
<g id="node3" class="node">
<title>0x8f35f0</title>
<ellipse fill="lightgrey" stroke="black" cx="587" cy="-567" rx="41.54" ry="13.5"/>
<text text-anchor="middle" x="587" y="-564.5" font-family="Times,serif" font-size="10.00">build.py</text>
</g>
<!-- 0x8f35f0&#45;&gt;0x8f3060 -->
<g id="edge2" class="edge">
<title>0x8f35f0&#45;&gt;0x8f3060</title>
<path fill="none" stroke="black" d="M628.7,-567C647.57,-567 670.08,-567 689.56,-567"/>
<polygon fill="black" stroke="black" points="689.42,-570.5 699.42,-567 689.42,-563.5 689.42,-570.5"/>
</g>
<!-- 0x8f3680 -->
<g id="node4" class="node">
<title>0x8f3680</title>
<polygon fill="lightgrey" stroke="black" points="459,-613.5 400,-613.5 400,-594.5 459,-594.5 459,-613.5"/>
<text text-anchor="middle" x="429.5" y="-601.5" font-family="Times,serif" font-size="10.00">build.py</text>
</g>
<!-- 0x8f3680&#45;&gt;0x8f35f0 -->
<g id="edge3" class="edge">
<title>0x8f3680&#45;&gt;0x8f35f0</title>
<path fill="none" stroke="black" d="M459.38,-597.13C485.82,-590.84 524.93,-581.53 552.68,-574.93"/>
</g>
<!-- 0x8f3750 -->
<g id="node5" class="node">
<title>0x8f3750</title>
<polygon fill="lightgrey" stroke="black" points="456.5,-576.5 402.5,-576.5 402.5,-557.5 456.5,-557.5 456.5,-576.5"/>
<text text-anchor="middle" x="429.5" y="-564.5" font-family="Times,serif" font-size="10.00">lib/x.py</text>
</g>
<!-- 0x8f3750&#45;&gt;0x8f35f0 -->
<g id="edge4" class="edge">
<title>0x8f3750&#45;&gt;0x8f35f0</title>
<path fill="none" stroke="black" d="M456.88,-567C481.05,-567 517.22,-567 545.14,-567"/>
</g>
<!-- 0x8f3820 -->
<g id="node6" class="node">
<title>0x8f3820</title>
<polygon fill="lightgrey" stroke="black" points="466.5,-539.5 392.5,-539.5 392.5,-520.5 466.5,-520.5 466.5,-539.5"/>
<text text-anchor="middle" x="429.5" y="-527.5" font-family="Times,serif" font-size="10.00">lib/graph.js</text>
</g>
<!-- 0x8f3820&#45;&gt;0x8f35f0 -->
<g id="edge5" class="edge">
<title>0x8f3820&#45;&gt;0x8f35f0</title>
<path fill="none" stroke="black" d="M466.96,-538.67C492.9,-544.85 527.48,-553.08 552.69,-559.07"/>
</g>
<!-- 0x8f38f0 -->
<g id="node7" class="node">
<title>0x8f38f0</title>
<polygon fill="lightgrey" stroke="black" points="120,-203.5 31,-203.5 31,-184.5 120,-184.5 120,-203.5"/>
<text text-anchor="middle" x="75.5" y="-191.5" font-family="Times,serif" font-size="10.00">dat/config.yml</text>
</g>
<!-- 0x8f38f0&#45;&gt;0x8f35f0 -->
<g id="edge6" class="edge">
<title>0x8f38f0&#45;&gt;0x8f35f0</title>
<path fill="none" stroke="black" d="M76.94,-203.77C79.26,-244.86 93.03,-406.2 169,-506 228.01,-583.52 261.34,-595.19 355,-622 418.66,-640.23 440.65,-641.28 504,-622 530.89,-613.82 556.98,-593.55 572.26,-580.03"/>
</g>
<!-- 0x8f3ce0 -->
<g id="node8" class="node">
<title>0x8f3ce0</title>
<ellipse fill="lightgrey" stroke="black" cx="253" cy="-282" rx="43" ry="13.5"/>
<text text-anchor="middle" x="253" y="-279.5" font-family="Times,serif" font-size="10.00">query.py</text>
</g>
<!-- 0x8f38f0&#45;&gt;0x8f3ce0 -->
<g id="edge7" class="edge">
<title>0x8f38f0&#45;&gt;0x8f3ce0</title>
<path fill="none" stroke="black" d="M96.29,-203.92C129.01,-220.33 194.21,-253.02 228.96,-270.45"/>
</g>
<!-- 0x8f5150 -->
<g id="node9" class="node">
<title>0x8f5150</title>
<ellipse fill="lightgrey" stroke="black" cx="587" cy="-241" rx="46" ry="13.5"/>
<text text-anchor="middle" x="587" y="-238.5" font-family="Times,serif" font-size="10.00">period.py</text>
</g>
<!-- 0x8f38f0&#45;&gt;0x8f5150 -->
<g id="edge8" class="edge">
<title>0x8f38f0&#45;&gt;0x8f5150</title>
<path fill="none" stroke="black" d="M120.38,-198.05C216.93,-206.95 446.81,-228.16 542.77,-237.01"/>
</g>
<!-- 0x8f5820 -->
<g id="node10" class="node">
<title>0x8f5820</title>
<ellipse fill="lightgrey" stroke="black" cx="1297.5" cy="-141" rx="64.5" ry="13.5"/>
<text text-anchor="middle" x="1297.5" y="-138.5" font-family="Times,serif" font-size="10.00">color_index.py</text>
</g>
<!-- 0x8f38f0&#45;&gt;0x8f5820 -->
<g id="edge9" class="edge">
<title>0x8f38f0&#45;&gt;0x8f5820</title>
<path fill="none" stroke="black" d="M79.82,-184.11C93.76,-144.58 151.63,0 252,0 252,0 252,0 1118.5,0 1199.91,0 1265.8,-91.74 1288.24,-127.22"/>
</g>
<!-- 0x8f4720 -->
<g id="node11" class="node">
<title>0x8f4720</title>
<ellipse fill="lightgrey" stroke="black" cx="947.5" cy="-265" rx="54.5" ry="13.5"/>
<text text-anchor="middle" x="947.5" y="-262.5" font-family="Times,serif" font-size="10.00">calibrate.py</text>
</g>
<!-- 0x8f38f0&#45;&gt;0x8f4720 -->
<g id="edge10" class="edge">
<title>0x8f38f0&#45;&gt;0x8f4720</title>
<path fill="none" stroke="black" d="M90.29,-184.13C118.93,-164.62 187.58,-123 252,-123 252,-123 252,-123 523,-123 685.07,-123 864.78,-217.65 925.31,-252.4"/>
</g>
<!-- 0x8f6010 -->
<g id="node12" class="node">
<title>0x8f6010</title>
<ellipse fill="lightgrey" stroke="black" cx="1297.5" cy="-328" rx="63" ry="13.5"/>
<text text-anchor="middle" x="1297.5" y="-325.5" font-family="Times,serif" font-size="10.00">lightcurves.py</text>
</g>
<!-- 0x8f38f0&#45;&gt;0x8f6010 -->
<g id="edge11" class="edge">
<title>0x8f38f0&#45;&gt;0x8f6010</title>
<path fill="none" stroke="black" d="M77.43,-203.91C82.85,-255.62 115.11,-492 252,-492 252,-492 252,-492 1118.5,-492 1206.95,-492 1270.29,-381.12 1290.01,-341.7"/>
</g>
<!-- 0x8f6530 -->
<g id="node13" class="node">
<title>0x8f6530</title>
<ellipse fill="lightgrey" stroke="black" cx="947.5" cy="-433" rx="37.5" ry="13.5"/>
<text text-anchor="middle" x="947.5" y="-430.5" font-family="Times,serif" font-size="10.00">tess.py</text>
</g>
<!-- 0x8f38f0&#45;&gt;0x8f6530 -->
<g id="edge12" class="edge">
<title>0x8f38f0&#45;&gt;0x8f6530</title>
<path fill="none" stroke="black" d="M78.09,-203.87C86.38,-251.37 128.92,-454 252,-454 252,-454 252,-454 737.5,-454 799.49,-454 871.32,-444.74 912.58,-438.52"/>
</g>
<!-- 0x8f69e0 -->
<g id="node14" class="node">
<title>0x8f69e0</title>
<ellipse fill="lightgrey" stroke="black" cx="947.5" cy="-80" rx="47.5" ry="13.5"/>
<text text-anchor="middle" x="947.5" y="-77.5" font-family="Times,serif" font-size="10.00">asassn.py</text>
</g>
<!-- 0x8f38f0&#45;&gt;0x8f69e0 -->
<g id="edge13" class="edge">
<title>0x8f38f0&#45;&gt;0x8f69e0</title>
<path fill="none" stroke="black" d="M81.32,-184.24C98.95,-150.09 163.54,-38 252,-38 252,-38 252,-38 737.5,-38 801.71,-38 874.89,-57.29 915.38,-69.73"/>
</g>
<!-- 0x8f39c0 -->
<g id="node15" class="node">
<title>0x8f39c0</title>
<polygon fill="lightgrey" stroke="black" points="476.5,-318.5 382.5,-318.5 382.5,-299.5 476.5,-299.5 476.5,-318.5"/>
<text text-anchor="middle" x="429.5" y="-306.5" font-family="Times,serif" font-size="10.00">dat/known.json</text>
</g>
<!-- 0x8f3ce0&#45;&gt;0x8f39c0 -->
<g id="edge14" class="edge">
<title>0x8f3ce0&#45;&gt;0x8f39c0</title>
<path fill="none" stroke="black" d="M292.29,-287.93C315.37,-291.5 345.19,-296.11 371.05,-300.11"/>
<polygon fill="black" stroke="black" points="370.32,-303.54 380.74,-301.61 371.39,-296.62 370.32,-303.54"/>
</g>
<!-- 0x8f5230 -->
<g id="node16" class="node">
<title>0x8f5230</title>
<polygon fill="lightgrey" stroke="black" points="803,-237.5 670,-237.5 670,-218.5 803,-218.5 803,-237.5"/>
<text text-anchor="middle" x="736.5" y="-225.5" font-family="Times,serif" font-size="10.00">img/period/asassn.png</text>
</g>
<!-- 0x8f5150&#45;&gt;0x8f5230 -->
<g id="edge15" class="edge">
<title>0x8f5150&#45;&gt;0x8f5230</title>
<path fill="none" stroke="black" d="M631.46,-237.17C639.98,-236.42 649.15,-235.61 658.39,-234.8"/>
<polygon fill="black" stroke="black" points="658.49,-238.3 668.15,-233.94 657.88,-231.33 658.49,-238.3"/>
</g>
<!-- 0x8f4dd0 -->
<g id="node17" class="node">
<title>0x8f4dd0</title>
<polygon fill="lightgrey" stroke="black" points="783,-311.5 690,-311.5 690,-292.5 783,-292.5 783,-311.5"/>
<text text-anchor="middle" x="736.5" y="-299.5" font-family="Times,serif" font-size="10.00">dat/period.json</text>
</g>
<!-- 0x8f5150&#45;&gt;0x8f4dd0 -->
<g id="edge16" class="edge">
<title>0x8f5150&#45;&gt;0x8f4dd0</title>
<path fill="none" stroke="black" d="M609.06,-253.2C625.32,-262.28 648.59,-274.5 670,-283 675.03,-285 680.35,-286.89 685.71,-288.64"/>
<polygon fill="black" stroke="black" points="684.61,-291.97 695.2,-291.61 686.69,-285.29 684.61,-291.97"/>
</g>
<!-- 0x8f58b0 -->
<g id="node18" class="node">
<title>0x8f58b0</title>
<polygon fill="lightgrey" stroke="black" points="1526.5,-150.5 1405.5,-150.5 1405.5,-131.5 1526.5,-131.5 1526.5,-150.5"/>
<text text-anchor="middle" x="1466" y="-138.5" font-family="Times,serif" font-size="10.00">img/color_index.png</text>
</g>
<!-- 0x8f5820&#45;&gt;0x8f58b0 -->
<g id="edge17" class="edge">
<title>0x8f5820&#45;&gt;0x8f58b0</title>
<path fill="none" stroke="black" d="M1362.4,-141C1372.7,-141 1383.42,-141 1393.89,-141"/>
<polygon fill="black" stroke="black" points="1393.59,-144.5 1403.59,-141 1393.59,-137.5 1393.59,-144.5"/>
</g>
<!-- 0x8f47b0 -->
<g id="node19" class="node">
<title>0x8f47b0</title>
<polygon fill="lightgrey" stroke="black" points="1149,-250.5 1086,-250.5 1086,-231.5 1149,-231.5 1149,-250.5"/>
<text text-anchor="middle" x="1117.5" y="-238.5" font-family="Times,serif" font-size="10.00">dat/B.csv</text>
</g>
<!-- 0x8f4720&#45;&gt;0x8f47b0 -->
<g id="edge18" class="edge">
<title>0x8f4720&#45;&gt;0x8f47b0</title>
<path fill="none" stroke="black" d="M995.3,-258.31C1020.08,-254.77 1050.27,-250.46 1074.32,-247.03"/>
<polygon fill="black" stroke="black" points="1074.68,-250.51 1084.09,-245.63 1073.69,-243.58 1074.68,-250.51"/>
</g>
<!-- 0x8f4860 -->
<g id="node20" class="node">
<title>0x8f4860</title>
<polygon fill="lightgrey" stroke="black" points="1148,-287.5 1087,-287.5 1087,-268.5 1148,-268.5 1148,-287.5"/>
<text text-anchor="middle" x="1117.5" y="-275.5" font-family="Times,serif" font-size="10.00">dat/V.csv</text>
</g>
<!-- 0x8f4720&#45;&gt;0x8f4860 -->
<g id="edge19" class="edge">
<title>0x8f4720&#45;&gt;0x8f4860</title>
<path fill="none" stroke="black" d="M999.82,-268.97C1024.14,-270.85 1052.8,-273.07 1075.62,-274.84"/>
<polygon fill="black" stroke="black" points="1075.22,-278.32 1085.46,-275.6 1075.76,-271.34 1075.22,-278.32"/>
</g>
<!-- 0x8f4910 -->
<g id="node21" class="node">
<title>0x8f4910</title>
<polygon fill="lightgrey" stroke="black" points="1152.5,-324.5 1082.5,-324.5 1082.5,-305.5 1152.5,-305.5 1152.5,-324.5"/>
<text text-anchor="middle" x="1117.5" y="-312.5" font-family="Times,serif" font-size="10.00">dat/SG.csv</text>
</g>
<!-- 0x8f4720&#45;&gt;0x8f4910 -->
<g id="edge20" class="edge">
<title>0x8f4720&#45;&gt;0x8f4910</title>
<path fill="none" stroke="black" d="M979.28,-276.31C996.68,-282.51 1018.92,-290.11 1039,-296 1049.46,-299.07 1060.81,-302.04 1071.51,-304.69"/>
<polygon fill="black" stroke="black" points="1070.36,-308.02 1080.9,-306.97 1072.01,-301.21 1070.36,-308.02"/>
</g>
<!-- 0x8f49c0 -->
<g id="node22" class="node">
<title>0x8f49c0</title>
<polygon fill="lightgrey" stroke="black" points="1152.5,-176.5 1082.5,-176.5 1082.5,-157.5 1152.5,-157.5 1152.5,-176.5"/>
<text text-anchor="middle" x="1117.5" y="-164.5" font-family="Times,serif" font-size="10.00">dat/SR.csv</text>
</g>
<!-- 0x8f4720&#45;&gt;0x8f49c0 -->
<g id="edge21" class="edge">
<title>0x8f4720&#45;&gt;0x8f49c0</title>
<path fill="none" stroke="black" d="M959.88,-251.4C975.72,-233.38 1006.2,-201.91 1039,-185 1048.84,-179.93 1060.12,-176.26 1070.97,-173.63"/>
<polygon fill="black" stroke="black" points="1071.52,-177.09 1080.56,-171.56 1070.04,-170.25 1071.52,-177.09"/>
</g>
<!-- 0x8f4a70 -->
<g id="node23" class="node">
<title>0x8f4a70</title>
<polygon fill="lightgrey" stroke="black" points="1150.5,-213.5 1084.5,-213.5 1084.5,-194.5 1150.5,-194.5 1150.5,-213.5"/>
<text text-anchor="middle" x="1117.5" y="-201.5" font-family="Times,serif" font-size="10.00">dat/SI.csv</text>
</g>
<!-- 0x8f4720&#45;&gt;0x8f4a70 -->
<g id="edge22" class="edge">
<title>0x8f4720&#45;&gt;0x8f4a70</title>
<path fill="none" stroke="black" d="M971.36,-252.45C989.32,-243 1015.19,-230.31 1039,-222 1049.86,-218.21 1061.85,-214.98 1073.09,-212.35"/>
<polygon fill="black" stroke="black" points="1073.53,-215.84 1082.53,-210.25 1072.01,-209 1073.53,-215.84"/>
</g>
<!-- 0x8f60a0 -->
<g id="node24" class="node">
<title>0x8f60a0</title>
<polygon fill="lightgrey" stroke="black" points="1533,-337.5 1399,-337.5 1399,-318.5 1533,-318.5 1533,-337.5"/>
<text text-anchor="middle" x="1466" y="-325.5" font-family="Times,serif" font-size="10.00">img/lightcurves/all.png</text>
</g>
<!-- 0x8f6010&#45;&gt;0x8f60a0 -->
<g id="edge23" class="edge">
<title>0x8f6010&#45;&gt;0x8f60a0</title>
<path fill="none" stroke="black" d="M1360.97,-328C1369.51,-328 1378.35,-328 1387.11,-328"/>
<polygon fill="black" stroke="black" points="1387.04,-331.5 1397.04,-328 1387.04,-324.5 1387.04,-331.5"/>
</g>
<!-- 0x8f65c0 -->
<g id="node25" class="node">
<title>0x8f65c0</title>
<polygon fill="lightgrey" stroke="black" points="1189,-442.5 1046,-442.5 1046,-423.5 1189,-423.5 1189,-442.5"/>
<text text-anchor="middle" x="1117.5" y="-430.5" font-family="Times,serif" font-size="10.00">img/lightcurves/tess.png</text>
</g>
<!-- 0x8f6530&#45;&gt;0x8f65c0 -->
<g id="edge24" class="edge">
<title>0x8f6530&#45;&gt;0x8f65c0</title>
<path fill="none" stroke="black" d="M985.37,-433C999.87,-433 1017.14,-433 1034.31,-433"/>
<polygon fill="black" stroke="black" points="1034.03,-436.5 1044.03,-433 1034.03,-429.5 1034.03,-436.5"/>
</g>
<!-- 0x8f6b00 -->
<g id="node26" class="node">
<title>0x8f6b00</title>
<polygon fill="lightgrey" stroke="black" points="1196,-89.5 1039,-89.5 1039,-70.5 1196,-70.5 1196,-89.5"/>
<text text-anchor="middle" x="1117.5" y="-77.5" font-family="Times,serif" font-size="10.00">img/lightcurves/asassn.png</text>
</g>
<!-- 0x8f69e0&#45;&gt;0x8f6b00 -->
<g id="edge25" class="edge">
<title>0x8f69e0&#45;&gt;0x8f6b00</title>
<path fill="none" stroke="black" d="M995.3,-80C1005.31,-80 1016.21,-80 1027.24,-80"/>
<polygon fill="black" stroke="black" points="1027.22,-83.5 1037.22,-80 1027.22,-76.5 1027.22,-83.5"/>
</g>
<!-- 0x8f39c0&#45;&gt;0x8f35f0 -->
<g id="edge26" class="edge">
<title>0x8f39c0&#45;&gt;0x8f35f0</title>
<path fill="none" stroke="black" d="M436.41,-318.8C460.37,-358.56 550.39,-507.92 577.94,-553.63"/>
</g>
<!-- 0x8f39c0&#45;&gt;0x8f5150 -->
<g id="edge27" class="edge">
<title>0x8f39c0&#45;&gt;0x8f5150</title>
<path fill="none" stroke="black" d="M453.11,-299.11C481.5,-286.7 530.09,-265.45 559.99,-252.38"/>
</g>
<!-- 0x8f39c0&#45;&gt;0x8f5820 -->
<g id="edge28" class="edge">
<title>0x8f39c0&#45;&gt;0x8f5820</title>
<path fill="none" stroke="black" d="M438.78,-299.28C455.75,-280.1 496.64,-237.51 541,-218 745.6,-128.03 817.45,-177.5 1039,-148 1117.14,-137.6 1136.5,-118.84 1215,-126 1226.89,-127.09 1239.64,-129.04 1251.44,-131.19"/>
</g>
<!-- 0x8f39c0&#45;&gt;0x8f4720 -->
<g id="edge29" class="edge">
<title>0x8f39c0&#45;&gt;0x8f4720</title>
<path fill="none" stroke="black" d="M476.98,-315.62C547.78,-324.53 686.7,-337.37 803,-320 847.6,-313.34 895.85,-291.5 923.5,-277.43"/>
</g>
<!-- 0x8f39c0&#45;&gt;0x8f6010 -->
<g id="edge30" class="edge">
<title>0x8f39c0&#45;&gt;0x8f6010</title>
<path fill="none" stroke="black" d="M464.78,-318.91C481.94,-323.83 503.04,-329.81 522,-335 530.42,-337.3 532.36,-338.76 541,-340 589.41,-346.94 602.11,-341.77 651,-343 901.21,-349.3 963.73,-353.11 1214,-356 1234.57,-356.24 1256.57,-348.32 1272.67,-340.85"/>
</g>
<!-- 0x8f39c0&#45;&gt;0x8f6530 -->
<g id="edge31" class="edge">
<title>0x8f39c0&#45;&gt;0x8f6530</title>
<path fill="none" stroke="black" d="M437.74,-318.85C451.7,-336.98 484.34,-375.34 522,-392 591.07,-422.55 819.62,-430.45 909.62,-432.39"/>
</g>
<!-- 0x8f39c0&#45;&gt;0x8f69e0 -->
<g id="edge32" class="edge">
<title>0x8f39c0&#45;&gt;0x8f69e0</title>
<path fill="none" stroke="black" d="M436.81,-299.24C452.08,-276.32 493.31,-218.45 541,-185 584.11,-154.76 600.57,-156.16 651,-141 739.79,-114.31 847.06,-95.36 904.81,-86.22"/>
</g>
<!-- 0x8f4dd0&#45;&gt;0x8f4720 -->
<g id="edge33" class="edge">
<title>0x8f4dd0&#45;&gt;0x8f4720</title>
<path fill="none" stroke="black" d="M783.39,-294.65C810.14,-290.28 844.52,-284.53 875,-279 884.46,-277.28 894.6,-275.35 904.19,-273.48"/>
</g>
<!-- 0x8f4dd0&#45;&gt;0x8f6010 -->
<g id="edge34" class="edge">
<title>0x8f4dd0&#45;&gt;0x8f6010</title>
<path fill="none" stroke="black" d="M783.4,-307.54C842.44,-314.47 948.22,-326.26 1039,-333 1116.65,-338.76 1136.16,-339.22 1214,-341 1226.61,-341.29 1240.18,-339.88 1252.6,-337.89"/>
</g>
<!-- 0x8f4dd0&#45;&gt;0x8f6530 -->
<g id="edge35" class="edge">
<title>0x8f4dd0&#45;&gt;0x8f6530</title>
<path fill="none" stroke="black" d="M748.91,-311.94C764.55,-325.32 793.83,-349.48 821,-367 855.14,-389.01 897.4,-410.07 923.14,-422.26"/>
</g>
<!-- 0x8f4dd0&#45;&gt;0x8f69e0 -->
<g id="edge36" class="edge">
<title>0x8f4dd0&#45;&gt;0x8f69e0</title>
<path fill="none" stroke="black" d="M783.38,-293.02C790.32,-290.46 797.12,-287.19 803,-283 875.77,-231.17 924.68,-130.43 940.74,-93.77"/>
</g>
<!-- 0x8f47b0&#45;&gt;0x8f5820 -->
<g id="edge37" class="edge">
<title>0x8f47b0&#45;&gt;0x8f5820</title>
<path fill="none" stroke="black" d="M1149.38,-239.82C1164.9,-237.76 1183.11,-232.93 1196,-222 1211.49,-208.87 1199.91,-194.62 1214,-180 1226.2,-167.34 1243.34,-158.33 1258.83,-152.18"/>
</g>
<!-- 0x8f47b0&#45;&gt;0x8f6010 -->
<g id="edge38" class="edge">
<title>0x8f47b0&#45;&gt;0x8f6010</title>
<path fill="none" stroke="black" d="M1149.36,-244.16C1164.17,-246.65 1181.75,-251.09 1196,-259 1205.89,-264.49 1205.13,-269.98 1214,-277 1232.62,-291.74 1255.75,-305.71 1272.78,-315.29"/>
</g>
<!-- 0x8f4860&#45;&gt;0x8f5820 -->
<g id="edge39" class="edge">
<title>0x8f4860&#45;&gt;0x8f5820</title>
<path fill="none" stroke="black" d="M1148.23,-277.43C1164.19,-275.62 1183.17,-270.83 1196,-259 1214.6,-241.85 1199.38,-225.64 1214,-205 1229.51,-183.11 1254.66,-165.14 1273.12,-153.87"/>
</g>
<!-- 0x8f4860&#45;&gt;0x8f6010 -->
<g id="edge40" class="edge">
<title>0x8f4860&#45;&gt;0x8f6010</title>
<path fill="none" stroke="black" d="M1148.48,-284.28C1162.92,-287.47 1180.45,-291.61 1196,-296 1204.12,-298.29 1205.98,-299.4 1214,-302 1229.14,-306.91 1245.89,-312.21 1260.32,-316.74"/>
</g>
<!-- 0x8f4910&#45;&gt;0x8f5820 -->
<g id="edge41" class="edge">
<title>0x8f4910&#45;&gt;0x8f5820</title>
<path fill="none" stroke="black" d="M1152.86,-312.19C1167.23,-309.66 1183.47,-304.91 1196,-296 1248.28,-258.84 1280.21,-185.14 1291.68,-154.67"/>
</g>
<!-- 0x8f4910&#45;&gt;0x8f6010 -->
<g id="edge42" class="edge">
<title>0x8f4910&#45;&gt;0x8f6010</title>
<path fill="none" stroke="black" d="M1152.89,-320.27C1171.02,-322.81 1193.66,-325.6 1214,-327 1220.57,-327.45 1227.45,-327.77 1234.3,-328"/>
</g>
<!-- 0x8f49c0&#45;&gt;0x8f5820 -->
<g id="edge43" class="edge">
<title>0x8f49c0&#45;&gt;0x8f5820</title>
<path fill="none" stroke="black" d="M1148.63,-157.04C1163.11,-152.01 1180.62,-145.6 1196,-139 1204.22,-135.47 1205.29,-132.05 1214,-130 1228.06,-126.68 1243.73,-127.63 1257.6,-130.03"/>
</g>
<!-- 0x8f49c0&#45;&gt;0x8f6010 -->
<g id="edge44" class="edge">
<title>0x8f49c0&#45;&gt;0x8f6010</title>
<path fill="none" stroke="black" d="M1152.69,-169.53C1167.03,-171.91 1183.29,-176.43 1196,-185 1245.82,-218.59 1278.69,-285.76 1291.03,-314.48"/>
</g>
<!-- 0x8f4a70&#45;&gt;0x8f5820 -->
<g id="edge45" class="edge">
<title>0x8f4a70&#45;&gt;0x8f5820</title>
<path fill="none" stroke="black" d="M1150.7,-201.79C1165.65,-199.41 1182.95,-194.62 1196,-185 1208.51,-175.77 1201.16,-163.77 1214,-155 1220.48,-150.58 1227.89,-147.39 1235.56,-145.13"/>
</g>
<!-- 0x8f4a70&#45;&gt;0x8f6010 -->
<g id="edge46" class="edge">
<title>0x8f4a70&#45;&gt;0x8f6010</title>
<path fill="none" stroke="black" d="M1150.68,-205.74C1165.62,-207.91 1182.93,-212.49 1196,-222 1208.57,-231.15 1204.18,-239.94 1214,-252 1233.92,-276.46 1261.67,-300.4 1279.36,-314.68"/>
</g>
<!-- 0x8f5380 -->
<g id="node27" class="node">
<title>0x8f5380</title>
<polygon fill="lightgrey" stroke="black" points="474.5,-94.5 384.5,-94.5 384.5,-75.5 474.5,-75.5 474.5,-94.5"/>
<text text-anchor="middle" x="429.5" y="-82.5" font-family="Times,serif" font-size="10.00">dat/asassn.csv</text>
</g>
<!-- 0x8f5380&#45;&gt;0x8f5150 -->
<g id="edge47" class="edge">
<title>0x8f5380&#45;&gt;0x8f5150</title>
<path fill="none" stroke="black" d="M444.1,-94.92C462.81,-108.88 497.12,-135.58 523,-162 543.86,-183.31 564.8,-211.15 576.51,-227.46"/>
</g>
<!-- 0x8f5380&#45;&gt;0x8f69e0 -->
<g id="edge48" class="edge">
<title>0x8f5380&#45;&gt;0x8f69e0</title>
<path fill="none" stroke="black" d="M474.94,-84.57C571.75,-83.63 800.9,-81.41 899.76,-80.45"/>
</g>
<!-- 0x8f4d20 -->
<g id="node28" class="node">
<title>0x8f4d20</title>
<polygon fill="lightgrey" stroke="black" points="779,-274.5 694,-274.5 694,-255.5 779,-255.5 779,-274.5"/>
<text text-anchor="middle" x="736.5" y="-262.5" font-family="Times,serif" font-size="10.00">dat/stars.json</text>
</g>
<!-- 0x8f4d20&#45;&gt;0x8f4720 -->
<g id="edge49" class="edge">
<title>0x8f4d20&#45;&gt;0x8f4720</title>
<path fill="none" stroke="black" d="M779.29,-265C811.93,-265 857.52,-265 892.86,-265"/>
</g>
<!-- 0x8f7090 -->
<g id="node29" class="node">
<title>0x8f7090</title>
<polygon fill="lightgrey" stroke="black" points="504,-731.5 355,-731.5 355,-712.5 504,-712.5 504,-731.5"/>
<text text-anchor="middle" x="429.5" y="-719.5" font-family="Times,serif" font-size="10.00">screencasts/main/out.mp4</text>
</g>
<!-- 0x8f7000 -->
<g id="node30" class="node">
<title>0x8f7000</title>
<ellipse fill="lightgrey" stroke="black" cx="253" cy="-722" rx="65" ry="13.5"/>
<text text-anchor="middle" x="253" y="-719.5" font-family="Times,serif" font-size="10.00">screencasts.py</text>
</g>
<!-- 0x8f7000&#45;&gt;0x8f7090 -->
<g id="edge50" class="edge">
<title>0x8f7000&#45;&gt;0x8f7090</title>
<path fill="none" stroke="black" d="M318.48,-722C326.56,-722 334.91,-722 343.25,-722"/>
<polygon fill="black" stroke="black" points="343.05,-725.5 353.05,-722 343.05,-718.5 343.05,-725.5"/>
</g>
<!-- 0x8f7290 -->
<g id="node31" class="node">
<title>0x8f7290</title>
<polygon fill="lightgrey" stroke="black" points="150.5,-787.5 0.5,-787.5 0.5,-768.5 150.5,-768.5 150.5,-787.5"/>
<text text-anchor="middle" x="75.5" y="-775.5" font-family="Times,serif" font-size="10.00">screencasts/main/sab.mov</text>
</g>
<!-- 0x8f7290&#45;&gt;0x8f7000 -->
<g id="edge51" class="edge">
<title>0x8f7290&#45;&gt;0x8f7000</title>
<path fill="none" stroke="black" d="M118.48,-768.09C129.14,-765.35 140.54,-762.24 151,-759 174.9,-751.59 201.45,-741.8 221.33,-734.15"/>
</g>
<!-- 0x8f7390 -->
<g id="node32" class="node">
<title>0x8f7390</title>
<polygon fill="lightgrey" stroke="black" points="151,-750.5 0,-750.5 0,-731.5 151,-731.5 151,-750.5"/>
<text text-anchor="middle" x="75.5" y="-738.5" font-family="Times,serif" font-size="10.00">screencasts/main/elle.mp4</text>
</g>
<!-- 0x8f7390&#45;&gt;0x8f7000 -->
<g id="edge52" class="edge">
<title>0x8f7390&#45;&gt;0x8f7000</title>
<path fill="none" stroke="black" d="M151.44,-732.89C165.88,-731.32 180.79,-729.71 194.57,-728.22"/>
</g>
<!-- 0x8f7490 -->
<g id="node33" class="node">
<title>0x8f7490</title>
<polygon fill="lightgrey" stroke="black" points="148.5,-713.5 2.5,-713.5 2.5,-694.5 148.5,-694.5 148.5,-713.5"/>
<text text-anchor="middle" x="75.5" y="-701.5" font-family="Times,serif" font-size="10.00">screencasts/main/tm.mov</text>
</g>
<!-- 0x8f7490&#45;&gt;0x8f7000 -->
<g id="edge53" class="edge">
<title>0x8f7490&#45;&gt;0x8f7000</title>
<path fill="none" stroke="black" d="M148.9,-711.43C163.91,-712.96 179.54,-714.57 193.96,-716.05"/>
</g>
<!-- 0x8f7580 -->
<g id="node34" class="node">
<title>0x8f7580</title>
<polygon fill="lightgrey" stroke="black" points="147,-676.5 4,-676.5 4,-657.5 147,-657.5 147,-676.5"/>
<text text-anchor="middle" x="75.5" y="-664.5" font-family="Times,serif" font-size="10.00">screencasts/main/jb.mp4</text>
</g>
<!-- 0x8f7580&#45;&gt;0x8f7000 -->
<g id="edge54" class="edge">
<title>0x8f7580&#45;&gt;0x8f7000</title>
<path fill="none" stroke="black" d="M121.24,-676.93C131.1,-679.36 141.45,-682.11 151,-685 174.95,-692.25 201.5,-702.05 221.37,-709.74"/>
</g>
</g>
<script><![CDATA[
function child(el, tag) {
    for (c of el.children)
        if (c.tagName == tag)
            return c;
}
function colorNode(node, reset=false) {
    const container = child(node, "polygon") || child(node, "ellipse");
    const color = reset ? "black" : "#f00";
    container.style.stroke = color;
}
function colorEdge(edge, reset=false) {
    const path = child(edge, "path");
    const polygon = child(edge, "polygon");
    const color = reset ? "black" : "#f00";
    path.style.stroke = color;
    if (polygon) {
        polygon.style.fill = color;
        polygon.style.stroke = color;
    }
}
function connectedEdges(node) {
    const nodeTitle = child(node, "title").textContent;
    const ret = [];
    for (const edge of document.querySelectorAll('.edge')) {
        const edgeTitle = child(edge, "title").textContent;
        if (edgeTitle.includes(nodeTitle))
            ret.push(edge);
    }
    return ret;
}
function highlight(ev) {
    const el = ev.target;
    if (el.className.baseVal != "node")
        return;
    colorNode(el);
    for (const edge of connectedEdges(el))
        colorEdge(edge);
}
function unhighlight() {
    for (const el of document.querySelectorAll("g")) {
        if (el.className.baseVal == "node") {
            colorNode(el, reset=true);
        } else if (el.className.baseVal == "edge") {
            colorEdge(el, reset=true);
        }
    }
}
for (const el of document.querySelectorAll("g")) {
    el.onmouseenter = highlight;
    el.onmouseleave = unhighlight;
}
]]></script></svg>
