<?xml version="1.0" encoding="UTF-8" standalone="no"?>
<!DOCTYPE svg PUBLIC "-//W3C//DTD SVG 1.1//EN"
 "http://www.w3.org/Graphics/SVG/1.1/DTD/svg11.dtd">
<!-- Generated by graphviz version 7.0.5 (20221223.1930)
 -->
<!-- Title: gvpr_result Pages: 1 -->
<svg width="1380pt" height="632pt"
 viewBox="0.00 0.00 1380.00 631.50" xmlns="http://www.w3.org/2000/svg" xmlns:xlink="http://www.w3.org/1999/xlink">
<g id="graph0" class="graph" transform="scale(1 1) rotate(0) translate(4 627.5)">
<title>gvpr_result</title>
<polygon fill="white" stroke="none" points="-4,4 -4,-627.5 1376,-627.5 1376,4 -4,4"/>
<!-- 0x1cf6220 -->
<g id="node1" class="node">
<title>0x1cf6220</title>
<polygon fill="lightgrey" stroke="black" points="507.5,-56 450.5,-56 450.5,-37 507.5,-37 507.5,-56"/>
<text text-anchor="middle" x="479" y="-44" font-family="Times,serif" font-size="10.00">dag.svg</text>
</g>
<!-- 0x1cf4f60 -->
<g id="node2" class="node">
<title>0x1cf4f60</title>
<polygon fill="lightgrey" stroke="black" points="331.5,-56 260.5,-56 260.5,-37 331.5,-37 331.5,-56"/>
<text text-anchor="middle" x="296" y="-44" font-family="Times,serif" font-size="10.00">build.ninja</text>
</g>
<!-- 0x1cf4f60&#45;&gt;0x1cf6220 -->
<g id="edge1" class="edge">
<title>0x1cf4f60&#45;&gt;0x1cf6220</title>
<path fill="none" stroke="black" d="M331.9,-46.5C362.55,-46.5 407.09,-46.5 438.92,-46.5"/>
<polygon fill="black" stroke="black" points="438.52,-50 448.52,-46.5 438.52,-43 438.52,-50"/>
<text text-anchor="middle" x="388" y="-49.5" font-family="Times,serif" font-size="10.00"> gengraph</text>
</g>
<!-- 0x1cf53c0 -->
<g id="node3" class="node">
<title>0x1cf53c0</title>
<ellipse fill="lightgrey" stroke="black" cx="169" cy="-46.5" rx="41.54" ry="13.5"/>
<text text-anchor="middle" x="169" y="-44" font-family="Times,serif" font-size="10.00">build.py</text>
</g>
<!-- 0x1cf53c0&#45;&gt;0x1cf4f60 -->
<g id="edge2" class="edge">
<title>0x1cf53c0&#45;&gt;0x1cf4f60</title>
<path fill="none" stroke="black" d="M210.93,-46.5C223.14,-46.5 236.6,-46.5 249.11,-46.5"/>
<polygon fill="black" stroke="black" points="248.75,-50 258.75,-46.5 248.75,-43 248.75,-50"/>
</g>
<!-- 0x1cf5470 -->
<g id="node4" class="node">
<title>0x1cf5470</title>
<polygon fill="lightgrey" stroke="black" points="74,-93 15,-93 15,-74 74,-74 74,-93"/>
<text text-anchor="middle" x="44.5" y="-81" font-family="Times,serif" font-size="10.00">build.py</text>
</g>
<!-- 0x1cf5470&#45;&gt;0x1cf53c0 -->
<g id="edge3" class="edge">
<title>0x1cf5470&#45;&gt;0x1cf53c0</title>
<path fill="none" stroke="black" d="M74.22,-74.83C93.31,-69.06 118.35,-61.5 137.75,-55.64"/>
</g>
<!-- 0x1cf5510 -->
<g id="node5" class="node">
<title>0x1cf5510</title>
<polygon fill="lightgrey" stroke="black" points="71.5,-56 17.5,-56 17.5,-37 71.5,-37 71.5,-56"/>
<text text-anchor="middle" x="44.5" y="-44" font-family="Times,serif" font-size="10.00">lib/x.py</text>
</g>
<!-- 0x1cf5510&#45;&gt;0x1cf53c0 -->
<g id="edge4" class="edge">
<title>0x1cf5510&#45;&gt;0x1cf53c0</title>
<path fill="none" stroke="black" d="M71.78,-46.5C87.95,-46.5 109.01,-46.5 127.3,-46.5"/>
</g>
<!-- 0x1cf55e0 -->
<g id="node6" class="node">
<title>0x1cf55e0</title>
<polygon fill="lightgrey" stroke="black" points="81.5,-19 7.5,-19 7.5,0 81.5,0 81.5,-19"/>
<text text-anchor="middle" x="44.5" y="-7" font-family="Times,serif" font-size="10.00">lib/graph.js</text>
</g>
<!-- 0x1cf55e0&#45;&gt;0x1cf53c0 -->
<g id="edge5" class="edge">
<title>0x1cf55e0&#45;&gt;0x1cf53c0</title>
<path fill="none" stroke="black" d="M78.33,-19.42C96.75,-24.98 119.59,-31.88 137.61,-37.32"/>
</g>
<!-- 0x1cf7100 -->
<g id="node7" class="node">
<title>0x1cf7100</title>
<polygon fill="lightgrey" stroke="black" points="695,-557 562,-557 562,-538 695,-538 695,-557"/>
<text text-anchor="middle" x="628.5" y="-545" font-family="Times,serif" font-size="10.00">img/period/asassn.png</text>
</g>
<!-- 0x1cf7020 -->
<g id="node8" class="node">
<title>0x1cf7020</title>
<ellipse fill="lightgrey" stroke="black" cx="479" cy="-513.5" rx="46" ry="13.5"/>
<text text-anchor="middle" x="479" y="-511" font-family="Times,serif" font-size="10.00">period.py</text>
</g>
<!-- 0x1cf7020&#45;&gt;0x1cf7100 -->
<g id="edge6" class="edge">
<title>0x1cf7020&#45;&gt;0x1cf7100</title>
<path fill="none" stroke="black" d="M516.08,-521.82C533.26,-525.78 554.18,-530.6 573.22,-534.99"/>
<polygon fill="black" stroke="black" points="572.17,-538.34 582.7,-537.17 573.74,-531.52 572.17,-538.34"/>
</g>
<!-- 0x1cf6ca0 -->
<g id="node9" class="node">
<title>0x1cf6ca0</title>
<polygon fill="lightgrey" stroke="black" points="675,-481 582,-481 582,-462 675,-462 675,-481"/>
<text text-anchor="middle" x="628.5" y="-469" font-family="Times,serif" font-size="10.00">dat/period.json</text>
</g>
<!-- 0x1cf7020&#45;&gt;0x1cf6ca0 -->
<g id="edge7" class="edge">
<title>0x1cf7020&#45;&gt;0x1cf6ca0</title>
<path fill="none" stroke="black" d="M513.1,-504.07C533.3,-498.32 559.42,-490.89 581.6,-484.57"/>
<polygon fill="black" stroke="black" points="582.34,-488 591,-481.89 580.42,-481.27 582.34,-488"/>
</g>
<!-- 0x1cf65e0 -->
<g id="node10" class="node">
<title>0x1cf65e0</title>
<ellipse fill="lightgrey" stroke="black" cx="786.5" cy="-258.5" rx="54.5" ry="13.5"/>
<text text-anchor="middle" x="786.5" y="-256" font-family="Times,serif" font-size="10.00">calibrate.py</text>
</g>
<!-- 0x1cf6ca0&#45;&gt;0x1cf65e0 -->
<g id="edge8" class="edge">
<title>0x1cf6ca0&#45;&gt;0x1cf65e0</title>
<path fill="none" stroke="black" d="M636.81,-461.51C662.18,-426.89 746.36,-311.94 775.48,-272.18"/>
</g>
<!-- 0x1cf7ed0 -->
<g id="node11" class="node">
<title>0x1cf7ed0</title>
<ellipse fill="lightgrey" stroke="black" cx="1136.5" cy="-358.5" rx="63" ry="13.5"/>
<text text-anchor="middle" x="1136.5" y="-356" font-family="Times,serif" font-size="10.00">lightcurves.py</text>
</g>
<!-- 0x1cf6ca0&#45;&gt;0x1cf7ed0 -->
<g id="edge9" class="edge">
<title>0x1cf6ca0&#45;&gt;0x1cf7ed0</title>
<path fill="none" stroke="black" d="M672.36,-481.47C752.26,-497.74 927.33,-522.27 1054,-459.5 1091.96,-440.69 1118.12,-395.04 1129.34,-372.11"/>
</g>
<!-- 0x1cf83f0 -->
<g id="node12" class="node">
<title>0x1cf83f0</title>
<ellipse fill="lightgrey" stroke="black" cx="786.5" cy="-361.5" rx="37.5" ry="13.5"/>
<text text-anchor="middle" x="786.5" y="-359" font-family="Times,serif" font-size="10.00">tess.py</text>
</g>
<!-- 0x1cf6ca0&#45;&gt;0x1cf83f0 -->
<g id="edge10" class="edge">
<title>0x1cf6ca0&#45;&gt;0x1cf83f0</title>
<path fill="none" stroke="black" d="M643.62,-461.54C672.27,-441.34 737.15,-395.6 768.25,-373.67"/>
</g>
<!-- 0x1cf88c0 -->
<g id="node13" class="node">
<title>0x1cf88c0</title>
<ellipse fill="lightgrey" stroke="black" cx="786.5" cy="-559.5" rx="47.5" ry="13.5"/>
<text text-anchor="middle" x="786.5" y="-557" font-family="Times,serif" font-size="10.00">asassn.py</text>
</g>
<!-- 0x1cf6ca0&#45;&gt;0x1cf88c0 -->
<g id="edge11" class="edge">
<title>0x1cf6ca0&#45;&gt;0x1cf88c0</title>
<path fill="none" stroke="black" d="M661.88,-481.46C672.68,-485.27 684.6,-490.04 695,-495.5 723.11,-510.26 752.58,-532.58 769.98,-546.58"/>
</g>
<!-- 0x1cf6670 -->
<g id="node14" class="node">
<title>0x1cf6670</title>
<polygon fill="lightgrey" stroke="black" points="988,-231 925,-231 925,-212 988,-212 988,-231"/>
<text text-anchor="middle" x="956.5" y="-219" font-family="Times,serif" font-size="10.00">dat/B.csv</text>
</g>
<!-- 0x1cf65e0&#45;&gt;0x1cf6670 -->
<g id="edge12" class="edge">
<title>0x1cf65e0&#45;&gt;0x1cf6670</title>
<path fill="none" stroke="black" d="M828.17,-249.54C854.05,-243.84 887.5,-236.48 913.62,-230.72"/>
<polygon fill="black" stroke="black" points="914.19,-234.18 923.2,-228.61 912.68,-227.35 914.19,-234.18"/>
</g>
<!-- 0x1cf6720 -->
<g id="node15" class="node">
<title>0x1cf6720</title>
<polygon fill="lightgrey" stroke="black" points="987,-342 926,-342 926,-323 987,-323 987,-342"/>
<text text-anchor="middle" x="956.5" y="-330" font-family="Times,serif" font-size="10.00">dat/V.csv</text>
</g>
<!-- 0x1cf65e0&#45;&gt;0x1cf6720 -->
<g id="edge13" class="edge">
<title>0x1cf65e0&#45;&gt;0x1cf6720</title>
<path fill="none" stroke="black" d="M804.61,-271.46C822.15,-284.17 850.67,-303.23 878,-314.5 889.52,-319.25 902.54,-322.89 914.57,-325.61"/>
<polygon fill="black" stroke="black" points="913.74,-329.01 924.24,-327.63 915.17,-322.16 913.74,-329.01"/>
</g>
<!-- 0x1cf67d0 -->
<g id="node16" class="node">
<title>0x1cf67d0</title>
<polygon fill="lightgrey" stroke="black" points="991.5,-305 921.5,-305 921.5,-286 991.5,-286 991.5,-305"/>
<text text-anchor="middle" x="956.5" y="-293" font-family="Times,serif" font-size="10.00">dat/SG.csv</text>
</g>
<!-- 0x1cf65e0&#45;&gt;0x1cf67d0 -->
<g id="edge14" class="edge">
<title>0x1cf65e0&#45;&gt;0x1cf67d0</title>
<path fill="none" stroke="black" d="M828.17,-267.46C852.95,-272.92 884.67,-279.9 910.25,-285.53"/>
<polygon fill="black" stroke="black" points="909.16,-288.88 919.68,-287.61 910.67,-282.04 909.16,-288.88"/>
</g>
<!-- 0x1cf6880 -->
<g id="node17" class="node">
<title>0x1cf6880</title>
<polygon fill="lightgrey" stroke="black" points="991.5,-268 921.5,-268 921.5,-249 991.5,-249 991.5,-268"/>
<text text-anchor="middle" x="956.5" y="-256" font-family="Times,serif" font-size="10.00">dat/SR.csv</text>
</g>
<!-- 0x1cf65e0&#45;&gt;0x1cf6880 -->
<g id="edge15" class="edge">
<title>0x1cf65e0&#45;&gt;0x1cf6880</title>
<path fill="none" stroke="black" d="M841.12,-258.5C863.24,-258.5 888.61,-258.5 909.82,-258.5"/>
<polygon fill="black" stroke="black" points="909.62,-262 919.62,-258.5 909.62,-255 909.62,-262"/>
</g>
<!-- 0x1cf6930 -->
<g id="node18" class="node">
<title>0x1cf6930</title>
<polygon fill="lightgrey" stroke="black" points="989.5,-194 923.5,-194 923.5,-175 989.5,-175 989.5,-194"/>
<text text-anchor="middle" x="956.5" y="-182" font-family="Times,serif" font-size="10.00">dat/SI.csv</text>
</g>
<!-- 0x1cf65e0&#45;&gt;0x1cf6930 -->
<g id="edge16" class="edge">
<title>0x1cf65e0&#45;&gt;0x1cf6930</title>
<path fill="none" stroke="black" d="M804.61,-245.54C822.15,-232.83 850.67,-213.77 878,-202.5 888.73,-198.08 900.76,-194.62 912.08,-191.97"/>
<polygon fill="black" stroke="black" points="912.59,-195.44 921.62,-189.9 911.1,-188.6 912.59,-195.44"/>
</g>
<!-- 0x1cf7f60 -->
<g id="node19" class="node">
<title>0x1cf7f60</title>
<polygon fill="lightgrey" stroke="black" points="1372,-368 1238,-368 1238,-349 1372,-349 1372,-368"/>
<text text-anchor="middle" x="1305" y="-356" font-family="Times,serif" font-size="10.00">img/lightcurves/all.png</text>
</g>
<!-- 0x1cf7ed0&#45;&gt;0x1cf7f60 -->
<g id="edge17" class="edge">
<title>0x1cf7ed0&#45;&gt;0x1cf7f60</title>
<path fill="none" stroke="black" d="M1199.97,-358.5C1208.51,-358.5 1217.35,-358.5 1226.11,-358.5"/>
<polygon fill="black" stroke="black" points="1226.04,-362 1236.04,-358.5 1226.04,-355 1226.04,-362"/>
</g>
<!-- 0x1cf8480 -->
<g id="node20" class="node">
<title>0x1cf8480</title>
<polygon fill="lightgrey" stroke="black" points="1028,-379 885,-379 885,-360 1028,-360 1028,-379"/>
<text text-anchor="middle" x="956.5" y="-367" font-family="Times,serif" font-size="10.00">img/lightcurves/tess.png</text>
</g>
<!-- 0x1cf83f0&#45;&gt;0x1cf8480 -->
<g id="edge18" class="edge">
<title>0x1cf83f0&#45;&gt;0x1cf8480</title>
<path fill="none" stroke="black" d="M823.95,-363.24C838.52,-363.93 855.93,-364.76 873.24,-365.58"/>
<polygon fill="black" stroke="black" points="872.91,-369.07 883.06,-366.05 873.24,-362.08 872.91,-369.07"/>
</g>
<!-- 0x1cf89e0 -->
<g id="node21" class="node">
<title>0x1cf89e0</title>
<polygon fill="lightgrey" stroke="black" points="1035,-569 878,-569 878,-550 1035,-550 1035,-569"/>
<text text-anchor="middle" x="956.5" y="-557" font-family="Times,serif" font-size="10.00">img/lightcurves/asassn.png</text>
</g>
<!-- 0x1cf88c0&#45;&gt;0x1cf89e0 -->
<g id="edge19" class="edge">
<title>0x1cf88c0&#45;&gt;0x1cf89e0</title>
<path fill="none" stroke="black" d="M834.3,-559.5C844.31,-559.5 855.21,-559.5 866.24,-559.5"/>
<polygon fill="black" stroke="black" points="866.22,-563 876.22,-559.5 866.22,-556 866.22,-563"/>
</g>
<!-- 0x1cf6670&#45;&gt;0x1cf7ed0 -->
<g id="edge20" class="edge">
<title>0x1cf6670&#45;&gt;0x1cf7ed0</title>
<path fill="none" stroke="black" d="M988.15,-223.03C1003.44,-225.1 1021.49,-229.66 1035,-239.5 1047.57,-248.65 1043.66,-257.06 1053,-269.5 1074.63,-298.31 1104.17,-328.34 1121.41,-345.11"/>
</g>
<!-- 0x1cf76f0 -->
<g id="node22" class="node">
<title>0x1cf76f0</title>
<ellipse fill="lightgrey" stroke="black" cx="1136.5" cy="-183.5" rx="64.5" ry="13.5"/>
<text text-anchor="middle" x="1136.5" y="-181" font-family="Times,serif" font-size="10.00">color_index.py</text>
</g>
<!-- 0x1cf6670&#45;&gt;0x1cf76f0 -->
<g id="edge21" class="edge">
<title>0x1cf6670&#45;&gt;0x1cf76f0</title>
<path fill="none" stroke="black" d="M988.48,-214.13C1002.68,-210.7 1019.72,-206.49 1035,-202.5 1043.03,-200.4 1044.9,-199.31 1053,-197.5 1062.78,-195.32 1073.29,-193.29 1083.41,-191.5"/>
</g>
<!-- 0x1cf6720&#45;&gt;0x1cf7ed0 -->
<g id="edge22" class="edge">
<title>0x1cf6720&#45;&gt;0x1cf7ed0</title>
<path fill="none" stroke="black" d="M987.24,-335.92C1002.28,-338.58 1020.39,-343.27 1035,-351.5 1044.86,-357.05 1042.55,-365.17 1053,-369.5 1068.75,-376.02 1087.51,-374.2 1103.16,-370.33"/>
</g>
<!-- 0x1cf6720&#45;&gt;0x1cf76f0 -->
<g id="edge23" class="edge">
<title>0x1cf6720&#45;&gt;0x1cf76f0</title>
<path fill="none" stroke="black" d="M987.33,-330.37C1002.57,-328.14 1020.83,-323.63 1035,-314.5 1081.99,-284.23 1115.71,-224.07 1129.1,-197.11"/>
</g>
<!-- 0x1cf67d0&#45;&gt;0x1cf7ed0 -->
<g id="edge24" class="edge">
<title>0x1cf67d0&#45;&gt;0x1cf7ed0</title>
<path fill="none" stroke="black" d="M991.82,-302.57C1005.41,-305.72 1021.09,-309.79 1035,-314.5 1061.16,-323.36 1089.93,-336.3 1109.96,-345.85"/>
</g>
<!-- 0x1cf67d0&#45;&gt;0x1cf76f0 -->
<g id="edge25" class="edge">
<title>0x1cf67d0&#45;&gt;0x1cf76f0</title>
<path fill="none" stroke="black" d="M991.67,-291.52C1005.69,-288.9 1021.72,-284.59 1035,-277.5 1073.57,-256.92 1108.35,-217.73 1125.05,-197.05"/>
</g>
<!-- 0x1cf6880&#45;&gt;0x1cf7ed0 -->
<g id="edge26" class="edge">
<title>0x1cf6880&#45;&gt;0x1cf7ed0</title>
<path fill="none" stroke="black" d="M991.7,-262.96C1005.72,-265.76 1021.74,-270.28 1035,-277.5 1044.66,-282.76 1044.64,-287.34 1053,-294.5 1074.48,-312.9 1100.41,-332.64 1117.4,-345.25"/>
</g>
<!-- 0x1cf6880&#45;&gt;0x1cf76f0 -->
<g id="edge27" class="edge">
<title>0x1cf6880&#45;&gt;0x1cf76f0</title>
<path fill="none" stroke="black" d="M991.7,-254.04C1005.72,-251.24 1021.74,-246.72 1035,-239.5 1044.66,-234.24 1043.91,-228.71 1053,-222.5 1068.83,-211.69 1088.13,-202.38 1104.08,-195.58"/>
</g>
<!-- 0x1cf6930&#45;&gt;0x1cf7ed0 -->
<g id="edge28" class="edge">
<title>0x1cf6930&#45;&gt;0x1cf7ed0</title>
<path fill="none" stroke="black" d="M989.93,-186.49C1004.76,-188.72 1021.9,-193.28 1035,-202.5 1087.69,-239.59 1119.39,-313.94 1130.74,-344.7"/>
</g>
<!-- 0x1cf6930&#45;&gt;0x1cf76f0 -->
<g id="edge29" class="edge">
<title>0x1cf6930&#45;&gt;0x1cf76f0</title>
<path fill="none" stroke="black" d="M989.58,-177.41C1008.31,-174.05 1032.44,-171.05 1054,-172.5 1063.69,-173.15 1073.98,-174.23 1083.87,-175.47"/>
</g>
<!-- 0x1cf7780 -->
<g id="node26" class="node">
<title>0x1cf7780</title>
<polygon fill="lightgrey" stroke="black" points="1365.5,-193 1244.5,-193 1244.5,-174 1365.5,-174 1365.5,-193"/>
<text text-anchor="middle" x="1305" y="-181" font-family="Times,serif" font-size="10.00">img/color_index.png</text>
</g>
<!-- 0x1cf76f0&#45;&gt;0x1cf7780 -->
<g id="edge38" class="edge">
<title>0x1cf76f0&#45;&gt;0x1cf7780</title>
<path fill="none" stroke="black" d="M1201.4,-183.5C1211.7,-183.5 1222.42,-183.5 1232.89,-183.5"/>
<polygon fill="black" stroke="black" points="1232.59,-187 1242.59,-183.5 1232.59,-180 1232.59,-187"/>
</g>
<!-- 0x1cf5b70 -->
<g id="node23" class="node">
<title>0x1cf5b70</title>
<polygon fill="lightgrey" stroke="black" points="89,-386 0,-386 0,-367 89,-367 89,-386"/>
<text text-anchor="middle" x="44.5" y="-374" font-family="Times,serif" font-size="10.00">dat/config.yml</text>
</g>
<!-- 0x1cf5b70&#45;&gt;0x1cf7020 -->
<g id="edge30" class="edge">
<title>0x1cf5b70&#45;&gt;0x1cf7020</title>
<path fill="none" stroke="black" d="M47.69,-386.19C53.25,-408.24 70.14,-462.07 107,-485.5 159.95,-519.15 346.15,-517.86 432.9,-515.27"/>
</g>
<!-- 0x1cf5b70&#45;&gt;0x1cf65e0 -->
<g id="edge31" class="edge">
<title>0x1cf5b70&#45;&gt;0x1cf65e0</title>
<path fill="none" stroke="black" d="M46.01,-366.62C48.88,-322.59 66.66,-146.5 168,-146.5 168,-146.5 168,-146.5 629.5,-146.5 696.18,-146.5 753.89,-214.86 775.94,-244.77"/>
</g>
<!-- 0x1cf5b70&#45;&gt;0x1cf7ed0 -->
<g id="edge32" class="edge">
<title>0x1cf5b70&#45;&gt;0x1cf7ed0</title>
<path fill="none" stroke="black" d="M51.58,-386.31C67.46,-410.58 112.83,-471.5 168,-471.5 168,-471.5 168,-471.5 389,-471.5 466.3,-471.5 485.08,-461.16 562,-453.5 772.13,-432.57 831.95,-466.5 1035,-408.5 1064.23,-400.15 1095.16,-383.41 1114.86,-371.61"/>
</g>
<!-- 0x1cf5b70&#45;&gt;0x1cf83f0 -->
<g id="edge33" class="edge">
<title>0x1cf5b70&#45;&gt;0x1cf83f0</title>
<path fill="none" stroke="black" d="M51.58,-366.69C67.46,-342.42 112.83,-281.5 168,-281.5 168,-281.5 168,-281.5 544,-281.5 630.13,-281.5 725.17,-327.92 765.57,-350.04"/>
</g>
<!-- 0x1cf5b70&#45;&gt;0x1cf88c0 -->
<g id="edge34" class="edge">
<title>0x1cf5b70&#45;&gt;0x1cf88c0</title>
<path fill="none" stroke="black" d="M45.72,-386.49C47.29,-432.7 60.3,-623.5 168,-623.5 168,-623.5 168,-623.5 629.5,-623.5 683.07,-623.5 739.77,-590.8 767.75,-572.14"/>
</g>
<!-- 0x1cf5b70&#45;&gt;0x1cf76f0 -->
<g id="edge36" class="edge">
<title>0x1cf5b70&#45;&gt;0x1cf76f0</title>
<path fill="none" stroke="black" d="M45.39,-366.64C45.4,-318.29 52.13,-108.5 168,-108.5 168,-108.5 168,-108.5 957.5,-108.5 1020.38,-108.5 1086.64,-148.73 1117.59,-170.26"/>
</g>
<!-- 0x1cf5960 -->
<g id="node24" class="node">
<title>0x1cf5960</title>
<ellipse fill="lightgrey" stroke="black" cx="169" cy="-376.5" rx="43" ry="13.5"/>
<text text-anchor="middle" x="169" y="-374" font-family="Times,serif" font-size="10.00">query.py</text>
</g>
<!-- 0x1cf5b70&#45;&gt;0x1cf5960 -->
<g id="edge35" class="edge">
<title>0x1cf5b70&#45;&gt;0x1cf5960</title>
<path fill="none" stroke="black" d="M89.38,-376.5C101.19,-376.5 113.93,-376.5 125.66,-376.5"/>
</g>
<!-- 0x1cf59f0 -->
<g id="node25" class="node">
<title>0x1cf59f0</title>
<polygon fill="lightgrey" stroke="black" points="343,-386 249,-386 249,-367 343,-367 343,-386"/>
<text text-anchor="middle" x="296" y="-374" font-family="Times,serif" font-size="10.00">dat/known.json</text>
</g>
<!-- 0x1cf5960&#45;&gt;0x1cf59f0 -->
<g id="edge37" class="edge">
<title>0x1cf5960&#45;&gt;0x1cf59f0</title>
<path fill="none" stroke="black" d="M212.32,-376.5C220.4,-376.5 228.99,-376.5 237.46,-376.5"/>
<polygon fill="black" stroke="black" points="237.35,-380 247.35,-376.5 237.35,-373 237.35,-380"/>
</g>
<!-- 0x1cf59f0&#45;&gt;0x1cf7020 -->
<g id="edge39" class="edge">
<title>0x1cf59f0&#45;&gt;0x1cf7020</title>
<path fill="none" stroke="black" d="M307.55,-386.4C319.99,-397.9 341.44,-417.25 361,-432.5 394.12,-458.32 434.85,-485.57 458.47,-500.96"/>
</g>
<!-- 0x1cf59f0&#45;&gt;0x1cf65e0 -->
<g id="edge40" class="edge">
<title>0x1cf59f0&#45;&gt;0x1cf65e0</title>
<path fill="none" stroke="black" d="M338.23,-366.54C431.04,-344.12 655.36,-289.94 746.26,-267.98"/>
</g>
<!-- 0x1cf59f0&#45;&gt;0x1cf7ed0 -->
<g id="edge41" class="edge">
<title>0x1cf59f0&#45;&gt;0x1cf7ed0</title>
<path fill="none" stroke="black" d="M343.46,-381.89C460.27,-394.44 775.43,-422.08 1035,-388.5 1059.02,-385.39 1085.21,-377.42 1104.83,-370.47"/>
</g>
<!-- 0x1cf59f0&#45;&gt;0x1cf83f0 -->
<g id="edge42" class="edge">
<title>0x1cf59f0&#45;&gt;0x1cf83f0</title>
<path fill="none" stroke="black" d="M343.4,-375.08C440.09,-372.11 661.43,-365.31 748.93,-362.62"/>
</g>
<!-- 0x1cf59f0&#45;&gt;0x1cf88c0 -->
<g id="edge43" class="edge">
<title>0x1cf59f0&#45;&gt;0x1cf88c0</title>
<path fill="none" stroke="black" d="M316.75,-386.44C329.33,-392.68 346.02,-400.78 361,-407.5 449.2,-447.03 470.83,-458.41 562,-490.5 620.11,-510.95 636.2,-511.14 695,-529.5 715.07,-535.77 737.5,-543.2 755.01,-549.1"/>
</g>
<!-- 0x1cf59f0&#45;&gt;0x1cf76f0 -->
<g id="edge44" class="edge">
<title>0x1cf59f0&#45;&gt;0x1cf76f0</title>
<path fill="none" stroke="black" d="M310.27,-366.69C347.71,-339.5 458.22,-262.7 562,-224.5 760.81,-151.32 823.8,-148.93 1035,-165.5 1053.55,-166.96 1073.8,-170.25 1091.22,-173.62"/>
</g>
<!-- 0x1cf7250 -->
<g id="node27" class="node">
<title>0x1cf7250</title>
<polygon fill="lightgrey" stroke="black" points="341,-577 251,-577 251,-558 341,-558 341,-577"/>
<text text-anchor="middle" x="296" y="-565" font-family="Times,serif" font-size="10.00">dat/asassn.csv</text>
</g>
<!-- 0x1cf7250&#45;&gt;0x1cf7020 -->
<g id="edge45" class="edge">
<title>0x1cf7250&#45;&gt;0x1cf7020</title>
<path fill="none" stroke="black" d="M330.2,-557.6C363.06,-547.79 413.05,-532.88 445.62,-523.16"/>
</g>
<!-- 0x1cf7250&#45;&gt;0x1cf88c0 -->
<g id="edge46" class="edge">
<title>0x1cf7250&#45;&gt;0x1cf88c0</title>
<path fill="none" stroke="black" d="M341.49,-568.47C415.08,-569.83 566.75,-571.61 695,-566.5 709.96,-565.9 726.28,-564.79 740.89,-563.62"/>
</g>
<!-- 0x1cf6c00 -->
<g id="node28" class="node">
<title>0x1cf6c00</title>
<polygon fill="lightgrey" stroke="black" points="671,-253 586,-253 586,-234 671,-234 671,-253"/>
<text text-anchor="middle" x="628.5" y="-241" font-family="Times,serif" font-size="10.00">dat/stars.json</text>
</g>
<!-- 0x1cf6c00&#45;&gt;0x1cf65e0 -->
<g id="edge47" class="edge">
<title>0x1cf6c00&#45;&gt;0x1cf65e0</title>
<path fill="none" stroke="black" d="M671.31,-247.52C690.89,-249.4 714.39,-251.66 734.96,-253.64"/>
</g>
</g>
<script><![CDATA[
function child(el, tag) {
    for (c of el.children)
        if (c.tagName == tag)
            return c;
}
function colorNode(node, reset=false) {
    const container = child(node, "polygon") || child(node, "ellipse");
    const color = reset ? "black" : "#f00";
    container.style.stroke = color;
}
function colorEdge(edge, reset=false) {
    const path = child(edge, "path");
    const polygon = child(edge, "polygon");
    const color = reset ? "black" : "#f00";
    path.style.stroke = color;
    if (polygon) {
        polygon.style.fill = color;
        polygon.style.stroke = color;
    }
}
function connectedEdges(node) {
    const nodeTitle = child(node, "title").textContent;
    const ret = [];
    for (const edge of document.querySelectorAll('.edge')) {
        const edgeTitle = child(edge, "title").textContent;
        if (edgeTitle.includes(nodeTitle))
            ret.push(edge);
    }
    return ret;
}
function highlight(ev) {
    const el = ev.target;
    if (el.className.baseVal != "node")
        return;
    colorNode(el);
    for (const edge of connectedEdges(el))
        colorEdge(edge);
}
function unhighlight() {
    for (const el of document.querySelectorAll("g")) {
        if (el.className.baseVal == "node") {
            colorNode(el, reset=true);
        } else if (el.className.baseVal == "edge") {
            colorEdge(el, reset=true);
        }
    }
}
for (const el of document.querySelectorAll("g")) {
    el.onmouseenter = highlight;
    el.onmouseleave = unhighlight;
}
]]></script></svg>
