<svg xmlns="http://www.w3.org/2000/svg" width="1418pt" height="729pt" viewBox="0.00 0.00 1418.00 729.49">
<g id="graph0" class="graph" transform="scale(1 1) rotate(0) translate(4 725.49)">
<polygon fill="white" stroke="transparent" points="-4,4 -4,-725.49 1414,-725.49 1414,4 -4,4" />

<g id="node1" class="node" x-title="0x560099a8c240">
<polygon fill="lightgrey" stroke="black" points="979.5,-654.92 922.5,-654.92 922.5,-635.92 979.5,-635.92 979.5,-654.92" />
<text text-anchor="middle" x="951" y="-642.92" font-family="Times,serif" font-size="10.00">dag.svg</text>
</g>

<g id="node2" class="node" x-title="0x560099a8c1b0">
<ellipse fill="lightgrey" stroke="black" cx="794.5" cy="-645.42" rx="69.5" ry="13.5" />
<text text-anchor="middle" x="794.5" y="-642.92" font-family="Times,serif" font-size="10.00">lib.gengraph.py</text>
</g>

<g id="edge1" class="edge" x-title="0x560099a8c1b0-&gt;0x560099a8c240">
<path fill="none" stroke="black" d="M864.17,-645.42C880.64,-645.42 897.64,-645.42 912.12,-645.42" />
<polygon fill="black" stroke="black" points="912.17,-648.92 922.17,-645.42 912.17,-641.92 912.17,-648.92" />
</g>

<g id="node3" class="node" x-title="0x560099a8c340">
<polygon fill="lightgrey" stroke="black" points="658,-691.92 587,-691.92 587,-672.92 658,-672.92 658,-691.92" />
<text text-anchor="middle" x="622.5" y="-679.92" font-family="Times,serif" font-size="10.00">build.ninja</text>
</g>

<g id="edge2" class="edge" x-title="0x560099a8c340-&gt;0x560099a8c1b0">
<path fill="none" stroke="black" d="M658.31,-674.85C684.05,-669.25 719.36,-661.56 747.44,-655.45" />
</g>

<g id="node4" class="node" x-title="0x560099a8c400">
<polygon fill="lightgrey" stroke="black" points="659.5,-654.92 585.5,-654.92 585.5,-635.92 659.5,-635.92 659.5,-654.92" />
<text text-anchor="middle" x="622.5" y="-642.92" font-family="Times,serif" font-size="10.00">lib/graph.js</text>
</g>

<g id="edge3" class="edge" x-title="0x560099a8c400-&gt;0x560099a8c1b0">
<path fill="none" stroke="black" d="M659.55,-645.42C678.56,-645.42 702.52,-645.42 724.9,-645.42" />
</g>

<g id="node5" class="node" x-title="0x560099a8c4c0">
<polygon fill="lightgrey" stroke="black" points="671.5,-617.92 573.5,-617.92 573.5,-598.92 671.5,-598.92 671.5,-617.92" />
<text text-anchor="middle" x="622.5" y="-605.92" font-family="Times,serif" font-size="10.00">lib/gengraph.py</text>
</g>

<g id="edge4" class="edge" x-title="0x560099a8c4c0-&gt;0x560099a8c1b0">
<path fill="none" stroke="black" d="M667.28,-617.95C691.87,-623.31 722.54,-629.98 747.49,-635.41" />
</g>

<g id="node6" class="node" x-title="0x560099a8c950">
<ellipse fill="lightgrey" stroke="black" cx="461.5" cy="-645.42" rx="46" ry="13.5" />
<text text-anchor="middle" x="461.5" y="-642.92" font-family="Times,serif" font-size="10.00">..build.py</text>
</g>

<g id="edge5" class="edge" x-title="0x560099a8c950-&gt;0x560099a8c340">
<path fill="none" stroke="black" d="M498.18,-653.73C521.44,-659.14 551.97,-666.24 576.84,-672.03" />
<polygon fill="black" stroke="black" points="576.22,-675.48 586.76,-674.34 577.81,-668.66 576.22,-675.48" />
</g>

<g id="node7" class="node" x-title="0x560099a8c9c0">
<polygon fill="lightgrey" stroke="black" points="347,-692.92 293,-692.92 293,-673.92 347,-673.92 347,-692.92" />
<text text-anchor="middle" x="320" y="-680.92" font-family="Times,serif" font-size="10.00">lib/x.py</text>
</g>

<g id="edge6" class="edge" x-title="0x560099a8c9c0-&gt;0x560099a8c950">
<path fill="none" stroke="black" d="M347.24,-676.28C369.89,-670.11 402.74,-661.16 427.23,-654.49" />
</g>

<g id="node8" class="node" x-title="0x560099a8ca80">
<polygon fill="lightgrey" stroke="black" points="89,-278.92 0,-278.92 0,-259.92 89,-259.92 89,-278.92" />
<text text-anchor="middle" x="44.5" y="-266.92" font-family="Times,serif" font-size="10.00">dat/config.yml</text>
</g>

<g id="edge7" class="edge" x-title="0x560099a8ca80-&gt;0x560099a8c950">
<path fill="none" stroke="black" d="M46.66,-279.15C52.57,-327.06 80.76,-537.62 125,-583.42 202.98,-664.16 349.35,-659.34 420.13,-651.39" />
</g>

<g id="node9" class="node" x-title="0x560099a8c110">
<ellipse fill="lightgrey" stroke="black" cx="181" cy="-276.42" rx="56" ry="13.5" />
<text text-anchor="middle" x="181" y="-273.92" font-family="Times,serif" font-size="10.00">src.query.py</text>
</g>

<g id="edge8" class="edge" x-title="0x560099a8ca80-&gt;0x560099a8c110">
<path fill="none" stroke="black" d="M89.17,-271.7C100.98,-272.31 113.9,-272.98 126.2,-273.62" />
</g>

<g id="node10" class="node" x-title="0x560099a8e160">
<ellipse fill="lightgrey" stroke="black" cx="461.5" cy="-224.42" rx="58.5" ry="13.5" />
<text text-anchor="middle" x="461.5" y="-221.92" font-family="Times,serif" font-size="10.00">src.period.py</text>
</g>

<g id="edge9" class="edge" x-title="0x560099a8ca80-&gt;0x560099a8e160">
<path fill="none" stroke="black" d="M88.26,-259.9C100.11,-257.51 113.01,-255.14 125,-253.42 222.66,-239.42 337.35,-231.28 404.18,-227.35" />
</g>

<g id="node11" class="node" x-title="0x560099a8e700">
<ellipse fill="lightgrey" stroke="black" cx="1115" cy="-472.42" rx="77" ry="13.5" />
<text text-anchor="middle" x="1115" y="-469.92" font-family="Times,serif" font-size="10.00">src.color_index.py</text>
</g>

<g id="edge10" class="edge" x-title="0x560099a8ca80-&gt;0x560099a8e700">
<path fill="none" stroke="black" d="M46.56,-279.25C52.26,-330.72 80.75,-569.14 125,-626.42 183.69,-702.4 222.99,-721.42 319,-721.42 319,-721.42 319,-721.42 795.5,-721.42 890.71,-721.42 926.55,-722.5 1002,-664.42 1064.99,-615.93 1099.13,-521.16 1110.06,-485.99" />
</g>

<g id="node12" class="node" x-title="0x560099a8d460">
<ellipse fill="lightgrey" stroke="black" cx="794.5" cy="-417.42" rx="67" ry="13.5" />
<text text-anchor="middle" x="794.5" y="-414.92" font-family="Times,serif" font-size="10.00">src.calibrate.py</text>
</g>

<g id="edge11" class="edge" x-title="0x560099a8ca80-&gt;0x560099a8d460">
<path fill="none" stroke="black" d="M58.49,-279.21C91.97,-303.87 184.78,-368.73 273,-398.42 448.96,-457.65 504.09,-453.1 689,-436.42 708.83,-434.64 730.53,-430.98 748.99,-427.34" />
</g>

<g id="node13" class="node" x-title="0x560099a8f060">
<ellipse fill="lightgrey" stroke="black" cx="1115" cy="-286.42" rx="75.5" ry="13.5" />
<text text-anchor="middle" x="1115" y="-283.92" font-family="Times,serif" font-size="10.00">src.lightcurves.py</text>
</g>

<g id="edge12" class="edge" x-title="0x560099a8ca80-&gt;0x560099a8f060">
<path fill="none" stroke="black" d="M45.86,-259.66C47.71,-224.98 58.79,-106.66 125,-47.42 191.04,11.66 230.39,-1.42 319,-1.42 319,-1.42 319,-1.42 795.5,-1.42 896.9,-1.42 926.87,-30.33 1002,-98.42 1059.43,-150.47 1096.45,-238.95 1109.12,-272.75" />
</g>

<g id="node14" class="node" x-title="0x560099a90500">
<ellipse fill="lightgrey" stroke="black" cx="794.5" cy="-187.42" rx="50" ry="13.5" />
<text text-anchor="middle" x="794.5" y="-184.92" font-family="Times,serif" font-size="10.00">src.tess.py</text>
</g>

<g id="edge13" class="edge" x-title="0x560099a8ca80-&gt;0x560099a90500">
<path fill="none" stroke="black" d="M54.38,-259.79C86.46,-226.08 200.75,-115.42 319,-115.42 319,-115.42 319,-115.42 462.5,-115.42 576.3,-115.42 707.17,-156.56 764.29,-176.65" />
</g>

<g id="node15" class="node" x-title="0x560099a90490">
<ellipse fill="lightgrey" stroke="black" cx="794.5" cy="-129.42" rx="60" ry="13.5" />
<text text-anchor="middle" x="794.5" y="-126.92" font-family="Times,serif" font-size="10.00">src.asassn.py</text>
</g>

<g id="edge14" class="edge" x-title="0x560099a8ca80-&gt;0x560099a90490">
<path fill="none" stroke="black" d="M48.54,-259.88C56.88,-235.04 82.4,-167.62 125,-128.42 194.81,-64.2 224.14,-39.42 319,-39.42 319,-39.42 319,-39.42 462.5,-39.42 579.82,-39.42 712.59,-92.72 767.55,-117.29" />
</g>

<g id="node16" class="node" x-title="0x560099a8cb40">
<polygon fill="lightgrey" stroke="black" points="367,-304.92 273,-304.92 273,-285.92 367,-285.92 367,-304.92" />
<text text-anchor="middle" x="320" y="-292.92" font-family="Times,serif" font-size="10.00">dat/known.json</text>
</g>

<g id="edge15" class="edge" x-title="0x560099a8c110-&gt;0x560099a8cb40">
<path fill="none" stroke="black" d="M229.92,-283.07C240.44,-284.53 251.68,-286.09 262.51,-287.59" />
<polygon fill="black" stroke="black" points="262.34,-291.1 272.73,-289.01 263.3,-284.17 262.34,-291.1" />
</g>

<g id="node17" class="node" x-title="0x560099a8e220">
<polygon fill="lightgrey" stroke="black" points="689,-200.92 556,-200.92 556,-181.92 689,-181.92 689,-200.92" />
<text text-anchor="middle" x="622.5" y="-188.92" font-family="Times,serif" font-size="10.00">img/period/asassn.png</text>
</g>

<g id="edge16" class="edge" x-title="0x560099a8e160-&gt;0x560099a8e220">
<path fill="none" stroke="black" d="M505.53,-215.49C524.1,-211.64 546.05,-207.08 565.84,-202.98" />
<polygon fill="black" stroke="black" points="566.57,-206.4 575.65,-200.94 565.15,-199.55 566.57,-206.4" />
</g>

<g id="node18" class="node" x-title="0x560099a8dce0">
<polygon fill="lightgrey" stroke="black" points="669,-237.92 576,-237.92 576,-218.92 669,-218.92 669,-237.92" />
<text text-anchor="middle" x="622.5" y="-225.92" font-family="Times,serif" font-size="10.00">dat/period.json</text>
</g>

<g id="edge17" class="edge" x-title="0x560099a8e160-&gt;0x560099a8dce0">
<path fill="none" stroke="black" d="M519.9,-225.87C534.86,-226.25 550.96,-226.65 565.83,-227.02" />
<polygon fill="black" stroke="black" points="565.81,-230.52 575.9,-227.28 565.99,-223.53 565.81,-230.52" />
</g>

<g id="node19" class="node" x-title="0x560099a8eb60">
<polygon fill="lightgrey" stroke="black" points="1379.5,-481.92 1258.5,-481.92 1258.5,-462.92 1379.5,-462.92 1379.5,-481.92" />
<text text-anchor="middle" x="1319" y="-469.92" font-family="Times,serif" font-size="10.00">img/color_index.png</text>
</g>

<g id="edge18" class="edge" x-title="0x560099a8e700-&gt;0x560099a8eb60">
<path fill="none" stroke="black" d="M1192.08,-472.42C1210.49,-472.42 1230.08,-472.42 1248.18,-472.42" />
<polygon fill="black" stroke="black" points="1248.36,-475.92 1258.36,-472.42 1248.36,-468.92 1248.36,-475.92" />
</g>

<g id="node20" class="node" x-title="0x560099a8d840">
<polygon fill="lightgrey" stroke="black" points="982.5,-352.92 919.5,-352.92 919.5,-333.92 982.5,-333.92 982.5,-352.92" />
<text text-anchor="middle" x="951" y="-340.92" font-family="Times,serif" font-size="10.00">dat/B.csv</text>
</g>

<g id="edge19" class="edge" x-title="0x560099a8d460-&gt;0x560099a8d840">
<path fill="none" stroke="black" d="M817.05,-404.67C837.86,-392.65 870.48,-374.56 900,-361.42 903.69,-359.78 907.58,-358.18 911.49,-356.64" />
<polygon fill="black" stroke="black" points="913.04,-359.8 921.16,-352.99 910.57,-353.25 913.04,-359.8" />
</g>

<g id="node21" class="node" x-title="0x560099a8d8e0">
<polygon fill="lightgrey" stroke="black" points="981.5,-500.92 920.5,-500.92 920.5,-481.92 981.5,-481.92 981.5,-500.92" />
<text text-anchor="middle" x="951" y="-488.92" font-family="Times,serif" font-size="10.00">dat/V.csv</text>
</g>

<g id="edge20" class="edge" x-title="0x560099a8d460-&gt;0x560099a8d8e0">
<path fill="none" stroke="black" d="M817.94,-430.25C838.83,-441.95 871.03,-459.36 900,-472.42 904.37,-474.4 909.02,-476.35 913.64,-478.2" />
<polygon fill="black" stroke="black" points="912.44,-481.49 923.03,-481.86 914.98,-474.97 912.44,-481.49" />
</g>

<g id="node22" class="node" x-title="0x560099a8d980">
<polygon fill="lightgrey" stroke="black" points="986,-463.92 916,-463.92 916,-444.92 986,-444.92 986,-463.92" />
<text text-anchor="middle" x="951" y="-451.92" font-family="Times,serif" font-size="10.00">dat/SG.csv</text>
</g>

<g id="edge21" class="edge" x-title="0x560099a8d460-&gt;0x560099a8d980">
<path fill="none" stroke="black" d="M838.54,-427.73C859.66,-432.79 885.05,-438.87 906.27,-443.95" />
<polygon fill="black" stroke="black" points="905.46,-447.36 916,-446.28 907.09,-440.55 905.46,-447.36" />
</g>

<g id="node23" class="node" x-title="0x560099a8da20">
<polygon fill="lightgrey" stroke="black" points="986,-426.92 916,-426.92 916,-407.92 986,-407.92 986,-426.92" />
<text text-anchor="middle" x="951" y="-414.92" font-family="Times,serif" font-size="10.00">dat/SR.csv</text>
</g>

<g id="edge22" class="edge" x-title="0x560099a8d460-&gt;0x560099a8da20">
<path fill="none" stroke="black" d="M861.92,-417.42C876.78,-417.42 892.18,-417.42 905.88,-417.42" />
<polygon fill="black" stroke="black" points="905.97,-420.92 915.97,-417.42 905.97,-413.92 905.97,-420.92" />
</g>

<g id="node24" class="node" x-title="0x560099a8dac0">
<polygon fill="lightgrey" stroke="black" points="984,-389.92 918,-389.92 918,-370.92 984,-370.92 984,-389.92" />
<text text-anchor="middle" x="951" y="-377.92" font-family="Times,serif" font-size="10.00">dat/SI.csv</text>
</g>

<g id="edge23" class="edge" x-title="0x560099a8d460-&gt;0x560099a8dac0">
<path fill="none" stroke="black" d="M838.54,-407.12C860.27,-401.91 886.54,-395.62 908.11,-390.46" />
<polygon fill="black" stroke="black" points="909.06,-393.83 917.97,-388.09 907.43,-387.02 909.06,-393.83" />
</g>

<g id="node25" class="node" x-title="0x560099a8f790">
<polygon fill="lightgrey" stroke="black" points="1386,-406.92 1252,-406.92 1252,-387.92 1386,-387.92 1386,-406.92" />
<text text-anchor="middle" x="1319" y="-394.92" font-family="Times,serif" font-size="10.00">img/lightcurves/all.png</text>
</g>

<g id="edge24" class="edge" x-title="0x560099a8f060-&gt;0x560099a8f790">
<path fill="none" stroke="black" d="M1128,-299.74C1147.1,-320.04 1186.49,-358.48 1228,-378.42 1233.04,-380.85 1238.38,-382.96 1243.85,-384.8" />
<polygon fill="black" stroke="black" points="1243.21,-388.27 1253.8,-387.85 1245.26,-381.57 1243.21,-388.27" />
</g>

<g id="node26" class="node" x-title="0x560099a8f880">
<polygon fill="lightgrey" stroke="black" points="1390.5,-369.92 1247.5,-369.92 1247.5,-350.92 1390.5,-350.92 1390.5,-369.92" />
<text text-anchor="middle" x="1319" y="-357.92" font-family="Times,serif" font-size="10.00">img/lightcurves/tess.png</text>
</g>

<g id="edge25" class="edge" x-title="0x560099a8f060-&gt;0x560099a8f880">
<path fill="none" stroke="black" d="M1138.03,-299.29C1160.12,-311.69 1195.44,-330.19 1228,-341.42 1235.81,-344.12 1244.14,-346.5 1252.47,-348.59" />
<polygon fill="black" stroke="black" points="1251.66,-351.99 1262.2,-350.9 1253.28,-345.18 1251.66,-351.99" />
</g>

<g id="node27" class="node" x-title="0x560099a8f950">
<polygon fill="lightgrey" stroke="black" points="1397.5,-332.92 1240.5,-332.92 1240.5,-313.92 1397.5,-313.92 1397.5,-332.92" />
<text text-anchor="middle" x="1319" y="-320.92" font-family="Times,serif" font-size="10.00">img/lightcurves/asassn.png</text>
</g>

<g id="edge26" class="edge" x-title="0x560099a8f060-&gt;0x560099a8f950">
<path fill="none" stroke="black" d="M1168.28,-296C1195.04,-300.9 1227.79,-306.9 1255.84,-312.04" />
<polygon fill="black" stroke="black" points="1255.47,-315.53 1265.94,-313.89 1256.73,-308.64 1255.47,-315.53" />
</g>

<g id="node28" class="node" x-title="0x560099a8fa20">
<polygon fill="lightgrey" stroke="black" points="1410,-295.92 1228,-295.92 1228,-276.92 1410,-276.92 1410,-295.92" />
<text text-anchor="middle" x="1319" y="-283.92" font-family="Times,serif" font-size="10.00">img/lightcurves/asassn_tess.png</text>
</g>

<g id="edge27" class="edge" x-title="0x560099a8f060-&gt;0x560099a8fa20">
<path fill="none" stroke="black" d="M1190.64,-286.42C1199.46,-286.42 1208.57,-286.42 1217.67,-286.42" />
<polygon fill="black" stroke="black" points="1217.92,-289.92 1227.92,-286.42 1217.92,-282.92 1217.92,-289.92" />
</g>

<g id="node29" class="node" x-title="0x560099a8fac0">
<polygon fill="lightgrey" stroke="black" points="1384,-258.92 1254,-258.92 1254,-239.92 1384,-239.92 1384,-258.92" />
<text text-anchor="middle" x="1319" y="-246.92" font-family="Times,serif" font-size="10.00">img/lightcurves/B.png</text>
</g>

<g id="edge28" class="edge" x-title="0x560099a8f060-&gt;0x560099a8fac0">
<path fill="none" stroke="black" d="M1168.28,-276.85C1195.04,-271.95 1227.79,-265.95 1255.84,-260.81" />
<polygon fill="black" stroke="black" points="1256.73,-264.21 1265.94,-258.96 1255.47,-257.32 1256.73,-264.21" />
</g>

<g id="node30" class="node" x-title="0x560099a8fb80">
<polygon fill="lightgrey" stroke="black" points="1383,-221.92 1255,-221.92 1255,-202.92 1383,-202.92 1383,-221.92" />
<text text-anchor="middle" x="1319" y="-209.92" font-family="Times,serif" font-size="10.00">img/lightcurves/V.png</text>
</g>

<g id="edge29" class="edge" x-title="0x560099a8f060-&gt;0x560099a8fb80">
<path fill="none" stroke="black" d="M1137.56,-273.47C1159.57,-260.77 1195.1,-241.71 1228,-230.42 1234.48,-228.2 1241.32,-226.22 1248.22,-224.45" />
<polygon fill="black" stroke="black" points="1249.43,-227.76 1258.34,-222.03 1247.8,-220.96 1249.43,-227.76" />
</g>

<g id="node31" class="node" x-title="0x560099a8fc40">
<polygon fill="lightgrey" stroke="black" points="1387.5,-184.92 1250.5,-184.92 1250.5,-165.92 1387.5,-165.92 1387.5,-184.92" />
<text text-anchor="middle" x="1319" y="-172.92" font-family="Times,serif" font-size="10.00">img/lightcurves/SG.png</text>
</g>

<g id="edge30" class="edge" x-title="0x560099a8f060-&gt;0x560099a8fc40">
<path fill="none" stroke="black" d="M1127.94,-272.91C1146.96,-252.31 1186.26,-213.34 1228,-193.42 1232.27,-191.39 1236.76,-189.58 1241.36,-187.98" />
<polygon fill="black" stroke="black" points="1242.44,-191.31 1250.93,-184.97 1240.34,-184.63 1242.44,-191.31" />
</g>

<g id="node32" class="node" x-title="0x560099a8fd00">
<polygon fill="lightgrey" stroke="black" points="1387.5,-147.92 1250.5,-147.92 1250.5,-128.92 1387.5,-128.92 1387.5,-147.92" />
<text text-anchor="middle" x="1319" y="-135.92" font-family="Times,serif" font-size="10.00">img/lightcurves/SR.png</text>
</g>

<g id="edge31" class="edge" x-title="0x560099a8f060-&gt;0x560099a8fd00">
<path fill="none" stroke="black" d="M1123.5,-272.79C1139.11,-245.81 1177.84,-185.72 1228,-156.42 1231.98,-154.1 1236.2,-152.07 1240.57,-150.3" />
<polygon fill="black" stroke="black" points="1242.08,-153.48 1250.32,-146.83 1239.73,-146.89 1242.08,-153.48" />
</g>

<g id="node33" class="node" x-title="0x560099a8fdc0">
<polygon fill="lightgrey" stroke="black" points="1385.5,-443.92 1252.5,-443.92 1252.5,-424.92 1385.5,-424.92 1385.5,-443.92" />
<text text-anchor="middle" x="1319" y="-431.92" font-family="Times,serif" font-size="10.00">img/lightcurves/SI.png</text>
</g>

<g id="edge32" class="edge" x-title="0x560099a8f060-&gt;0x560099a8fdc0">
<path fill="none" stroke="black" d="M1123.56,-299.91C1139.26,-326.6 1178.16,-386.09 1228,-415.42 1232.53,-418.09 1237.38,-420.38 1242.4,-422.36" />
<polygon fill="black" stroke="black" points="1241.61,-425.79 1252.21,-425.77 1243.91,-419.18 1241.61,-425.79" />
</g>

<g id="node34" class="node" x-title="0x560099a8fef0">
<polygon fill="lightgrey" stroke="black" points="989,-200.92 913,-200.92 913,-181.92 989,-181.92 989,-200.92" />
<text text-anchor="middle" x="951" y="-188.92" font-family="Times,serif" font-size="10.00">dat/tess.csv</text>
</g>

<g id="edge33" class="edge" x-title="0x560099a90500-&gt;0x560099a8fef0">
<path fill="none" stroke="black" d="M844.38,-188.69C862.95,-189.17 884.05,-189.72 902.48,-190.19" />
<polygon fill="black" stroke="black" points="902.61,-193.7 912.7,-190.46 902.79,-186.7 902.61,-193.7" />
</g>

<g id="node35" class="node" x-title="0x560099a8ffe0">
<polygon fill="lightgrey" stroke="black" points="1002,-126.92 900,-126.92 900,-107.92 1002,-107.92 1002,-126.92" />
<text text-anchor="middle" x="951" y="-114.92" font-family="Times,serif" font-size="10.00">dat/asassn_g.csv</text>
</g>

<g id="edge34" class="edge" x-title="0x560099a90490-&gt;0x560099a8ffe0">
<path fill="none" stroke="black" d="M851.72,-125.06C864.05,-124.1 877.16,-123.08 889.65,-122.11" />
<polygon fill="black" stroke="black" points="890.27,-125.57 899.97,-121.31 889.72,-118.6 890.27,-125.57" />
</g>

<g id="node36" class="node" x-title="0x560099a900c0">
<polygon fill="lightgrey" stroke="black" points="1001,-163.92 901,-163.92 901,-144.92 1001,-144.92 1001,-163.92" />
<text text-anchor="middle" x="951" y="-151.92" font-family="Times,serif" font-size="10.00">dat/asassn_v.csv</text>
</g>

<g id="edge35" class="edge" x-title="0x560099a90490-&gt;0x560099a900c0">
<path fill="none" stroke="black" d="M843.96,-137.27C858.84,-139.67 875.39,-142.35 890.9,-144.86" />
<polygon fill="black" stroke="black" points="890.48,-148.34 900.91,-146.48 891.6,-141.43 890.48,-148.34" />
</g>

<g id="edge36" class="edge" x-title="0x560099a8cb40-&gt;0x560099a8c950">
<path fill="none" stroke="black" d="M329.41,-305.01C339.74,-317.26 357.11,-339.53 367,-361.42 394.7,-422.72 381.92,-444.55 403,-508.42 418.36,-554.97 442.59,-607.89 454.07,-632.08" />
</g>

<g id="edge37" class="edge" x-title="0x560099a8cb40-&gt;0x560099a8e160">
<path fill="none" stroke="black" d="M338.84,-285.88C355.39,-277.06 380.76,-263.67 403,-252.42 413.5,-247.11 425.17,-241.4 435.23,-236.53" />
</g>

<g id="edge38" class="edge" x-title="0x560099a8cb40-&gt;0x560099a8e700">
<path fill="none" stroke="black" d="M335.37,-305.04C351.63,-315.83 378.98,-333.77 403,-348.42 469.96,-389.29 482.74,-408.38 556,-436.42 701.97,-492.29 744.56,-493.11 900,-509.42 945.09,-514.16 957.24,-516.63 1002,-509.42 1030.91,-504.77 1062.47,-493.77 1084.7,-484.97" />
</g>

<g id="edge39" class="edge" x-title="0x560099a8cb40-&gt;0x560099a8d460">
<path fill="none" stroke="black" d="M354.46,-305.02C369.31,-309.22 387,-314.15 403,-318.42 529.36,-352.16 679.48,-389.43 751.23,-407.08" />
</g>

<g id="edge40" class="edge" x-title="0x560099a8cb40-&gt;0x560099a8f060">
<path fill="none" stroke="black" d="M367.06,-294.9C498.79,-293.41 877.95,-289.1 1039.58,-287.27" />
</g>

<g id="edge41" class="edge" x-title="0x560099a8cb40-&gt;0x560099a90500">
<path fill="none" stroke="black" d="M367.17,-291.48C452.2,-283.86 630.25,-266.1 689,-246.42 721.79,-235.44 756,-213.89 775.99,-200.1" />
</g>

<g id="edge42" class="edge" x-title="0x560099a8cb40-&gt;0x560099a90490">
<path fill="none" stroke="black" d="M326.33,-285.83C337.67,-266.42 366.17,-222.53 403,-201.42 459.67,-168.95 646.42,-145.1 739.61,-134.9" />
</g>

<g id="edge43" class="edge" x-title="0x560099a8dce0-&gt;0x560099a8d460">
<path fill="none" stroke="black" d="M632.16,-238.06C660.31,-269.35 749.23,-368.2 781.58,-404.17" />
</g>

<g id="edge44" class="edge" x-title="0x560099a8dce0-&gt;0x560099a8f060">
<path fill="none" stroke="black" d="M669.04,-228.21C740.53,-228.59 883.19,-232.27 1002,-253.42 1028.74,-258.19 1058.18,-267.01 1080.16,-274.33" />
</g>

<g id="edge45" class="edge" x-title="0x560099a8dce0-&gt;0x560099a90500">
<path fill="none" stroke="black" d="M662.93,-218.92C691.18,-212.1 728.96,-202.99 756.61,-196.32" />
</g>

<g id="edge46" class="edge" x-title="0x560099a8dce0-&gt;0x560099a90490">
<path fill="none" stroke="black" d="M669.16,-219.13C676.13,-216.62 683,-213.44 689,-209.42 710.29,-195.19 705.15,-180.61 725,-164.42 736.59,-154.97 751.15,-147.09 763.86,-141.21" />
</g>

<g id="edge47" class="edge" x-title="0x560099a8d840-&gt;0x560099a8e700">
<path fill="none" stroke="black" d="M982.6,-352.05C989.26,-354.57 996.07,-357.68 1002,-361.42 1045.52,-388.9 1085.52,-435.89 1103.7,-458.91" />
</g>

<g id="edge48" class="edge" x-title="0x560099a8d840-&gt;0x560099a8f060">
<path fill="none" stroke="black" d="M979.12,-333.88C1006.77,-324.15 1049.75,-309.03 1079.74,-298.48" />
</g>

<g id="edge49" class="edge" x-title="0x560099a8d8e0-&gt;0x560099a8e700">
<path fill="none" stroke="black" d="M981.71,-487.94C1000.99,-485.68 1026.84,-482.65 1050.58,-479.86" />
</g>

<g id="edge50" class="edge" x-title="0x560099a8d8e0-&gt;0x560099a8f060">
<path fill="none" stroke="black" d="M981.54,-483.89C988.75,-481.1 996.09,-477.37 1002,-472.42 1061.01,-423.12 1097.09,-334.28 1109.32,-300.23" />
</g>

<g id="edge51" class="edge" x-title="0x560099a8d980-&gt;0x560099a8e700">
<path fill="none" stroke="black" d="M986.36,-458.24C1004.75,-460.29 1028,-462.87 1049.61,-465.27" />
</g>

<g id="edge52" class="edge" x-title="0x560099a8d980-&gt;0x560099a8f060">
<path fill="none" stroke="black" d="M985.12,-444.87C991.06,-442.34 996.95,-439.22 1002,-435.42 1053.21,-396.92 1092.21,-328.84 1107.24,-299.97" />
</g>

<g id="edge53" class="edge" x-title="0x560099a8da20-&gt;0x560099a8e700">
<path fill="none" stroke="black" d="M980.22,-427C1007.6,-436.3 1049.22,-450.43 1078.76,-460.46" />
</g>

<g id="edge54" class="edge" x-title="0x560099a8da20-&gt;0x560099a8f060">
<path fill="none" stroke="black" d="M983.4,-407.82C989.8,-405.23 996.31,-402.11 1002,-398.42 1045.4,-370.34 1085.46,-323.1 1103.68,-299.99" />
</g>

<g id="edge55" class="edge" x-title="0x560099a8dac0-&gt;0x560099a8e700">
<path fill="none" stroke="black" d="M982.1,-389.95C988.78,-392.42 995.73,-395.28 1002,-398.42 1037.63,-416.29 1075.63,-443.3 1096.94,-459.27" />
</g>

<g id="edge56" class="edge" x-title="0x560099a8dac0-&gt;0x560099a8f060">
<path fill="none" stroke="black" d="M980.52,-370.87C987.67,-368.12 995.23,-364.92 1002,-361.42 1037.56,-343.07 1075.58,-315.77 1096.92,-299.67" />
</g>

<g id="edge57" class="edge" x-title="0x560099a8fef0-&gt;0x560099a8f060">
<path fill="none" stroke="black" d="M973.2,-200.93C982.2,-205.14 992.74,-210.29 1002,-215.42 1035.62,-234.07 1073.04,-258.6 1094.99,-273.41" />
</g>

<g id="edge58" class="edge" x-title="0x560099a8ffe0-&gt;0x560099a8f060">
<path fill="none" stroke="black" d="M986.97,-127C992.28,-129.29 997.48,-132.07 1002,-135.42 1053.87,-173.97 1092.5,-243.22 1107.35,-272.62" />
</g>

<g id="edge59" class="edge" x-title="0x560099a900c0-&gt;0x560099a8f060">
<path fill="none" stroke="black" d="M985.27,-164.02C991.07,-166.35 996.87,-169.14 1002,-172.42 1046.15,-200.72 1086.16,-249.37 1104.07,-272.9" />
</g>

<g id="node37" class="node" x-title="0x560099a8cc00">
<polygon fill="lightgrey" stroke="black" points="349.5,-616.92 290.5,-616.92 290.5,-597.92 349.5,-597.92 349.5,-616.92" />
<text text-anchor="middle" x="320" y="-604.92" font-family="Times,serif" font-size="10.00">build.py</text>
</g>

<g id="edge60" class="edge" x-title="0x560099a8cc00-&gt;0x560099a8c950">
<path fill="none" stroke="black" d="M349.57,-615.21C372.13,-621.35 403.64,-629.94 427.31,-636.38" />
</g>

<g id="node38" class="node" x-title="0x560099a8e2b0">
<polygon fill="lightgrey" stroke="black" points="359,-389.92 281,-389.92 281,-370.92 359,-370.92 359,-389.92" />
<text text-anchor="middle" x="320" y="-377.92" font-family="Times,serif" font-size="10.00">matplotlibrc</text>
</g>

<g id="edge61" class="edge" x-title="0x560099a8e2b0-&gt;0x560099a8e160">
<path fill="none" stroke="black" d="M329.73,-370.67C353.82,-343.72 421.31,-268.24 448.72,-237.6" />
</g>

<g id="edge62" class="edge" x-title="0x560099a8e2b0-&gt;0x560099a8e700">
<path fill="none" stroke="black" d="M323.81,-389.99C331.64,-414.7 356.25,-480.68 403,-508.42 517.66,-576.48 873.95,-580.59 1002,-543.42 1040.69,-532.19 1078.82,-503.14 1099.08,-485.88" />
</g>

<g id="edge63" class="edge" x-title="0x560099a8e2b0-&gt;0x560099a8f060">
<path fill="none" stroke="black" d="M359.25,-375.89C486.25,-360.84 894.77,-312.41 1051.75,-293.8" />
</g>

<g id="node39" class="node" x-title="0x560099a8e320">
<polygon fill="lightgrey" stroke="black" points="365,-184.92 275,-184.92 275,-165.92 365,-165.92 365,-184.92" />
<text text-anchor="middle" x="320" y="-172.92" font-family="Times,serif" font-size="10.00">dat/asassn.csv</text>
</g>

<g id="edge64" class="edge" x-title="0x560099a8e320-&gt;0x560099a8e160">
<path fill="none" stroke="black" d="M348.23,-184.99C371.22,-193.07 404.19,-204.64 428.45,-213.17" />
</g>

<g id="edge65" class="edge" x-title="0x560099a8e320-&gt;0x560099a90490">
<path fill="none" stroke="black" d="M337.62,-165.82C353.73,-157.08 379.18,-144.74 403,-139.42 520.48,-113.2 662.78,-118.53 739,-124.27" />
</g>

<g id="node40" class="node" x-title="0x560099a8c2b0">
<polygon fill="lightgrey" stroke="black" points="665,-427.92 580,-427.92 580,-408.92 665,-408.92 665,-427.92" />
<text text-anchor="middle" x="622.5" y="-415.92" font-family="Times,serif" font-size="10.00">dat/stars.json</text>
</g>

<g id="edge66" class="edge" x-title="0x560099a8c2b0-&gt;0x560099a8d460">
<path fill="none" stroke="black" d="M665.09,-418.18C683.86,-418.07 706.5,-417.94 727.5,-417.81" />
</g>
</g>
<script>function fade(node, reset=false) {
    node.style.opacity = reset ? "" : "20%";
}
function getDisconnectedElems(node) {
    const nodeId = node.getAttribute("x-title");
    const connectedIds = [nodeId];
    const ret = [];
    for (const edge of document.querySelectorAll('.edge')) {
        const edgeId = edge.getAttribute("x-title");
        const nodeIds = edgeId.split('-&gt;');
        if (nodeIds.includes(nodeId)) {
            const otherNodeId = nodeIds[Number(nodeIds[0] == nodeId)];
            if (!ret.includes(otherNodeId))
                connectedIds.push(otherNodeId);
            connectedIds.push(edgeId);
        }
    }
    for (const el of document.querySelectorAll('.node, .edge')) {
        const id = el.getAttribute("x-title");
        if (!connectedIds.includes(id))
            ret.push(el);
    }
    return ret;
}
function highlight(ev) {
    const el = ev.target;
    const reset = ev.type == 'mouseleave';
    if (el.className.baseVal != "node" &amp;&amp; !reset)
        return;
    for (const elem of getDisconnectedElems(el))
        fade(elem, reset);
}
for (const el of document.querySelectorAll('.node, .edge')) {
    el.onmouseenter = highlight;
    el.onmouseleave = highlight;
}
</script></svg>