<svg xmlns="http://www.w3.org/2000/svg" width="1238pt" height="778pt" viewBox="0.00 0.00 1238.00 777.51">
<g id="graph0" class="graph" transform="scale(1 1) rotate(0) translate(4 773.51)">
<polygon fill="white" stroke="none" points="-4,4 -4,-773.51 1234,-773.51 1234,4 -4,4" />

<g id="node1" class="node" x-title="0x7f8ff5406060">
<polygon fill="lightgrey" stroke="black" points="876,-730.51 822,-730.51 822,-711.51 876,-711.51 876,-730.51" />
<text text-anchor="middle" x="849" y="-718.51" font-family="Times,serif" font-size="10.00">dag.svg</text>
</g>

<g id="node2" class="node" x-title="0x7f8ff5405fd0">
<ellipse fill="lightgrey" stroke="black" cx="691.5" cy="-721.01" rx="57.5" ry="13.5" />
<text text-anchor="middle" x="691.5" y="-718.51" font-family="Times,serif" font-size="10.00">lib.gengraph.py</text>
</g>

<g id="edge1" class="edge" x-title="0x7f8ff5405fd0-&gt;0x7f8ff5406060">
<path fill="none" stroke="black" d="M749.08,-721.01C769.45,-721.01 791.92,-721.01 810.29,-721.01" />
<polygon fill="black" stroke="black" points="810.2,-724.51 820.2,-721.01 810.2,-717.51 810.2,-724.51" />
</g>

<g id="node3" class="node" x-title="0x7f8ff54060d0">
<polygon fill="lightgrey" stroke="black" points="575,-767.51 513,-767.51 513,-748.51 575,-748.51 575,-767.51" />
<text text-anchor="middle" x="544" y="-755.51" font-family="Times,serif" font-size="10.00">build.ninja</text>
</g>

<g id="edge2" class="edge" x-title="0x7f8ff54060d0-&gt;0x7f8ff5405fd0">
<path fill="none" stroke="black" d="M575.15,-750.34C597.21,-744.73 627.33,-737.07 651.26,-730.98" />
</g>

<g id="node4" class="node" x-title="0x7f8ff5406170">
<polygon fill="lightgrey" stroke="black" points="575.5,-730.51 512.5,-730.51 512.5,-711.51 575.5,-711.51 575.5,-730.51" />
<text text-anchor="middle" x="544" y="-718.51" font-family="Times,serif" font-size="10.00">lib/graph.js</text>
</g>

<g id="edge3" class="edge" x-title="0x7f8ff5406170-&gt;0x7f8ff5405fd0">
<path fill="none" stroke="black" d="M575.86,-721.01C592.62,-721.01 613.89,-721.01 633.55,-721.01" />
</g>

<g id="node5" class="node" x-title="0x7f8ff5406240">
<polygon fill="lightgrey" stroke="black" points="585,-693.51 503,-693.51 503,-674.51 585,-674.51 585,-693.51" />
<text text-anchor="middle" x="544" y="-681.51" font-family="Times,serif" font-size="10.00">lib/gengraph.py</text>
</g>

<g id="edge4" class="edge" x-title="0x7f8ff5406240-&gt;0x7f8ff5405fd0">
<path fill="none" stroke="black" d="M583.99,-693.92C604.78,-699.21 630.3,-705.7 651.15,-711" />
</g>

<g id="node6" class="node" x-title="0x7f8ff5604450">
<ellipse fill="lightgrey" stroke="black" cx="405" cy="-722.01" rx="39.5" ry="13.5" />
<text text-anchor="middle" x="405" y="-719.51" font-family="Times,serif" font-size="10.00">..build.py</text>
</g>

<g id="edge5" class="edge" x-title="0x7f8ff5604450-&gt;0x7f8ff54060d0">
<path fill="none" stroke="black" d="M437.09,-730.18C456.14,-735.18 480.76,-741.65 501.47,-747.09" />
<polygon fill="black" stroke="black" points="500.48,-750.45 511.04,-749.61 502.26,-743.68 500.48,-750.45" />
</g>

<g id="node7" class="node" x-title="0x7f8ff56044e0">
<polygon fill="lightgrey" stroke="black" points="307,-769.51 253,-769.51 253,-750.51 307,-750.51 307,-769.51" />
<text text-anchor="middle" x="280" y="-757.51" font-family="Times,serif" font-size="10.00">lib/x.py</text>
</g>

<g id="edge6" class="edge" x-title="0x7f8ff56044e0-&gt;0x7f8ff5604450">
<path fill="none" stroke="black" d="M307.39,-751.85C327.15,-745.75 354.19,-737.39 374.64,-731.08" />
</g>

<g id="node8" class="node" x-title="0x7f8ff5604560">
<polygon fill="lightgrey" stroke="black" points="76,-408.51 0,-408.51 0,-389.51 76,-389.51 76,-408.51" />
<text text-anchor="middle" x="38" y="-396.51" font-family="Times,serif" font-size="10.00">dat/config.yml</text>
</g>

<g id="edge7" class="edge" x-title="0x7f8ff5604560-&gt;0x7f8ff5604450">
<path fill="none" stroke="black" d="M38.69,-408.84C38.05,-446.77 40.87,-585.13 112,-660.01 178.92,-730.46 304.46,-730.97 366.84,-726.2" />
</g>

<g id="node9" class="node" x-title="0x7f8ff5604a40">
<ellipse fill="lightgrey" stroke="black" cx="158" cy="-414.01" rx="46" ry="13.5" />
<text text-anchor="middle" x="158" y="-411.51" font-family="Times,serif" font-size="10.00">src.query.py</text>
</g>

<g id="edge8" class="edge" x-title="0x7f8ff5604560-&gt;0x7f8ff5604a40">
<path fill="none" stroke="black" d="M76.34,-403.75C88.76,-405.33 102.67,-407.1 115.4,-408.72" />
</g>

<g id="node10" class="node" x-title="0x7f8ff56055b0">
<ellipse fill="lightgrey" stroke="black" cx="405" cy="-194.01" rx="49" ry="13.5" />
<text text-anchor="middle" x="405" y="-191.51" font-family="Times,serif" font-size="10.00">src.period.py</text>
</g>

<g id="edge9" class="edge" x-title="0x7f8ff5604560-&gt;0x7f8ff56055b0">
<path fill="none" stroke="black" d="M47.12,-389.2C59.76,-374.41 85.46,-346.2 112,-328.01 198.95,-268.41 316.67,-223.77 372.33,-204.49" />
</g>

<g id="node11" class="node" x-title="0x7f8ff5704120">
<ellipse fill="lightgrey" stroke="black" cx="1014" cy="-485.01" rx="65" ry="13.5" />
<text text-anchor="middle" x="1014" y="-482.51" font-family="Times,serif" font-size="10.00">src.color_index.py</text>
</g>

<g id="edge10" class="edge" x-title="0x7f8ff5604560-&gt;0x7f8ff5704120">
<path fill="none" stroke="black" d="M40.75,-408.62C46.29,-436.45 65.83,-518.21 112,-566.01 169.18,-625.2 196.7,-646.01 279,-646.01 279,-646.01 279,-646.01 692.5,-646.01 795.73,-646.01 823.45,-624.36 913,-573.01 948.91,-552.41 983.49,-517.6 1001.05,-498.51" />
</g>

<g id="node12" class="node" x-title="0x7f8ff5604f20">
<ellipse fill="lightgrey" stroke="black" cx="691.5" cy="-456.01" rx="55" ry="13.5" />
<text text-anchor="middle" x="691.5" y="-453.51" font-family="Times,serif" font-size="10.00">src.calibrate.py</text>
</g>

<g id="edge11" class="edge" x-title="0x7f8ff5604560-&gt;0x7f8ff5604f20">
<path fill="none" stroke="black" d="M43.94,-408.81C65.53,-450.13 156.07,-608.01 279,-608.01 279,-608.01 279,-608.01 406,-608.01 523.04,-608.01 638.6,-506.7 677.09,-469.5" />
</g>

<g id="node13" class="node" x-title="0x7f8ff5704990">
<ellipse fill="lightgrey" stroke="black" cx="1014" cy="-346.01" rx="63" ry="13.5" />
<text text-anchor="middle" x="1014" y="-343.51" font-family="Times,serif" font-size="10.00">src.lightcurves.py</text>
</g>

<g id="edge12" class="edge" x-title="0x7f8ff5604560-&gt;0x7f8ff5704990">
<path fill="none" stroke="black" d="M39.83,-389.22C44.25,-339 66.65,-110.58 112,-59.01 163.98,0.1 200.28,-0.01 279,-0.01 279,-0.01 279,-0.01 692.5,-0.01 798.52,-0.01 838.7,-15.38 913,-91.01 983.49,-162.75 1005.76,-290 1011.38,-332.07" />
</g>

<g id="node14" class="node" x-title="0x7f8ff5704bc0">
<ellipse fill="lightgrey" stroke="black" cx="691.5" cy="-304.01" rx="41" ry="13.5" />
<text text-anchor="middle" x="691.5" y="-301.51" font-family="Times,serif" font-size="10.00">src.tess.py</text>
</g>

<g id="edge13" class="edge" x-title="0x7f8ff5604560-&gt;0x7f8ff5704bc0">
<path fill="none" stroke="black" d="M63.76,-389.08C106.79,-372.75 198.49,-342.01 279,-342.01 279,-342.01 279,-342.01 406,-342.01 497.19,-342.01 603.39,-322.59 656.54,-311.51" />
</g>

<g id="node15" class="node" x-title="0x7f8ff5705660">
<ellipse fill="lightgrey" stroke="black" cx="691.5" cy="-110.01" rx="48" ry="13.5" />
<text text-anchor="middle" x="691.5" y="-107.51" font-family="Times,serif" font-size="10.00">src.asassn.py</text>
</g>

<g id="edge14" class="edge" x-title="0x7f8ff5604560-&gt;0x7f8ff5705660">
<path fill="none" stroke="black" d="M40.45,-389.35C49.63,-331.94 105.15,-38.01 279,-38.01 279,-38.01 279,-38.01 406,-38.01 503.57,-38.01 614.36,-78.3 664,-98.6" />
</g>

<g id="node16" class="node" x-title="0x7f8ff5604670">
<polygon fill="lightgrey" stroke="black" points="320,-451.51 240,-451.51 240,-432.51 320,-432.51 320,-451.51" />
<text text-anchor="middle" x="280" y="-439.51" font-family="Times,serif" font-size="10.00">dat/known.json</text>
</g>

<g id="edge15" class="edge" x-title="0x7f8ff5604a40-&gt;0x7f8ff5604670">
<path fill="none" stroke="black" d="M195,-422.41C205.57,-424.87 217.32,-427.61 228.6,-430.25" />
<polygon fill="black" stroke="black" points="227.66,-433.62 238.2,-432.49 229.25,-426.81 227.66,-433.62" />
</g>

<g id="node17" class="node" x-title="0x7f8ff56057a0">
<polygon fill="lightgrey" stroke="black" points="598,-199.51 490,-199.51 490,-180.51 598,-180.51 598,-199.51" />
<text text-anchor="middle" x="544" y="-187.51" font-family="Times,serif" font-size="10.00">img/period/asassn.png</text>
</g>

<g id="edge16" class="edge" x-title="0x7f8ff56055b0-&gt;0x7f8ff56057a0">
<path fill="none" stroke="black" d="M453.92,-192.61C461.78,-192.38 470.05,-192.14 478.24,-191.9" />
<polygon fill="black" stroke="black" points="478.33,-195.4 488.22,-191.61 478.12,-188.4 478.33,-195.4" />
</g>

<g id="node18" class="node" x-title="0x7f8ff5605400">
<polygon fill="lightgrey" stroke="black" points="583,-275.51 505,-275.51 505,-256.51 583,-256.51 583,-275.51" />
<text text-anchor="middle" x="544" y="-263.51" font-family="Times,serif" font-size="10.00">dat/period.json</text>
</g>

<g id="edge17" class="edge" x-title="0x7f8ff56055b0-&gt;0x7f8ff5605400">
<path fill="none" stroke="black" d="M428.93,-206.06C452.26,-218.32 488.49,-237.36 513.84,-250.68" />
<polygon fill="black" stroke="black" points="512.15,-253.75 522.63,-255.3 515.41,-247.55 512.15,-253.75" />
</g>

<g id="node19" class="node" x-title="0x7f8ff5704240">
<polygon fill="lightgrey" stroke="black" points="1224,-494.51 1121,-494.51 1121,-475.51 1224,-475.51 1224,-494.51" />
<text text-anchor="middle" x="1172.5" y="-482.51" font-family="Times,serif" font-size="10.00">img/color_index.png</text>
</g>

<g id="edge18" class="edge" x-title="0x7f8ff5704120-&gt;0x7f8ff5704240">
<path fill="none" stroke="black" d="M1079.11,-485.01C1089.06,-485.01 1099.32,-485.01 1109.23,-485.01" />
<polygon fill="black" stroke="black" points="1109.15,-488.51 1119.14,-485.01 1109.14,-481.51 1109.15,-488.51" />
</g>

<g id="node20" class="node" x-title="0x7f8ff5604fb0">
<polygon fill="lightgrey" stroke="black" points="876.5,-429.51 821.5,-429.51 821.5,-410.51 876.5,-410.51 876.5,-429.51" />
<text text-anchor="middle" x="849" y="-417.51" font-family="Times,serif" font-size="10.00">dat/B.csv</text>
</g>

<g id="edge19" class="edge" x-title="0x7f8ff5604f20-&gt;0x7f8ff5604fb0">
<path fill="none" stroke="black" d="M732.55,-446.74C756.52,-441.19 786.8,-434.18 810.34,-428.73" />
<polygon fill="black" stroke="black" points="810.87,-432.2 819.82,-426.53 809.29,-425.38 810.87,-432.2" />
</g>

<g id="node21" class="node" x-title="0x7f8ff5605020">
<polygon fill="lightgrey" stroke="black" points="876,-392.51 822,-392.51 822,-373.51 876,-373.51 876,-392.51" />
<text text-anchor="middle" x="849" y="-380.51" font-family="Times,serif" font-size="10.00">dat/V.csv</text>
</g>

<g id="edge20" class="edge" x-title="0x7f8ff5604f20-&gt;0x7f8ff5605020">
<path fill="none" stroke="black" d="M710.87,-443.14C729.01,-430.91 757.9,-412.7 785,-401.01 793.13,-397.5 802.15,-394.46 810.76,-391.93" />
<polygon fill="black" stroke="black" points="811.56,-395.33 820.27,-389.3 809.7,-388.59 811.56,-395.33" />
</g>

<g id="node22" class="node" x-title="0x7f8ff56050c0">
<polygon fill="lightgrey" stroke="black" points="879.5,-355.51 818.5,-355.51 818.5,-336.51 879.5,-336.51 879.5,-355.51" />
<text text-anchor="middle" x="849" y="-343.51" font-family="Times,serif" font-size="10.00">dat/SG.csv</text>
</g>

<g id="edge21" class="edge" x-title="0x7f8ff5604f20-&gt;0x7f8ff56050c0">
<path fill="none" stroke="black" d="M704.4,-442.63C724.92,-419.82 766.54,-374.84 785,-364.01 791.79,-360.02 799.51,-356.88 807.17,-354.41" />
<polygon fill="black" stroke="black" points="808.11,-357.78 816.76,-351.67 806.19,-351.05 808.11,-357.78" />
</g>

<g id="node23" class="node" x-title="0x7f8ff5605220">
<polygon fill="lightgrey" stroke="black" points="879,-503.51 819,-503.51 819,-484.51 879,-484.51 879,-503.51" />
<text text-anchor="middle" x="849" y="-491.51" font-family="Times,serif" font-size="10.00">dat/SR.csv</text>
</g>

<g id="edge22" class="edge" x-title="0x7f8ff5604f20-&gt;0x7f8ff5605220">
<path fill="none" stroke="black" d="M731.74,-465.6C754.94,-471.26 784.25,-478.43 807.64,-484.14" />
<polygon fill="black" stroke="black" points="806.58,-487.49 817.12,-486.46 808.24,-480.69 806.58,-487.49" />
</g>

<g id="node24" class="node" x-title="0x7f8ff56052c0">
<polygon fill="lightgrey" stroke="black" points="877,-466.51 821,-466.51 821,-447.51 877,-447.51 877,-466.51" />
<text text-anchor="middle" x="849" y="-454.51" font-family="Times,serif" font-size="10.00">dat/SI.csv</text>
</g>

<g id="edge23" class="edge" x-title="0x7f8ff5604f20-&gt;0x7f8ff56052c0">
<path fill="none" stroke="black" d="M746.89,-456.36C767.39,-456.49 790.28,-456.64 809.09,-456.76" />
<polygon fill="black" stroke="black" points="808.97,-460.26 818.99,-456.82 809.01,-453.26 808.97,-460.26" />
</g>

<g id="node25" class="node" x-title="0x7f8ff5704c90">
<polygon fill="lightgrey" stroke="black" points="1229,-365.51 1116,-365.51 1116,-346.51 1229,-346.51 1229,-365.51" />
<text text-anchor="middle" x="1172.5" y="-353.51" font-family="Times,serif" font-size="10.00">img/lightcurves/all.png</text>
</g>

<g id="edge24" class="edge" x-title="0x7f8ff5704990-&gt;0x7f8ff5704c90">
<path fill="none" stroke="black" d="M1075.06,-349.84C1084.66,-350.46 1094.65,-351.1 1104.41,-351.72" />
<polygon fill="black" stroke="black" points="1104,-355.2 1114.2,-352.35 1104.44,-348.21 1104,-355.2" />
</g>

<g id="node26" class="node" x-title="0x7f8ff5704e80">
<polygon fill="lightgrey" stroke="black" points="1227,-328.51 1118,-328.51 1118,-309.51 1227,-309.51 1227,-328.51" />
<text text-anchor="middle" x="1172.5" y="-316.51" font-family="Times,serif" font-size="10.00">img/lightcurves/B.png</text>
</g>

<g id="edge25" class="edge" x-title="0x7f8ff5704990-&gt;0x7f8ff5704e80">
<path fill="none" stroke="black" d="M1064.09,-337.54C1077.53,-335.22 1092.31,-332.67 1106.49,-330.22" />
<polygon fill="black" stroke="black" points="1106.94,-333.7 1116.2,-328.55 1105.75,-326.8 1106.94,-333.7" />
</g>

<g id="node27" class="node" x-title="0x7f8ff5704ef0">
<polygon fill="lightgrey" stroke="black" points="1226.5,-291.51 1118.5,-291.51 1118.5,-272.51 1226.5,-272.51 1226.5,-291.51" />
<text text-anchor="middle" x="1172.5" y="-279.51" font-family="Times,serif" font-size="10.00">img/lightcurves/V.png</text>
</g>

<g id="edge26" class="edge" x-title="0x7f8ff5704990-&gt;0x7f8ff5704ef0">
<path fill="none" stroke="black" d="M1040.11,-333.41C1060.12,-323.63 1088.99,-310.09 1115,-300.01 1118.88,-298.5 1122.93,-297.03 1127.02,-295.61" />
<polygon fill="black" stroke="black" points="1128,-298.97 1136.37,-292.48 1125.77,-292.33 1128,-298.97" />
</g>

<g id="node28" class="node" x-title="0x7f8ff5704f60">
<polygon fill="lightgrey" stroke="black" points="1230,-254.51 1115,-254.51 1115,-235.51 1230,-235.51 1230,-254.51" />
<text text-anchor="middle" x="1172.5" y="-242.51" font-family="Times,serif" font-size="10.00">img/lightcurves/SG.png</text>
</g>

<g id="edge27" class="edge" x-title="0x7f8ff5704990-&gt;0x7f8ff5704f60">
<path fill="none" stroke="black" d="M1027.68,-332.65C1045.57,-314.51 1079.97,-282.17 1115,-263.01 1117.49,-261.65 1120.1,-260.37 1122.77,-259.17" />
<polygon fill="black" stroke="black" points="1123.89,-262.49 1131.88,-255.53 1121.29,-255.99 1123.89,-262.49" />
</g>

<g id="node29" class="node" x-title="0x7f8ff5704fd0">
<polygon fill="lightgrey" stroke="black" points="1229.5,-439.51 1115.5,-439.51 1115.5,-420.51 1229.5,-420.51 1229.5,-439.51" />
<text text-anchor="middle" x="1172.5" y="-427.51" font-family="Times,serif" font-size="10.00">img/lightcurves/SR.png</text>
</g>

<g id="edge28" class="edge" x-title="0x7f8ff5704990-&gt;0x7f8ff5704fd0">
<path fill="none" stroke="black" d="M1032.26,-359.17C1051.59,-373.43 1084.24,-396.13 1115,-411.01 1118.71,-412.8 1122.64,-414.5 1126.62,-416.08" />
<polygon fill="black" stroke="black" points="1125.17,-419.28 1135.77,-419.48 1127.61,-412.72 1125.17,-419.28" />
</g>

<g id="node30" class="node" x-title="0x7f8ff5705070">
<polygon fill="lightgrey" stroke="black" points="1227.5,-402.51 1117.5,-402.51 1117.5,-383.51 1227.5,-383.51 1227.5,-402.51" />
<text text-anchor="middle" x="1172.5" y="-390.51" font-family="Times,serif" font-size="10.00">img/lightcurves/SI.png</text>
</g>

<g id="edge29" class="edge" x-title="0x7f8ff5704990-&gt;0x7f8ff5705070">
<path fill="none" stroke="black" d="M1052.09,-357.15C1074.72,-363.94 1103.77,-372.67 1127.55,-379.81" />
<polygon fill="black" stroke="black" points="1126.37,-383.11 1136.95,-382.63 1128.38,-376.4 1126.37,-383.11" />
</g>

<g id="node31" class="node" x-title="0x7f8ff5705350">
<polygon fill="lightgrey" stroke="black" points="907.5,-279.51 790.5,-279.51 790.5,-260.51 907.5,-260.51 907.5,-279.51" />
<text text-anchor="middle" x="849" y="-267.51" font-family="Times,serif" font-size="10.00">img/lightcurves/tess.png</text>
</g>

<g id="edge30" class="edge" x-title="0x7f8ff5704bc0-&gt;0x7f8ff5705350">
<path fill="none" stroke="black" d="M726.24,-296.63C745.26,-292.47 769.51,-287.17 791.36,-282.39" />
<polygon fill="black" stroke="black" points="792.02,-285.83 801.04,-280.27 790.53,-278.99 792.02,-285.83" />
</g>

<g id="node32" class="node" x-title="0x7f8ff5705890">
<polygon fill="lightgrey" stroke="black" points="913,-119.51 785,-119.51 785,-100.51 913,-100.51 913,-119.51" />
<text text-anchor="middle" x="849" y="-107.51" font-family="Times,serif" font-size="10.00">img/lightcurves/asassn.png</text>
</g>

<g id="edge31" class="edge" x-title="0x7f8ff5705660-&gt;0x7f8ff5705890">
<path fill="none" stroke="black" d="M739.58,-110.01C750.24,-110.01 761.81,-110.01 773.3,-110.01" />
<polygon fill="black" stroke="black" points="773.21,-113.51 783.21,-110.01 773.21,-106.51 773.21,-113.51" />
</g>

<g id="edge32" class="edge" x-title="0x7f8ff5604670-&gt;0x7f8ff5604450">
<path fill="none" stroke="black" d="M285.38,-451.97C303.99,-494.35 376.6,-659.64 398.02,-708.4" />
</g>

<g id="edge33" class="edge" x-title="0x7f8ff5604670-&gt;0x7f8ff56055b0">
<path fill="none" stroke="black" d="M281.93,-432.05C285.5,-398.69 301.07,-289.16 356,-222.01 361.62,-215.14 369.4,-209.59 377.06,-205.3" />
</g>

<g id="edge34" class="edge" x-title="0x7f8ff5604670-&gt;0x7f8ff5704120">
<path fill="none" stroke="black" d="M291.57,-451.63C325.4,-481.4 435.17,-570.01 543,-570.01 543,-570.01 543,-570.01 692.5,-570.01 791.08,-570.01 819.68,-577.77 913,-546.01 944.96,-535.13 977.52,-512.71 996.46,-498.29" />
</g>

<g id="edge35" class="edge" x-title="0x7f8ff5604670-&gt;0x7f8ff5604f20">
<path fill="none" stroke="black" d="M301.8,-451.88C316.56,-458.36 337.04,-466.29 356,-470.01 461.56,-490.7 490.93,-484.33 598,-474.01 615.59,-472.31 634.8,-468.84 651.13,-465.4" />
</g>

<g id="edge36" class="edge" x-title="0x7f8ff5604670-&gt;0x7f8ff5704990">
<path fill="none" stroke="black" d="M320.46,-441.67C355.71,-440.8 408.65,-438.1 454,-430.01 519.63,-418.3 534.3,-407.68 598,-388.01 681.53,-362.21 698.66,-340.73 785,-327.01 841.18,-318.07 856.36,-321.67 913,-327.01 931.83,-328.78 952.38,-332.39 969.94,-335.99" />
</g>

<g id="edge37" class="edge" x-title="0x7f8ff5604670-&gt;0x7f8ff5704bc0">
<path fill="none" stroke="black" d="M320.32,-434.61C381.26,-422.42 501.56,-395.48 598,-356.01 624.94,-344.98 653.86,-327.76 672.06,-316.19" />
</g>

<g id="edge38" class="edge" x-title="0x7f8ff5604670-&gt;0x7f8ff5705660">
<path fill="none" stroke="black" d="M289.08,-432.02C315.02,-400.52 399.81,-302.13 490,-247.01 533.54,-220.39 555.32,-235.99 598,-208.01 633.8,-184.53 665.69,-144.54 680.96,-123.64" />
</g>

<g id="edge39" class="edge" x-title="0x7f8ff5605400-&gt;0x7f8ff5604f20">
<path fill="none" stroke="black" d="M552.62,-275.95C576.88,-307.64 652.4,-406.25 680.14,-442.48" />
</g>

<g id="edge40" class="edge" x-title="0x7f8ff5605400-&gt;0x7f8ff5704990">
<path fill="none" stroke="black" d="M577.75,-256.05C643.9,-237.76 797.05,-204.71 913,-251.01 954.36,-267.52 988.41,-310.19 1003.94,-332.29" />
</g>

<g id="edge41" class="edge" x-title="0x7f8ff5605400-&gt;0x7f8ff5704bc0">
<path fill="none" stroke="black" d="M583.23,-275.99C606.64,-282.1 636.25,-289.84 658.43,-295.63" />
</g>

<g id="edge42" class="edge" x-title="0x7f8ff5605400-&gt;0x7f8ff5705660">
<path fill="none" stroke="black" d="M574.4,-256.02C582.57,-252.4 591.08,-247.75 598,-242.01 639.57,-207.53 671.04,-150.01 684,-123.79" />
</g>

<g id="edge43" class="edge" x-title="0x7f8ff5604fb0-&gt;0x7f8ff5704120">
<path fill="none" stroke="black" d="M876.98,-426.69C888.25,-429.74 901.39,-433.65 913,-438.01 939.58,-447.98 968.85,-462.13 988.82,-472.29" />
</g>

<g id="edge44" class="edge" x-title="0x7f8ff5604fb0-&gt;0x7f8ff5704990">
<path fill="none" stroke="black" d="M876.8,-413.27C888.15,-410.07 901.42,-405.88 913,-401.01 941.49,-389.03 972.4,-371.23 992.19,-359.15" />
</g>

<g id="edge45" class="edge" x-title="0x7f8ff5605020-&gt;0x7f8ff5704120">
<path fill="none" stroke="black" d="M876.39,-387.94C888.04,-390.76 901.65,-394.97 913,-401.01 948.44,-419.84 982.68,-452.79 1000.43,-471.33" />
</g>

<g id="edge46" class="edge" x-title="0x7f8ff5605020-&gt;0x7f8ff5704990">
<path fill="none" stroke="black" d="M876.19,-377.06C901.3,-371.36 939.67,-362.65 969.39,-355.91" />
</g>

<g id="edge47" class="edge" x-title="0x7f8ff56050c0-&gt;0x7f8ff5704120">
<path fill="none" stroke="black" d="M879.78,-350.66C890.85,-353.35 903.1,-357.53 913,-364.01 956.79,-392.65 991.15,-446.39 1005.59,-471.47" />
</g>

<g id="edge48" class="edge" x-title="0x7f8ff56050c0-&gt;0x7f8ff5704990">
<path fill="none" stroke="black" d="M879.9,-346.01C899.66,-346.01 926.29,-346.01 950.54,-346.01" />
</g>

<g id="edge49" class="edge" x-title="0x7f8ff5605220-&gt;0x7f8ff5704120">
<path fill="none" stroke="black" d="M879.14,-492.4C899.01,-491.3 926.08,-489.81 950.68,-488.45" />
</g>

<g id="edge50" class="edge" x-title="0x7f8ff5605220-&gt;0x7f8ff5704990">
<path fill="none" stroke="black" d="M879.26,-489.15C890.5,-486.3 903.02,-481.87 913,-475.01 958.31,-443.87 992.37,-385.84 1006.22,-359.56" />
</g>

<g id="edge51" class="edge" x-title="0x7f8ff56052c0-&gt;0x7f8ff5704120">
<path fill="none" stroke="black" d="M877.28,-461.69C900.57,-465.69 934.68,-471.55 962.87,-476.4" />
</g>

<g id="edge52" class="edge" x-title="0x7f8ff56052c0-&gt;0x7f8ff5704990">
<path fill="none" stroke="black" d="M877.45,-451.59C888.92,-448.62 902.08,-444.23 913,-438.01 950.09,-416.85 984.72,-379.62 1001.83,-359.62" />
</g>

<g id="node33" class="node" x-title="0x7f8ff5604720">
<polygon fill="lightgrey" stroke="black" points="307,-693.51 253,-693.51 253,-674.51 307,-674.51 307,-693.51" />
<text text-anchor="middle" x="280" y="-681.51" font-family="Times,serif" font-size="10.00">build.py</text>
</g>

<g id="edge53" class="edge" x-title="0x7f8ff5604720-&gt;0x7f8ff5604450">
<path fill="none" stroke="black" d="M307.39,-692.16C327.15,-698.27 354.19,-706.62 374.64,-712.94" />
</g>

<g id="node34" class="node" x-title="0x7f8ff5605840">
<polygon fill="lightgrey" stroke="black" points="313.5,-203.51 246.5,-203.51 246.5,-184.51 313.5,-184.51 313.5,-203.51" />
<text text-anchor="middle" x="280" y="-191.51" font-family="Times,serif" font-size="10.00">matplotlibrc</text>
</g>

<g id="edge54" class="edge" x-title="0x7f8ff5605840-&gt;0x7f8ff56055b0">
<path fill="none" stroke="black" d="M313.96,-194.01C326.77,-194.01 341.7,-194.01 355.68,-194.01" />
</g>

<g id="edge55" class="edge" x-title="0x7f8ff5605840-&gt;0x7f8ff5704120">
<path fill="none" stroke="black" d="M284.93,-203.92C301.95,-245.4 373.73,-406.06 490,-474.01 652.97,-569.24 725.88,-536.82 913,-512.01 935.28,-509.05 959.65,-502.55 978.75,-496.66" />
</g>

<g id="edge56" class="edge" x-title="0x7f8ff5605840-&gt;0x7f8ff5704990">
<path fill="none" stroke="black" d="M308.8,-184.05C322.79,-179.41 340.11,-174.22 356,-171.01 437.88,-154.46 459.46,-152.01 543,-152.01 543,-152.01 543,-152.01 692.5,-152.01 795.59,-152.01 827.91,-165.81 913,-224.01 956.4,-253.69 990.95,-307.47 1005.51,-332.51" />
</g>

<g id="edge57" class="edge" x-title="0x7f8ff5605840-&gt;0x7f8ff5704bc0">
<path fill="none" stroke="black" d="M298.78,-203.91C334.03,-223.03 415.8,-264.82 490,-284.01 544.36,-298.06 609.37,-302.35 650.3,-303.6" />
</g>

<g id="edge58" class="edge" x-title="0x7f8ff5605840-&gt;0x7f8ff5705660">
<path fill="none" stroke="black" d="M290.11,-184.43C303.26,-171.33 328.95,-148.26 356,-138.01 453.95,-100.87 579.26,-102.08 645.22,-106.09" />
</g>

<g id="node35" class="node" x-title="0x7f8ff56058e0">
<polygon fill="lightgrey" stroke="black" points="317,-126.51 243,-126.51 243,-107.51 317,-107.51 317,-126.51" />
<text text-anchor="middle" x="280" y="-114.51" font-family="Times,serif" font-size="10.00">dat/asassn.csv</text>
</g>

<g id="edge59" class="edge" x-title="0x7f8ff56058e0-&gt;0x7f8ff56055b0">
<path fill="none" stroke="black" d="M296.83,-126.92C319.15,-140.89 359.85,-166.37 384.17,-181.59" />
</g>

<g id="edge60" class="edge" x-title="0x7f8ff56058e0-&gt;0x7f8ff5705660">
<path fill="none" stroke="black" d="M317.34,-107.06C329.53,-104.18 343.26,-101.43 356,-100.01 462.89,-88.04 490.6,-94.22 598,-100.01 614.13,-100.88 631.77,-102.59 647.28,-104.36" />
</g>

<g id="node36" class="node" x-title="0x7f8ff5605390">
<polygon fill="lightgrey" stroke="black" points="579,-465.51 509,-465.51 509,-446.51 579,-446.51 579,-465.51" />
<text text-anchor="middle" x="544" y="-453.51" font-family="Times,serif" font-size="10.00">dat/stars.json</text>
</g>

<g id="edge61" class="edge" x-title="0x7f8ff5605390-&gt;0x7f8ff5604f20">
<path fill="none" stroke="black" d="M579.48,-456.01C596.37,-456.01 617.11,-456.01 636.07,-456.01" />
</g>
</g>
<script>function fade(node, reset=false) {
    node.style.opacity = reset ? "" : "20%";
}
function getDisconnectedElems(node) {
    const nodeId = node.getAttribute("x-title");
    const connectedIds = [nodeId];
    const ret = [];
    for (const edge of document.querySelectorAll('.edge')) {
        const edgeId = edge.getAttribute("x-title");
        const nodeIds = edgeId.split('-&gt;');
        if (nodeIds.includes(nodeId)) {
            const otherNodeId = nodeIds[Number(nodeIds[0] == nodeId)];
            if (!ret.includes(otherNodeId))
                connectedIds.push(otherNodeId);
            connectedIds.push(edgeId);
        }
    }
    for (const el of document.querySelectorAll('.node, .edge')) {
        const id = el.getAttribute("x-title");
        if (!connectedIds.includes(id))
            ret.push(el);
    }
    return ret;
}
function highlight(ev) {
    const el = ev.target;
    const reset = ev.type == 'mouseleave';
    if (el.className.baseVal != "node" &amp;&amp; !reset)
        return;
    for (const elem of getDisconnectedElems(el))
        fade(elem, reset);
}
for (const el of document.querySelectorAll('.node, .edge')) {
    el.onmouseenter = highlight;
    el.onmouseleave = highlight;
}
</script></svg>