<?xml version="1.0" encoding="UTF-8" standalone="no"?>
<!DOCTYPE svg PUBLIC "-//W3C//DTD SVG 1.1//EN"
 "http://www.w3.org/Graphics/SVG/1.1/DTD/svg11.dtd">
<!-- Generated by graphviz version 7.0.5 (20221223.1930)
 -->
<!-- Title: gvpr_result Pages: 1 -->
<svg width="1420pt" height="792pt"
 viewBox="0.00 0.00 1420.00 792.08" xmlns="http://www.w3.org/2000/svg" xmlns:xlink="http://www.w3.org/1999/xlink">
<g id="graph0" class="graph" transform="scale(1 1) rotate(0) translate(4 788.08)">
<title>gvpr_result</title>
<polygon fill="white" stroke="none" points="-4,4 -4,-788.08 1416,-788.08 1416,4 -4,4"/>
<!-- 0x1e0e220 -->
<g id="node1" class="node">
<title>0x1e0e220</title>
<polygon fill="lightgrey" stroke="black" points="1002,-728.08 945,-728.08 945,-709.08 1002,-709.08 1002,-728.08"/>
<text text-anchor="middle" x="973.5" y="-716.08" font-family="Times,serif" font-size="10.00">dag.svg</text>
</g>
<!-- 0x1e0d030 -->
<g id="node2" class="node">
<title>0x1e0d030</title>
<ellipse fill="lightgrey" stroke="black" cx="792" cy="-718.58" rx="47.5" ry="13.5"/>
<text text-anchor="middle" x="792" y="-716.08" font-family="Times,serif" font-size="10.00">gengraph</text>
</g>
<!-- 0x1e0d030&#45;&gt;0x1e0e220 -->
<g id="edge1" class="edge">
<title>0x1e0d030&#45;&gt;0x1e0e220</title>
<path fill="none" stroke="black" d="M839.69,-718.58C868.78,-718.58 905.77,-718.58 933.32,-718.58"/>
<polygon fill="black" stroke="black" points="932.99,-722.08 942.99,-718.58 932.99,-715.08 932.99,-722.08"/>
</g>
<!-- 0x1e0d460 -->
<g id="node3" class="node">
<title>0x1e0d460</title>
<polygon fill="lightgrey" stroke="black" points="658,-745.08 587,-745.08 587,-726.08 658,-726.08 658,-745.08"/>
<text text-anchor="middle" x="622.5" y="-733.08" font-family="Times,serif" font-size="10.00">build.ninja</text>
</g>
<!-- 0x1e0d460&#45;&gt;0x1e0d030 -->
<g id="edge2" class="edge">
<title>0x1e0d460&#45;&gt;0x1e0d030</title>
<path fill="none" stroke="black" d="M658.21,-732.06C683.89,-729.45 719.07,-725.88 746.77,-723.07"/>
</g>
<!-- 0x1e0d530 -->
<g id="node4" class="node">
<title>0x1e0d530</title>
<polygon fill="lightgrey" stroke="black" points="659.5,-708.08 585.5,-708.08 585.5,-689.08 659.5,-689.08 659.5,-708.08"/>
<text text-anchor="middle" x="622.5" y="-696.08" font-family="Times,serif" font-size="10.00">lib/graph.js</text>
</g>
<!-- 0x1e0d530&#45;&gt;0x1e0d030 -->
<g id="edge3" class="edge">
<title>0x1e0d530&#45;&gt;0x1e0d030</title>
<path fill="none" stroke="black" d="M659.85,-702.92C685.63,-706 720.36,-710.14 747.6,-713.4"/>
</g>
<!-- 0x1e0d6b0 -->
<g id="node5" class="node">
<title>0x1e0d6b0</title>
<ellipse fill="lightgrey" stroke="black" cx="461.5" cy="-735.58" rx="46" ry="13.5"/>
<text text-anchor="middle" x="461.5" y="-733.08" font-family="Times,serif" font-size="10.00">..build.py</text>
</g>
<!-- 0x1e0d6b0&#45;&gt;0x1e0d460 -->
<g id="edge4" class="edge">
<title>0x1e0d6b0&#45;&gt;0x1e0d460</title>
<path fill="none" stroke="black" d="M507.64,-735.58C528.79,-735.58 553.95,-735.58 575.24,-735.58"/>
<polygon fill="black" stroke="black" points="575.1,-739.08 585.1,-735.58 575.1,-732.08 575.1,-739.08"/>
</g>
<!-- 0x1e0dab0 -->
<g id="node6" class="node">
<title>0x1e0dab0</title>
<polygon fill="lightgrey" stroke="black" points="347,-784.08 293,-784.08 293,-765.08 347,-765.08 347,-784.08"/>
<text text-anchor="middle" x="320" y="-772.08" font-family="Times,serif" font-size="10.00">lib/x.py</text>
</g>
<!-- 0x1e0dab0&#45;&gt;0x1e0d6b0 -->
<g id="edge5" class="edge">
<title>0x1e0dab0&#45;&gt;0x1e0d6b0</title>
<path fill="none" stroke="black" d="M347.24,-767.24C369.81,-760.93 402.51,-751.79 426.97,-744.95"/>
</g>
<!-- 0x1e0db80 -->
<g id="node7" class="node">
<title>0x1e0db80</title>
<polygon fill="lightgrey" stroke="black" points="89,-404.08 0,-404.08 0,-385.08 89,-385.08 89,-404.08"/>
<text text-anchor="middle" x="44.5" y="-392.08" font-family="Times,serif" font-size="10.00">dat/config.yml</text>
</g>
<!-- 0x1e0db80&#45;&gt;0x1e0d6b0 -->
<g id="edge6" class="edge">
<title>0x1e0db80&#45;&gt;0x1e0d6b0</title>
<path fill="none" stroke="black" d="M45.14,-404.41C44.23,-444.25 46.27,-595.37 125,-674.58 203.77,-753.83 348.77,-749.38 419.51,-741.57"/>
</g>
<!-- 0x1e0dea0 -->
<g id="node8" class="node">
<title>0x1e0dea0</title>
<ellipse fill="lightgrey" stroke="black" cx="181" cy="-434.58" rx="56" ry="13.5"/>
<text text-anchor="middle" x="181" y="-432.08" font-family="Times,serif" font-size="10.00">src.query.py</text>
</g>
<!-- 0x1e0db80&#45;&gt;0x1e0dea0 -->
<g id="edge7" class="edge">
<title>0x1e0db80&#45;&gt;0x1e0dea0</title>
<path fill="none" stroke="black" d="M79.09,-404.57C99.01,-410.49 124.24,-418 144.49,-424.02"/>
</g>
<!-- 0x1e0f540 -->
<g id="node9" class="node">
<title>0x1e0f540</title>
<ellipse fill="lightgrey" stroke="black" cx="461.5" cy="-276.58" rx="58.5" ry="13.5"/>
<text text-anchor="middle" x="461.5" y="-274.08" font-family="Times,serif" font-size="10.00">src.period.py</text>
</g>
<!-- 0x1e0db80&#45;&gt;0x1e0f540 -->
<g id="edge8" class="edge">
<title>0x1e0db80&#45;&gt;0x1e0f540</title>
<path fill="none" stroke="black" d="M58.04,-384.71C73.17,-373.21 99.71,-354.3 125,-342.58 216.83,-300.01 335.16,-284.87 403.96,-279.5"/>
</g>
<!-- 0x1e0fc10 -->
<g id="node10" class="node">
<title>0x1e0fc10</title>
<ellipse fill="lightgrey" stroke="black" cx="1165" cy="-528.58" rx="77" ry="13.5"/>
<text text-anchor="middle" x="1165" y="-526.08" font-family="Times,serif" font-size="10.00">src.color_index.py</text>
</g>
<!-- 0x1e0db80&#45;&gt;0x1e0fc10 -->
<g id="edge9" class="edge">
<title>0x1e0db80&#45;&gt;0x1e0fc10</title>
<path fill="none" stroke="black" d="M48.71,-404.25C57.47,-429.44 83.9,-498.18 125,-541.58 194.55,-615.02 217.85,-660.58 319,-660.58 319,-660.58 319,-660.58 793,-660.58 908.93,-660.58 946.45,-677.54 1052,-629.58 1096.58,-609.33 1135.79,-564.77 1153.69,-542.22"/>
</g>
<!-- 0x1e0e670 -->
<g id="node11" class="node">
<title>0x1e0e670</title>
<ellipse fill="lightgrey" stroke="black" cx="792" cy="-510.58" rx="67" ry="13.5"/>
<text text-anchor="middle" x="792" y="-508.08" font-family="Times,serif" font-size="10.00">src.calibrate.py</text>
</g>
<!-- 0x1e0db80&#45;&gt;0x1e0e670 -->
<g id="edge10" class="edge">
<title>0x1e0db80&#45;&gt;0x1e0e670</title>
<path fill="none" stroke="black" d="M52.46,-404.53C80.74,-443.62 191.52,-584.58 319,-584.58 319,-584.58 319,-584.58 462.5,-584.58 573.87,-584.58 701.39,-543.6 759.36,-522.63"/>
</g>
<!-- 0x1e105e0 -->
<g id="node12" class="node">
<title>0x1e105e0</title>
<ellipse fill="lightgrey" stroke="black" cx="1165" cy="-436.58" rx="75.5" ry="13.5"/>
<text text-anchor="middle" x="1165" y="-434.08" font-family="Times,serif" font-size="10.00">src.lightcurves.py</text>
</g>
<!-- 0x1e0db80&#45;&gt;0x1e105e0 -->
<g id="edge11" class="edge">
<title>0x1e0db80&#45;&gt;0x1e105e0</title>
<path fill="none" stroke="black" d="M47.37,-384.8C59.33,-325.33 130.83,-14.58 319,-14.58 319,-14.58 319,-14.58 793,-14.58 908.78,-14.58 963.5,32.08 1052,-42.58 1113.15,-94.16 1153.33,-359.43 1162.16,-422.92"/>
</g>
<!-- 0x1e10df0 -->
<g id="node13" class="node">
<title>0x1e10df0</title>
<ellipse fill="lightgrey" stroke="black" cx="792" cy="-128.58" rx="50" ry="13.5"/>
<text text-anchor="middle" x="792" y="-126.08" font-family="Times,serif" font-size="10.00">src.tess.py</text>
</g>
<!-- 0x1e0db80&#45;&gt;0x1e10df0 -->
<g id="edge12" class="edge">
<title>0x1e0db80&#45;&gt;0x1e10df0</title>
<path fill="none" stroke="black" d="M50.7,-384.8C71.95,-345.97 156.63,-202.2 273,-147.58 436.54,-70.83 662.13,-102.77 751.88,-120.13"/>
</g>
<!-- 0x1e11060 -->
<g id="node14" class="node">
<title>0x1e11060</title>
<ellipse fill="lightgrey" stroke="black" cx="792" cy="-356.58" rx="60" ry="13.5"/>
<text text-anchor="middle" x="792" y="-354.08" font-family="Times,serif" font-size="10.00">src.asassn.py</text>
</g>
<!-- 0x1e0db80&#45;&gt;0x1e11060 -->
<g id="edge13" class="edge">
<title>0x1e0db80&#45;&gt;0x1e11060</title>
<path fill="none" stroke="black" d="M89.35,-392.34C217.08,-385.83 588.91,-366.88 733,-359.54"/>
</g>
<!-- 0x1e0dc50 -->
<g id="node15" class="node">
<title>0x1e0dc50</title>
<polygon fill="lightgrey" stroke="black" points="367,-461.08 273,-461.08 273,-442.08 367,-442.08 367,-461.08"/>
<text text-anchor="middle" x="320" y="-449.08" font-family="Times,serif" font-size="10.00">dat/known.json</text>
</g>
<!-- 0x1e0dea0&#45;&gt;0x1e0dc50 -->
<g id="edge14" class="edge">
<title>0x1e0dea0&#45;&gt;0x1e0dc50</title>
<path fill="none" stroke="black" d="M231.46,-440.72C241.26,-441.93 251.63,-443.22 261.66,-444.46"/>
<polygon fill="black" stroke="black" points="260.95,-447.9 271.31,-445.66 261.81,-440.96 260.95,-447.9"/>
</g>
<!-- 0x1e0f8c0 -->
<g id="node16" class="node">
<title>0x1e0f8c0</title>
<polygon fill="lightgrey" stroke="black" points="689,-252.08 556,-252.08 556,-233.08 689,-233.08 689,-252.08"/>
<text text-anchor="middle" x="622.5" y="-240.08" font-family="Times,serif" font-size="10.00">img/period/asassn.png</text>
</g>
<!-- 0x1e0f540&#45;&gt;0x1e0f8c0 -->
<g id="edge15" class="edge">
<title>0x1e0f540&#45;&gt;0x1e0f8c0</title>
<path fill="none" stroke="black" d="M505.53,-267.38C523.44,-263.55 544.51,-259.04 563.74,-254.93"/>
<polygon fill="black" stroke="black" points="564.28,-258.39 573.33,-252.88 562.82,-251.55 564.28,-258.39"/>
</g>
<!-- 0x1e0f2c0 -->
<g id="node17" class="node">
<title>0x1e0f2c0</title>
<polygon fill="lightgrey" stroke="black" points="669,-328.08 576,-328.08 576,-309.08 669,-309.08 669,-328.08"/>
<text text-anchor="middle" x="622.5" y="-316.08" font-family="Times,serif" font-size="10.00">dat/period.json</text>
</g>
<!-- 0x1e0f540&#45;&gt;0x1e0f2c0 -->
<g id="edge16" class="edge">
<title>0x1e0f540&#45;&gt;0x1e0f2c0</title>
<path fill="none" stroke="black" d="M501.4,-286.85C522.97,-292.55 549.99,-299.69 572.93,-305.75"/>
<polygon fill="black" stroke="black" points="571.8,-309.07 582.36,-308.24 573.59,-302.3 571.8,-309.07"/>
</g>
<!-- 0x1e10260 -->
<g id="node18" class="node">
<title>0x1e10260</title>
<polygon fill="lightgrey" stroke="black" points="1405.5,-538.08 1284.5,-538.08 1284.5,-519.08 1405.5,-519.08 1405.5,-538.08"/>
<text text-anchor="middle" x="1345" y="-526.08" font-family="Times,serif" font-size="10.00">img/color_index.png</text>
</g>
<!-- 0x1e0fc10&#45;&gt;0x1e10260 -->
<g id="edge17" class="edge">
<title>0x1e0fc10&#45;&gt;0x1e10260</title>
<path fill="none" stroke="black" d="M1242.26,-528.58C1252.41,-528.58 1262.78,-528.58 1272.84,-528.58"/>
<polygon fill="black" stroke="black" points="1272.51,-532.08 1282.51,-528.58 1272.51,-525.08 1272.51,-532.08"/>
</g>
<!-- 0x1e0ed50 -->
<g id="node19" class="node">
<title>0x1e0ed50</title>
<polygon fill="lightgrey" stroke="black" points="1005,-520.08 942,-520.08 942,-501.08 1005,-501.08 1005,-520.08"/>
<text text-anchor="middle" x="973.5" y="-508.08" font-family="Times,serif" font-size="10.00">dat/B.csv</text>
</g>
<!-- 0x1e0e670&#45;&gt;0x1e0ed50 -->
<g id="edge18" class="edge">
<title>0x1e0e670&#45;&gt;0x1e0ed50</title>
<path fill="none" stroke="black" d="M859.33,-510.58C882.98,-510.58 908.97,-510.58 930.07,-510.58"/>
<polygon fill="black" stroke="black" points="930.04,-514.08 940.04,-510.58 930.04,-507.08 930.04,-514.08"/>
</g>
<!-- 0x1e0ee00 -->
<g id="node20" class="node">
<title>0x1e0ee00</title>
<polygon fill="lightgrey" stroke="black" points="1004,-483.08 943,-483.08 943,-464.08 1004,-464.08 1004,-483.08"/>
<text text-anchor="middle" x="973.5" y="-471.08" font-family="Times,serif" font-size="10.00">dat/V.csv</text>
</g>
<!-- 0x1e0e670&#45;&gt;0x1e0ee00 -->
<g id="edge19" class="edge">
<title>0x1e0e670&#45;&gt;0x1e0ee00</title>
<path fill="none" stroke="black" d="M840.16,-500.86C868.52,-495.01 904.26,-487.65 931.45,-482.04"/>
<polygon fill="black" stroke="black" points="931.96,-485.51 941.05,-480.06 930.55,-478.65 931.96,-485.51"/>
</g>
<!-- 0x1e0eeb0 -->
<g id="node21" class="node">
<title>0x1e0eeb0</title>
<polygon fill="lightgrey" stroke="black" points="1008.5,-446.08 938.5,-446.08 938.5,-427.08 1008.5,-427.08 1008.5,-446.08"/>
<text text-anchor="middle" x="973.5" y="-434.08" font-family="Times,serif" font-size="10.00">dat/SG.csv</text>
</g>
<!-- 0x1e0e670&#45;&gt;0x1e0eeb0 -->
<g id="edge20" class="edge">
<title>0x1e0e670&#45;&gt;0x1e0eeb0</title>
<path fill="none" stroke="black" d="M812.91,-497.49C832.92,-484.87 865,-466.05 895,-454.58 905.25,-450.66 916.59,-447.44 927.37,-444.87"/>
<polygon fill="black" stroke="black" points="927.86,-448.34 936.85,-442.74 926.33,-441.51 927.86,-448.34"/>
</g>
<!-- 0x1e0ef60 -->
<g id="node22" class="node">
<title>0x1e0ef60</title>
<polygon fill="lightgrey" stroke="black" points="1008.5,-594.08 938.5,-594.08 938.5,-575.08 1008.5,-575.08 1008.5,-594.08"/>
<text text-anchor="middle" x="973.5" y="-582.08" font-family="Times,serif" font-size="10.00">dat/SR.csv</text>
</g>
<!-- 0x1e0e670&#45;&gt;0x1e0ef60 -->
<g id="edge21" class="edge">
<title>0x1e0e670&#45;&gt;0x1e0ef60</title>
<path fill="none" stroke="black" d="M813.74,-523.8C833.84,-536.12 865.52,-554.23 895,-565.58 905.27,-569.53 916.62,-572.86 927.4,-575.57"/>
<polygon fill="black" stroke="black" points="926.35,-578.92 936.89,-577.82 927.97,-572.11 926.35,-578.92"/>
</g>
<!-- 0x1e0f010 -->
<g id="node23" class="node">
<title>0x1e0f010</title>
<polygon fill="lightgrey" stroke="black" points="1006.5,-557.08 940.5,-557.08 940.5,-538.08 1006.5,-538.08 1006.5,-557.08"/>
<text text-anchor="middle" x="973.5" y="-545.08" font-family="Times,serif" font-size="10.00">dat/SI.csv</text>
</g>
<!-- 0x1e0e670&#45;&gt;0x1e0f010 -->
<g id="edge22" class="edge">
<title>0x1e0e670&#45;&gt;0x1e0f010</title>
<path fill="none" stroke="black" d="M840.16,-520.3C867.7,-525.98 902.2,-533.09 929.08,-538.63"/>
<polygon fill="black" stroke="black" points="928.1,-542 938.6,-540.59 929.51,-535.14 928.1,-542"/>
</g>
<!-- 0x1e108e0 -->
<g id="node24" class="node">
<title>0x1e108e0</title>
<polygon fill="lightgrey" stroke="black" points="1412,-446.08 1278,-446.08 1278,-427.08 1412,-427.08 1412,-446.08"/>
<text text-anchor="middle" x="1345" y="-434.08" font-family="Times,serif" font-size="10.00">img/lightcurves/all.png</text>
</g>
<!-- 0x1e105e0&#45;&gt;0x1e108e0 -->
<g id="edge23" class="edge">
<title>0x1e105e0&#45;&gt;0x1e108e0</title>
<path fill="none" stroke="black" d="M1240.97,-436.58C1249.33,-436.58 1257.86,-436.58 1266.26,-436.58"/>
<polygon fill="black" stroke="black" points="1266.08,-440.08 1276.08,-436.58 1266.08,-433.08 1266.08,-440.08"/>
</g>
<!-- 0x1e10e80 -->
<g id="node25" class="node">
<title>0x1e10e80</title>
<polygon fill="lightgrey" stroke="black" points="1045,-138.08 902,-138.08 902,-119.08 1045,-119.08 1045,-138.08"/>
<text text-anchor="middle" x="973.5" y="-126.08" font-family="Times,serif" font-size="10.00">img/lightcurves/tess.png</text>
</g>
<!-- 0x1e10df0&#45;&gt;0x1e10e80 -->
<g id="edge24" class="edge">
<title>0x1e10df0&#45;&gt;0x1e10e80</title>
<path fill="none" stroke="black" d="M842.05,-128.58C856.98,-128.58 873.81,-128.58 890.3,-128.58"/>
<polygon fill="black" stroke="black" points="890.12,-132.08 900.12,-128.58 890.12,-125.08 890.12,-132.08"/>
</g>
<!-- 0x1e11460 -->
<g id="node26" class="node">
<title>0x1e11460</title>
<polygon fill="lightgrey" stroke="black" points="1052,-366.08 895,-366.08 895,-347.08 1052,-347.08 1052,-366.08"/>
<text text-anchor="middle" x="973.5" y="-354.08" font-family="Times,serif" font-size="10.00">img/lightcurves/asassn.png</text>
</g>
<!-- 0x1e11060&#45;&gt;0x1e11460 -->
<g id="edge25" class="edge">
<title>0x1e11060&#45;&gt;0x1e11460</title>
<path fill="none" stroke="black" d="M852.27,-356.58C862.25,-356.58 872.79,-356.58 883.32,-356.58"/>
<polygon fill="black" stroke="black" points="883.21,-360.08 893.21,-356.58 883.21,-353.08 883.21,-360.08"/>
</g>
<!-- 0x1e0dc50&#45;&gt;0x1e0d6b0 -->
<g id="edge26" class="edge">
<title>0x1e0dc50&#45;&gt;0x1e0d6b0</title>
<path fill="none" stroke="black" d="M324.9,-461.38C336.09,-489.26 369.64,-571.17 403,-636.58 418.99,-667.92 440.35,-703.25 452.02,-722.07"/>
</g>
<!-- 0x1e0dc50&#45;&gt;0x1e0f540 -->
<g id="edge27" class="edge">
<title>0x1e0dc50&#45;&gt;0x1e0f540</title>
<path fill="none" stroke="black" d="M328.9,-441.67C352.53,-412.02 422.7,-323.99 449.73,-290.1"/>
</g>
<!-- 0x1e0dc50&#45;&gt;0x1e0fc10 -->
<g id="edge28" class="edge">
<title>0x1e0dc50&#45;&gt;0x1e0fc10</title>
<path fill="none" stroke="black" d="M330.01,-461.51C364.16,-498.01 490.34,-622.58 621.5,-622.58 621.5,-622.58 621.5,-622.58 793,-622.58 908.45,-622.58 942.79,-640.04 1052,-602.58 1090.58,-589.35 1128.75,-559.62 1149.04,-542.14"/>
</g>
<!-- 0x1e0dc50&#45;&gt;0x1e0e670 -->
<g id="edge29" class="edge">
<title>0x1e0dc50&#45;&gt;0x1e0e670</title>
<path fill="none" stroke="black" d="M343.71,-461.54C360.03,-468.49 382.64,-477.71 403,-484.58 469.82,-507.11 486.12,-517.16 556,-526.58 614.58,-534.47 630.07,-531.17 689,-526.58 706.33,-525.23 725.18,-522.6 741.9,-519.86"/>
</g>
<!-- 0x1e0dc50&#45;&gt;0x1e105e0 -->
<g id="edge30" class="edge">
<title>0x1e0dc50&#45;&gt;0x1e105e0</title>
<path fill="none" stroke="black" d="M367.38,-454.9C379,-455.6 391.45,-456.23 403,-456.58 454.98,-458.16 468.07,-459.27 520,-456.58 756.76,-444.3 815.76,-397.68 1052,-417.58 1072.44,-419.3 1094.76,-422.76 1114.05,-426.26"/>
</g>
<!-- 0x1e0dc50&#45;&gt;0x1e10df0 -->
<g id="edge31" class="edge">
<title>0x1e0dc50&#45;&gt;0x1e10df0</title>
<path fill="none" stroke="black" d="M333.48,-441.61C367.35,-415 464.56,-341.48 556,-299.58 612,-273.92 638.13,-295.31 689,-260.58 735.64,-228.73 770.41,-168.81 784.33,-142.07"/>
</g>
<!-- 0x1e0dc50&#45;&gt;0x1e11060 -->
<g id="edge32" class="edge">
<title>0x1e0dc50&#45;&gt;0x1e11060</title>
<path fill="none" stroke="black" d="M367.38,-451.38C438.22,-449.92 576.95,-442.49 689,-408.58 719.06,-399.48 750.87,-381.81 770.82,-369.61"/>
</g>
<!-- 0x1e0f2c0&#45;&gt;0x1e0e670 -->
<g id="edge33" class="edge">
<title>0x1e0f2c0&#45;&gt;0x1e0e670</title>
<path fill="none" stroke="black" d="M632.04,-328.36C659.7,-360.08 746.96,-460.09 779.02,-496.85"/>
</g>
<!-- 0x1e0f2c0&#45;&gt;0x1e105e0 -->
<g id="edge34" class="edge">
<title>0x1e0f2c0&#45;&gt;0x1e105e0</title>
<path fill="none" stroke="black" d="M669.38,-310.97C750.14,-299.62 921.51,-284.84 1052,-337.58 1096.99,-355.76 1136.02,-400.21 1153.78,-422.84"/>
</g>
<!-- 0x1e0f2c0&#45;&gt;0x1e10df0 -->
<g id="edge35" class="edge">
<title>0x1e0f2c0&#45;&gt;0x1e10df0</title>
<path fill="none" stroke="black" d="M668.63,-308.62C676.25,-305.23 683.46,-300.68 689,-294.58 731.62,-247.66 683.57,-204.55 725,-156.58 732.48,-147.91 743.11,-141.86 753.66,-137.66"/>
</g>
<!-- 0x1e0f2c0&#45;&gt;0x1e11060 -->
<g id="edge36" class="edge">
<title>0x1e0f2c0&#45;&gt;0x1e11060</title>
<path fill="none" stroke="black" d="M667.51,-328.56C692.52,-334.24 723.68,-341.31 748.44,-346.92"/>
</g>
<!-- 0x1e0ed50&#45;&gt;0x1e0fc10 -->
<g id="edge37" class="edge">
<title>0x1e0ed50&#45;&gt;0x1e0fc10</title>
<path fill="none" stroke="black" d="M1005.37,-513.51C1029.91,-515.84 1065.15,-519.19 1096.19,-522.14"/>
</g>
<!-- 0x1e0ed50&#45;&gt;0x1e105e0 -->
<g id="edge38" class="edge">
<title>0x1e0ed50&#45;&gt;0x1e105e0</title>
<path fill="none" stroke="black" d="M1005.13,-504.67C1019.57,-501.48 1036.9,-497.07 1052,-491.58 1083.97,-479.97 1118.85,-461.91 1141.05,-449.68"/>
</g>
<!-- 0x1e0ee00&#45;&gt;0x1e0fc10 -->
<g id="edge39" class="edge">
<title>0x1e0ee00&#45;&gt;0x1e0fc10</title>
<path fill="none" stroke="black" d="M1004.47,-479.87C1018.91,-483.08 1036.44,-487.21 1052,-491.58 1078.22,-498.94 1107.43,-508.64 1129.44,-516.26"/>
</g>
<!-- 0x1e0ee00&#45;&gt;0x1e105e0 -->
<g id="edge40" class="edge">
<title>0x1e0ee00&#45;&gt;0x1e105e0</title>
<path fill="none" stroke="black" d="M1004.11,-467.8C1033.05,-462.15 1077.7,-453.43 1112.47,-446.64"/>
</g>
<!-- 0x1e0eeb0&#45;&gt;0x1e0fc10 -->
<g id="edge41" class="edge">
<title>0x1e0eeb0&#45;&gt;0x1e0fc10</title>
<path fill="none" stroke="black" d="M1008.9,-441.84C1022.66,-444.64 1038.42,-448.74 1052,-454.58 1088.83,-470.41 1126.73,-498.37 1147.63,-515.02"/>
</g>
<!-- 0x1e0eeb0&#45;&gt;0x1e105e0 -->
<g id="edge42" class="edge">
<title>0x1e0eeb0&#45;&gt;0x1e105e0</title>
<path fill="none" stroke="black" d="M1008.82,-436.58C1031.22,-436.58 1061.35,-436.58 1089.1,-436.58"/>
</g>
<!-- 0x1e0ef60&#45;&gt;0x1e0fc10 -->
<g id="edge43" class="edge">
<title>0x1e0ef60&#45;&gt;0x1e0fc10</title>
<path fill="none" stroke="black" d="M1008.99,-576.74C1022.47,-573.51 1038.02,-569.6 1052,-565.58 1077.98,-558.12 1106.95,-548.51 1128.91,-540.96"/>
</g>
<!-- 0x1e0ef60&#45;&gt;0x1e105e0 -->
<g id="edge44" class="edge">
<title>0x1e0ef60&#45;&gt;0x1e105e0</title>
<path fill="none" stroke="black" d="M1008.62,-582.05C1023.12,-579.58 1039.51,-574.79 1052,-565.58 1077.03,-547.12 1068.28,-529.62 1088,-505.58 1105.63,-484.09 1130,-463.16 1146.34,-450.1"/>
</g>
<!-- 0x1e0f010&#45;&gt;0x1e0fc10 -->
<g id="edge45" class="edge">
<title>0x1e0f010&#45;&gt;0x1e0fc10</title>
<path fill="none" stroke="black" d="M1006.65,-544.36C1031.36,-541.88 1066.35,-538.37 1097.06,-535.29"/>
</g>
<!-- 0x1e0f010&#45;&gt;0x1e105e0 -->
<g id="edge46" class="edge">
<title>0x1e0f010&#45;&gt;0x1e105e0</title>
<path fill="none" stroke="black" d="M1006.93,-542.98C1021.26,-540.11 1038,-535.59 1052,-528.58 1073.26,-517.94 1124.18,-472.86 1149.37,-450"/>
</g>
<!-- 0x1e0dd20 -->
<g id="node27" class="node">
<title>0x1e0dd20</title>
<polygon fill="lightgrey" stroke="black" points="349.5,-708.08 290.5,-708.08 290.5,-689.08 349.5,-689.08 349.5,-708.08"/>
<text text-anchor="middle" x="320" y="-696.08" font-family="Times,serif" font-size="10.00">build.py</text>
</g>
<!-- 0x1e0dd20&#45;&gt;0x1e0d6b0 -->
<g id="edge47" class="edge">
<title>0x1e0dd20&#45;&gt;0x1e0d6b0</title>
<path fill="none" stroke="black" d="M349.9,-706.25C372.09,-712.13 402.79,-720.27 426.22,-726.49"/>
</g>
<!-- 0x1e0f960 -->
<g id="node28" class="node">
<title>0x1e0f960</title>
<polygon fill="lightgrey" stroke="black" points="359,-176.08 281,-176.08 281,-157.08 359,-157.08 359,-176.08"/>
<text text-anchor="middle" x="320" y="-164.08" font-family="Times,serif" font-size="10.00">matplotlibrc</text>
</g>
<!-- 0x1e0f960&#45;&gt;0x1e0f540 -->
<g id="edge48" class="edge">
<title>0x1e0f960&#45;&gt;0x1e0f540</title>
<path fill="none" stroke="black" d="M333.38,-176.34C358.45,-196.11 415.26,-240.9 443.66,-263.3"/>
</g>
<!-- 0x1e0f960&#45;&gt;0x1e0fc10 -->
<g id="edge49" class="edge">
<title>0x1e0f960&#45;&gt;0x1e0fc10</title>
<path fill="none" stroke="black" d="M359.48,-163.61C427.11,-159.38 571.31,-154.85 689,-181.58 860.24,-220.47 935.28,-206.38 1052,-337.58 1089.29,-379.5 1058.3,-410.98 1088,-458.58 1102.62,-482.02 1127.16,-502.59 1144.38,-515.26"/>
</g>
<!-- 0x1e0f960&#45;&gt;0x1e105e0 -->
<g id="edge50" class="edge">
<title>0x1e0f960&#45;&gt;0x1e105e0</title>
<path fill="none" stroke="black" d="M340.69,-156.7C432.17,-112.32 820.96,59.15 1052,-109.58 1158.13,-187.09 1164.64,-371.29 1164.31,-422.92"/>
</g>
<!-- 0x1e0f960&#45;&gt;0x1e10df0 -->
<g id="edge51" class="edge">
<title>0x1e0f960&#45;&gt;0x1e10df0</title>
<path fill="none" stroke="black" d="M359.26,-159.17C373,-156.74 388.65,-154.24 403,-152.58 524.34,-138.51 668.06,-132.34 741.85,-129.93"/>
</g>
<!-- 0x1e0f960&#45;&gt;0x1e11060 -->
<g id="edge52" class="edge">
<title>0x1e0f960&#45;&gt;0x1e11060</title>
<path fill="none" stroke="black" d="M359.35,-173.29C373.11,-175.65 388.74,-178.29 403,-180.58 529.91,-200.95 578.28,-158.28 689,-223.58 738.13,-252.55 771.82,-315.12 784.91,-342.86"/>
</g>
<!-- 0x1e0f9e0 -->
<g id="node29" class="node">
<title>0x1e0f9e0</title>
<polygon fill="lightgrey" stroke="black" points="365,-327.08 275,-327.08 275,-308.08 365,-308.08 365,-327.08"/>
<text text-anchor="middle" x="320" y="-315.08" font-family="Times,serif" font-size="10.00">dat/asassn.csv</text>
</g>
<!-- 0x1e0f9e0&#45;&gt;0x1e0f540 -->
<g id="edge53" class="edge">
<title>0x1e0f9e0&#45;&gt;0x1e0f540</title>
<path fill="none" stroke="black" d="M354.77,-307.65C375.73,-301.49 402.67,-293.58 424.11,-287.27"/>
</g>
<!-- 0x1e0f9e0&#45;&gt;0x1e11060 -->
<g id="edge54" class="edge">
<title>0x1e0f9e0&#45;&gt;0x1e11060</title>
<path fill="none" stroke="black" d="M365.22,-321.25C451.14,-328.38 640.49,-344.09 735.02,-351.93"/>
</g>
<!-- 0x1e0f120 -->
<g id="node30" class="node">
<title>0x1e0f120</title>
<polygon fill="lightgrey" stroke="black" points="665,-518.08 580,-518.08 580,-499.08 665,-499.08 665,-518.08"/>
<text text-anchor="middle" x="622.5" y="-506.08" font-family="Times,serif" font-size="10.00">dat/stars.json</text>
</g>
<!-- 0x1e0f120&#45;&gt;0x1e0e670 -->
<g id="edge55" class="edge">
<title>0x1e0f120&#45;&gt;0x1e0e670</title>
<path fill="none" stroke="black" d="M665.34,-509.08C683.26,-509.29 704.64,-509.55 724.64,-509.79"/>
</g>
</g>
<script><![CDATA[
function child(el, tag) {
    for (c of el.children)
        if (c.tagName == tag)
            return c;
}
function colorNode(node, reset=false) {
    const container = child(node, "polygon") || child(node, "ellipse");
    const color = reset ? "black" : "#f00";
    container.style.stroke = color;
}
function colorEdge(edge, reset=false) {
    const path = child(edge, "path");
    const polygon = child(edge, "polygon");
    const color = reset ? "black" : "#f00";
    path.style.stroke = color;
    if (polygon) {
        polygon.style.fill = color;
        polygon.style.stroke = color;
    }
}
function connectedEdges(node) {
    const nodeTitle = child(node, "title").textContent;
    const ret = [];
    for (const edge of document.querySelectorAll('.edge')) {
        const edgeTitle = child(edge, "title").textContent;
        if (edgeTitle.includes(nodeTitle))
            ret.push(edge);
    }
    return ret;
}
function highlight(ev) {
    const el = ev.target;
    if (el.className.baseVal != "node")
        return;
    colorNode(el);
    for (const edge of connectedEdges(el))
        colorEdge(edge);
}
function unhighlight() {
    for (const el of document.querySelectorAll("g")) {
        if (el.className.baseVal == "node") {
            colorNode(el, reset=true);
        } else if (el.className.baseVal == "edge") {
            colorEdge(el, reset=true);
        }
    }
}
for (const el of document.querySelectorAll("g")) {
    el.onmouseenter = highlight;
    el.onmouseleave = unhighlight;
}
]]></script></svg>
