<?xml version="1.0" encoding="UTF-8" standalone="no"?>
<!DOCTYPE svg PUBLIC "-//W3C//DTD SVG 1.1//EN"
 "http://www.w3.org/Graphics/SVG/1.1/DTD/svg11.dtd">
<!-- Generated by graphviz version 7.0.5 (20221223.1930)
 -->
<!-- Title: gvpr_result Pages: 1 -->
<svg width="1353pt" height="625pt"
 viewBox="0.00 0.00 1353.00 624.50" xmlns="http://www.w3.org/2000/svg" xmlns:xlink="http://www.w3.org/1999/xlink">
<g id="graph0" class="graph" transform="scale(1 1) rotate(0) translate(4 620.5)">
<title>gvpr_result</title>
<polygon fill="white" stroke="none" points="-4,4 -4,-620.5 1349,-620.5 1349,4 -4,4"/>
<!-- 0x1c1c220 -->
<g id="node1" class="node">
<title>0x1c1c220</title>
<polygon fill="lightgrey" stroke="black" points="507.5,-56 450.5,-56 450.5,-37 507.5,-37 507.5,-56"/>
<text text-anchor="middle" x="479" y="-44" font-family="Times,serif" font-size="10.00">dag.svg</text>
</g>
<!-- 0x1c1aea0 -->
<g id="node2" class="node">
<title>0x1c1aea0</title>
<polygon fill="lightgrey" stroke="black" points="331.5,-56 260.5,-56 260.5,-37 331.5,-37 331.5,-56"/>
<text text-anchor="middle" x="296" y="-44" font-family="Times,serif" font-size="10.00">build.ninja</text>
</g>
<!-- 0x1c1aea0&#45;&gt;0x1c1c220 -->
<g id="edge1" class="edge">
<title>0x1c1aea0&#45;&gt;0x1c1c220</title>
<path fill="none" stroke="black" d="M331.9,-46.5C362.55,-46.5 407.09,-46.5 438.92,-46.5"/>
<polygon fill="black" stroke="black" points="438.52,-50 448.52,-46.5 438.52,-43 438.52,-50"/>
<text text-anchor="middle" x="388" y="-49.5" font-family="Times,serif" font-size="10.00"> gengraph</text>
</g>
<!-- 0x1c1b300 -->
<g id="node3" class="node">
<title>0x1c1b300</title>
<ellipse fill="lightgrey" stroke="black" cx="169" cy="-46.5" rx="41.54" ry="13.5"/>
<text text-anchor="middle" x="169" y="-44" font-family="Times,serif" font-size="10.00">build.py</text>
</g>
<!-- 0x1c1b300&#45;&gt;0x1c1aea0 -->
<g id="edge2" class="edge">
<title>0x1c1b300&#45;&gt;0x1c1aea0</title>
<path fill="none" stroke="black" d="M210.93,-46.5C223.14,-46.5 236.6,-46.5 249.11,-46.5"/>
<polygon fill="black" stroke="black" points="248.75,-50 258.75,-46.5 248.75,-43 248.75,-50"/>
</g>
<!-- 0x1c1b3b0 -->
<g id="node4" class="node">
<title>0x1c1b3b0</title>
<polygon fill="lightgrey" stroke="black" points="74,-93 15,-93 15,-74 74,-74 74,-93"/>
<text text-anchor="middle" x="44.5" y="-81" font-family="Times,serif" font-size="10.00">build.py</text>
</g>
<!-- 0x1c1b3b0&#45;&gt;0x1c1b300 -->
<g id="edge3" class="edge">
<title>0x1c1b3b0&#45;&gt;0x1c1b300</title>
<path fill="none" stroke="black" d="M74.22,-74.83C93.31,-69.06 118.35,-61.5 137.75,-55.64"/>
</g>
<!-- 0x1c1b450 -->
<g id="node5" class="node">
<title>0x1c1b450</title>
<polygon fill="lightgrey" stroke="black" points="71.5,-56 17.5,-56 17.5,-37 71.5,-37 71.5,-56"/>
<text text-anchor="middle" x="44.5" y="-44" font-family="Times,serif" font-size="10.00">lib/x.py</text>
</g>
<!-- 0x1c1b450&#45;&gt;0x1c1b300 -->
<g id="edge4" class="edge">
<title>0x1c1b450&#45;&gt;0x1c1b300</title>
<path fill="none" stroke="black" d="M71.78,-46.5C87.95,-46.5 109.01,-46.5 127.3,-46.5"/>
</g>
<!-- 0x1c1b520 -->
<g id="node6" class="node">
<title>0x1c1b520</title>
<polygon fill="lightgrey" stroke="black" points="81.5,-19 7.5,-19 7.5,0 81.5,0 81.5,-19"/>
<text text-anchor="middle" x="44.5" y="-7" font-family="Times,serif" font-size="10.00">lib/graph.js</text>
</g>
<!-- 0x1c1b520&#45;&gt;0x1c1b300 -->
<g id="edge5" class="edge">
<title>0x1c1b520&#45;&gt;0x1c1b300</title>
<path fill="none" stroke="black" d="M78.33,-19.42C96.75,-24.98 119.59,-31.88 137.61,-37.32"/>
</g>
<!-- 0x1c1d010 -->
<g id="node7" class="node">
<title>0x1c1d010</title>
<polygon fill="lightgrey" stroke="black" points="695,-588 562,-588 562,-569 695,-569 695,-588"/>
<text text-anchor="middle" x="628.5" y="-576" font-family="Times,serif" font-size="10.00">img/period/asassn.png</text>
</g>
<!-- 0x1c1cf30 -->
<g id="node8" class="node">
<title>0x1c1cf30</title>
<ellipse fill="lightgrey" stroke="black" cx="479" cy="-553.5" rx="46" ry="13.5"/>
<text text-anchor="middle" x="479" y="-551" font-family="Times,serif" font-size="10.00">period.py</text>
</g>
<!-- 0x1c1cf30&#45;&gt;0x1c1d010 -->
<g id="edge6" class="edge">
<title>0x1c1cf30&#45;&gt;0x1c1d010</title>
<path fill="none" stroke="black" d="M519.53,-560.2C531.21,-562.18 544.36,-564.41 557.37,-566.61"/>
<polygon fill="black" stroke="black" points="556.78,-570.06 567.22,-568.28 557.95,-563.16 556.78,-570.06"/>
</g>
<!-- 0x1c1cbf0 -->
<g id="node9" class="node">
<title>0x1c1cbf0</title>
<polygon fill="lightgrey" stroke="black" points="675,-512 582,-512 582,-493 675,-493 675,-512"/>
<text text-anchor="middle" x="628.5" y="-500" font-family="Times,serif" font-size="10.00">dat/period.json</text>
</g>
<!-- 0x1c1cf30&#45;&gt;0x1c1cbf0 -->
<g id="edge7" class="edge">
<title>0x1c1cf30&#45;&gt;0x1c1cbf0</title>
<path fill="none" stroke="black" d="M509.85,-543.18C532.33,-535.41 563.38,-524.67 587.93,-516.18"/>
<polygon fill="black" stroke="black" points="588.96,-519.53 597.27,-512.95 586.67,-512.91 588.96,-519.53"/>
</g>
<!-- 0x1c1c530 -->
<g id="node10" class="node">
<title>0x1c1c530</title>
<ellipse fill="lightgrey" stroke="black" cx="786.5" cy="-339.5" rx="54.5" ry="13.5"/>
<text text-anchor="middle" x="786.5" y="-337" font-family="Times,serif" font-size="10.00">calibrate.py</text>
</g>
<!-- 0x1c1cbf0&#45;&gt;0x1c1c530 -->
<g id="edge8" class="edge">
<title>0x1c1cbf0&#45;&gt;0x1c1c530</title>
<path fill="none" stroke="black" d="M645.96,-492.68C663.93,-481.48 692.95,-461.91 714,-440.5 741.26,-412.77 765.72,-373.76 777.7,-353.29"/>
</g>
<!-- 0x1c1de10 -->
<g id="node11" class="node">
<title>0x1c1de10</title>
<ellipse fill="lightgrey" stroke="black" cx="1122.5" cy="-383.5" rx="63" ry="13.5"/>
<text text-anchor="middle" x="1122.5" y="-381" font-family="Times,serif" font-size="10.00">lightcurves.py</text>
</g>
<!-- 0x1c1cbf0&#45;&gt;0x1c1de10 -->
<g id="edge9" class="edge">
<title>0x1c1cbf0&#45;&gt;0x1c1de10</title>
<path fill="none" stroke="black" d="M675.26,-508.38C754,-516.41 918.37,-523.91 1040,-466.5 1072.69,-451.07 1099.51,-416.64 1112.69,-397.32"/>
</g>
<!-- 0x1c1e330 -->
<g id="node12" class="node">
<title>0x1c1e330</title>
<ellipse fill="lightgrey" stroke="black" cx="786.5" cy="-552.5" rx="37.5" ry="13.5"/>
<text text-anchor="middle" x="786.5" y="-550" font-family="Times,serif" font-size="10.00">tess.py</text>
</g>
<!-- 0x1c1cbf0&#45;&gt;0x1c1e330 -->
<g id="edge10" class="edge">
<title>0x1c1cbf0&#45;&gt;0x1c1e330</title>
<path fill="none" stroke="black" d="M660.69,-512.5C688.97,-521.56 730.27,-534.8 757.5,-543.53"/>
</g>
<!-- 0x1c1c5c0 -->
<g id="node13" class="node">
<title>0x1c1c5c0</title>
<polygon fill="lightgrey" stroke="black" points="981,-275 918,-275 918,-256 981,-256 981,-275"/>
<text text-anchor="middle" x="949.5" y="-263" font-family="Times,serif" font-size="10.00">dat/B.csv</text>
</g>
<!-- 0x1c1c530&#45;&gt;0x1c1c5c0 -->
<g id="edge11" class="edge">
<title>0x1c1c530&#45;&gt;0x1c1c5c0</title>
<path fill="none" stroke="black" d="M804.99,-326.42C822.6,-313.81 850.96,-295 878,-283.5 887.02,-279.66 897.06,-276.5 906.66,-273.95"/>
<polygon fill="black" stroke="black" points="907.3,-277.4 916.17,-271.6 905.63,-270.6 907.3,-277.4"/>
</g>
<!-- 0x1c1c670 -->
<g id="node14" class="node">
<title>0x1c1c670</title>
<polygon fill="lightgrey" stroke="black" points="980,-312 919,-312 919,-293 980,-293 980,-312"/>
<text text-anchor="middle" x="949.5" y="-300" font-family="Times,serif" font-size="10.00">dat/V.csv</text>
</g>
<!-- 0x1c1c530&#45;&gt;0x1c1c670 -->
<g id="edge12" class="edge">
<title>0x1c1c530&#45;&gt;0x1c1c670</title>
<path fill="none" stroke="black" d="M827.71,-330.26C852.07,-324.66 883.07,-317.54 907.56,-311.91"/>
<polygon fill="black" stroke="black" points="908.22,-315.35 917.18,-309.7 906.65,-308.53 908.22,-315.35"/>
</g>
<!-- 0x1c1c720 -->
<g id="node15" class="node">
<title>0x1c1c720</title>
<polygon fill="lightgrey" stroke="black" points="984.5,-238 914.5,-238 914.5,-219 984.5,-219 984.5,-238"/>
<text text-anchor="middle" x="949.5" y="-226" font-family="Times,serif" font-size="10.00">dat/SG.csv</text>
</g>
<!-- 0x1c1c530&#45;&gt;0x1c1c720 -->
<g id="edge13" class="edge">
<title>0x1c1c530&#45;&gt;0x1c1c720</title>
<path fill="none" stroke="black" d="M796.92,-325.83C811.74,-305.38 842.51,-267.03 878,-246.5 885.69,-242.05 894.47,-238.69 903.17,-236.15"/>
<polygon fill="black" stroke="black" points="903.77,-239.61 912.58,-233.74 902.03,-232.83 903.77,-239.61"/>
</g>
<!-- 0x1c1c7d0 -->
<g id="node16" class="node">
<title>0x1c1c7d0</title>
<polygon fill="lightgrey" stroke="black" points="984.5,-386 914.5,-386 914.5,-367 984.5,-367 984.5,-386"/>
<text text-anchor="middle" x="949.5" y="-374" font-family="Times,serif" font-size="10.00">dat/SR.csv</text>
</g>
<!-- 0x1c1c530&#45;&gt;0x1c1c7d0 -->
<g id="edge14" class="edge">
<title>0x1c1c530&#45;&gt;0x1c1c7d0</title>
<path fill="none" stroke="black" d="M827.71,-348.74C850.6,-354 879.35,-360.61 903.06,-366.06"/>
<polygon fill="black" stroke="black" points="902.24,-369.46 912.77,-368.29 903.81,-362.64 902.24,-369.46"/>
</g>
<!-- 0x1c1c880 -->
<g id="node17" class="node">
<title>0x1c1c880</title>
<polygon fill="lightgrey" stroke="black" points="982.5,-349 916.5,-349 916.5,-330 982.5,-330 982.5,-349"/>
<text text-anchor="middle" x="949.5" y="-337" font-family="Times,serif" font-size="10.00">dat/SI.csv</text>
</g>
<!-- 0x1c1c530&#45;&gt;0x1c1c880 -->
<g id="edge15" class="edge">
<title>0x1c1c530&#45;&gt;0x1c1c880</title>
<path fill="none" stroke="black" d="M841.11,-339.5C861.81,-339.5 885.19,-339.5 904.84,-339.5"/>
<polygon fill="black" stroke="black" points="904.72,-343 914.72,-339.5 904.72,-336 904.72,-343"/>
</g>
<!-- 0x1c1dea0 -->
<g id="node18" class="node">
<title>0x1c1dea0</title>
<polygon fill="lightgrey" stroke="black" points="1341.5,-393 1227.5,-393 1227.5,-374 1341.5,-374 1341.5,-393"/>
<text text-anchor="middle" x="1284.5" y="-381" font-family="Times,serif" font-size="10.00">img/lightcurve.png</text>
</g>
<!-- 0x1c1de10&#45;&gt;0x1c1dea0 -->
<g id="edge16" class="edge">
<title>0x1c1de10&#45;&gt;0x1c1dea0</title>
<path fill="none" stroke="black" d="M1185.82,-383.5C1195.59,-383.5 1205.74,-383.5 1215.63,-383.5"/>
<polygon fill="black" stroke="black" points="1215.58,-387 1225.58,-383.5 1215.58,-380 1215.58,-387"/>
</g>
<!-- 0x1c1e3c0 -->
<g id="node19" class="node">
<title>0x1c1e3c0</title>
<polygon fill="lightgrey" stroke="black" points="1021,-562 878,-562 878,-543 1021,-543 1021,-562"/>
<text text-anchor="middle" x="949.5" y="-550" font-family="Times,serif" font-size="10.00">img/lightcurves/tess.png</text>
</g>
<!-- 0x1c1e330&#45;&gt;0x1c1e3c0 -->
<g id="edge17" class="edge">
<title>0x1c1e330&#45;&gt;0x1c1e3c0</title>
<path fill="none" stroke="black" d="M824.44,-552.5C837.01,-552.5 851.62,-552.5 866.3,-552.5"/>
<polygon fill="black" stroke="black" points="866,-556 876,-552.5 866,-549 866,-556"/>
</g>
<!-- 0x1c1c5c0&#45;&gt;0x1c1de10 -->
<g id="edge18" class="edge">
<title>0x1c1c5c0&#45;&gt;0x1c1de10</title>
<path fill="none" stroke="black" d="M981.16,-268.72C994.27,-271.22 1009.23,-275.64 1021,-283.5 1032.09,-290.9 1030.06,-297.61 1039,-307.5 1060.42,-331.19 1088.25,-355.72 1105.49,-370.29"/>
</g>
<!-- 0x1c1d630 -->
<g id="node20" class="node">
<title>0x1c1d630</title>
<ellipse fill="lightgrey" stroke="black" cx="1122.5" cy="-196.5" rx="64.5" ry="13.5"/>
<text text-anchor="middle" x="1122.5" y="-194" font-family="Times,serif" font-size="10.00">color_index.py</text>
</g>
<!-- 0x1c1c5c0&#45;&gt;0x1c1d630 -->
<g id="edge19" class="edge">
<title>0x1c1c5c0&#45;&gt;0x1c1d630</title>
<path fill="none" stroke="black" d="M981.18,-262.89C994.61,-260.41 1009.81,-255.64 1021,-246.5 1034.85,-235.18 1024.63,-221.15 1039,-210.5 1045.3,-205.83 1052.62,-202.51 1060.24,-200.17"/>
</g>
<!-- 0x1c1c670&#45;&gt;0x1c1de10 -->
<g id="edge20" class="edge">
<title>0x1c1c670&#45;&gt;0x1c1de10</title>
<path fill="none" stroke="black" d="M980.4,-307.79C993.24,-310.65 1008.19,-314.8 1021,-320.5 1029.78,-324.41 1030.91,-327.3 1039,-332.5 1059.54,-345.69 1083.28,-360.3 1100.01,-370.49"/>
</g>
<!-- 0x1c1c670&#45;&gt;0x1c1d630 -->
<g id="edge21" class="edge">
<title>0x1c1c670&#45;&gt;0x1c1d630</title>
<path fill="none" stroke="black" d="M980.22,-300.66C994.09,-298.38 1009.93,-293.56 1021,-283.5 1037.86,-268.18 1023.57,-252.26 1039,-235.5 1050.8,-222.68 1067.69,-213.67 1083.12,-207.57"/>
</g>
<!-- 0x1c1c720&#45;&gt;0x1c1de10 -->
<g id="edge22" class="edge">
<title>0x1c1c720&#45;&gt;0x1c1de10</title>
<path fill="none" stroke="black" d="M984.75,-232.38C996.96,-234.97 1010.32,-239.29 1021,-246.5 1068.92,-278.86 1102.37,-341.97 1115.42,-369.78"/>
</g>
<!-- 0x1c1c720&#45;&gt;0x1c1d630 -->
<g id="edge23" class="edge">
<title>0x1c1c720&#45;&gt;0x1c1d630</title>
<path fill="none" stroke="black" d="M965.38,-218.65C982.36,-208.05 1011.37,-191.86 1039,-185.5 1052.94,-182.29 1068.44,-183.21 1082.2,-185.54"/>
</g>
<!-- 0x1c1c7d0&#45;&gt;0x1c1de10 -->
<g id="edge24" class="edge">
<title>0x1c1c7d0&#45;&gt;0x1c1de10</title>
<path fill="none" stroke="black" d="M984.94,-379.28C1001.31,-380.49 1021.15,-381.79 1039,-382.5 1045.58,-382.76 1052.47,-382.96 1059.32,-383.12"/>
</g>
<!-- 0x1c1c7d0&#45;&gt;0x1c1d630 -->
<g id="edge25" class="edge">
<title>0x1c1c7d0&#45;&gt;0x1c1d630</title>
<path fill="none" stroke="black" d="M984.71,-372.59C997.05,-369.87 1010.51,-365.28 1021,-357.5 1074.2,-318.05 1105.82,-241.3 1116.94,-210.14"/>
</g>
<!-- 0x1c1c880&#45;&gt;0x1c1de10 -->
<g id="edge26" class="edge">
<title>0x1c1c880&#45;&gt;0x1c1de10</title>
<path fill="none" stroke="black" d="M982.79,-347.72C994.79,-350.78 1008.52,-354.29 1021,-357.5 1040.72,-362.57 1062.62,-368.23 1080.92,-372.97"/>
</g>
<!-- 0x1c1c880&#45;&gt;0x1c1d630 -->
<g id="edge27" class="edge">
<title>0x1c1c880&#45;&gt;0x1c1d630</title>
<path fill="none" stroke="black" d="M982.66,-337.62C996.05,-335.27 1010.82,-330.4 1021,-320.5 1040.96,-301.09 1023.25,-283.46 1039,-260.5 1054.18,-238.38 1079.38,-220.44 1097.94,-209.25"/>
</g>
<!-- 0x1c1d6c0 -->
<g id="node24" class="node">
<title>0x1c1d6c0</title>
<polygon fill="lightgrey" stroke="black" points="1345,-206 1224,-206 1224,-187 1345,-187 1345,-206"/>
<text text-anchor="middle" x="1284.5" y="-194" font-family="Times,serif" font-size="10.00">img/color_index.png</text>
</g>
<!-- 0x1c1d630&#45;&gt;0x1c1d6c0 -->
<g id="edge35" class="edge">
<title>0x1c1d630&#45;&gt;0x1c1d6c0</title>
<path fill="none" stroke="black" d="M1187.2,-196.5C1195.46,-196.5 1203.97,-196.5 1212.35,-196.5"/>
<polygon fill="black" stroke="black" points="1212.15,-200 1222.15,-196.5 1212.15,-193 1212.15,-200"/>
</g>
<!-- 0x1c1bab0 -->
<g id="node21" class="node">
<title>0x1c1bab0</title>
<polygon fill="lightgrey" stroke="black" points="89,-417 0,-417 0,-398 89,-398 89,-417"/>
<text text-anchor="middle" x="44.5" y="-405" font-family="Times,serif" font-size="10.00">dat/config.yml</text>
</g>
<!-- 0x1c1bab0&#45;&gt;0x1c1cf30 -->
<g id="edge28" class="edge">
<title>0x1c1bab0&#45;&gt;0x1c1cf30</title>
<path fill="none" stroke="black" d="M54.39,-417.45C80.68,-446.05 161.68,-528.34 249,-558.5 314.03,-580.96 395.75,-570.78 441.9,-561.82"/>
</g>
<!-- 0x1c1bab0&#45;&gt;0x1c1c530 -->
<g id="edge29" class="edge">
<title>0x1c1bab0&#45;&gt;0x1c1c530</title>
<path fill="none" stroke="black" d="M51.58,-397.69C67.46,-373.42 112.83,-312.5 168,-312.5 168,-312.5 168,-312.5 629.5,-312.5 670.73,-312.5 717.2,-321.77 748.62,-329.45"/>
</g>
<!-- 0x1c1bab0&#45;&gt;0x1c1de10 -->
<g id="edge30" class="edge">
<title>0x1c1bab0&#45;&gt;0x1c1de10</title>
<path fill="none" stroke="black" d="M88.33,-397.55C111.74,-392.96 141.31,-388.5 168,-388.5 168,-388.5 168,-388.5 544,-388.5 692.47,-388.5 729.55,-392.24 878,-394.5 949.55,-395.59 967.44,-396.06 1039,-396.5 1051.47,-396.58 1064.87,-395.14 1077.17,-393.19"/>
</g>
<!-- 0x1c1bab0&#45;&gt;0x1c1e330 -->
<g id="edge31" class="edge">
<title>0x1c1bab0&#45;&gt;0x1c1e330</title>
<path fill="none" stroke="black" d="M46.44,-417.3C50.97,-458.62 74.42,-616.5 168,-616.5 168,-616.5 168,-616.5 629.5,-616.5 683.66,-616.5 741.01,-583.08 768.65,-564.54"/>
</g>
<!-- 0x1c1bab0&#45;&gt;0x1c1d630 -->
<g id="edge33" class="edge">
<title>0x1c1bab0&#45;&gt;0x1c1d630</title>
<path fill="none" stroke="black" d="M47.28,-397.55C56.84,-345.67 104.05,-108.5 168,-108.5 168,-108.5 168,-108.5 950.5,-108.5 1014.94,-108.5 1079.41,-158.52 1107.24,-183.13"/>
</g>
<!-- 0x1c1b8a0 -->
<g id="node22" class="node">
<title>0x1c1b8a0</title>
<ellipse fill="lightgrey" stroke="black" cx="169" cy="-435.5" rx="43" ry="13.5"/>
<text text-anchor="middle" x="169" y="-433" font-family="Times,serif" font-size="10.00">query.py</text>
</g>
<!-- 0x1c1bab0&#45;&gt;0x1c1b8a0 -->
<g id="edge32" class="edge">
<title>0x1c1bab0&#45;&gt;0x1c1b8a0</title>
<path fill="none" stroke="black" d="M89.03,-417.45C103.61,-420.78 119.66,-424.45 133.45,-427.6"/>
</g>
<!-- 0x1c1b930 -->
<g id="node23" class="node">
<title>0x1c1b930</title>
<polygon fill="lightgrey" stroke="black" points="343,-470 249,-470 249,-451 343,-451 343,-470"/>
<text text-anchor="middle" x="296" y="-458" font-family="Times,serif" font-size="10.00">dat/known.json</text>
</g>
<!-- 0x1c1b8a0&#45;&gt;0x1c1b930 -->
<g id="edge34" class="edge">
<title>0x1c1b8a0&#45;&gt;0x1c1b930</title>
<path fill="none" stroke="black" d="M206.16,-442.73C216,-444.7 226.92,-446.88 237.63,-449.03"/>
<polygon fill="black" stroke="black" points="236.69,-452.41 247.18,-450.94 238.06,-445.54 236.69,-452.41"/>
</g>
<!-- 0x1c1b930&#45;&gt;0x1c1cf30 -->
<g id="edge36" class="edge">
<title>0x1c1b930&#45;&gt;0x1c1cf30</title>
<path fill="none" stroke="black" d="M306.11,-470.17C317.8,-482.09 339.19,-502.26 361,-514.5 386.4,-528.75 417.83,-538.86 441.72,-545.22"/>
</g>
<!-- 0x1c1b930&#45;&gt;0x1c1c530 -->
<g id="edge37" class="edge">
<title>0x1c1b930&#45;&gt;0x1c1c530</title>
<path fill="none" stroke="black" d="M343.28,-451.11C417.81,-435.69 568.85,-403.23 695,-368.5 714.57,-363.11 736.22,-356.21 753.44,-350.49"/>
</g>
<!-- 0x1c1b930&#45;&gt;0x1c1de10 -->
<g id="edge38" class="edge">
<title>0x1c1b930&#45;&gt;0x1c1de10</title>
<path fill="none" stroke="black" d="M343.22,-462.11C484.54,-466.56 909.18,-476.08 1040,-435.5 1065.49,-427.59 1090.75,-409.45 1106.24,-396.83"/>
</g>
<!-- 0x1c1b930&#45;&gt;0x1c1e330 -->
<g id="edge39" class="edge">
<title>0x1c1b930&#45;&gt;0x1c1e330</title>
<path fill="none" stroke="black" d="M330.77,-470.46C340.49,-473.2 351.13,-476.08 361,-478.5 449.65,-500.2 472.12,-504.69 562,-520.5 628.4,-532.18 706.47,-542.61 750.55,-548.2"/>
</g>
<!-- 0x1c1b930&#45;&gt;0x1c1d630 -->
<g id="edge40" class="edge">
<title>0x1c1b930&#45;&gt;0x1c1d630</title>
<path fill="none" stroke="black" d="M297.81,-450.76C302.77,-397.76 333.91,-146.5 478,-146.5 478,-146.5 478,-146.5 950.5,-146.5 1003.7,-146.5 1062.61,-169.07 1095.53,-183.88"/>
</g>
<!-- 0x1c1d190 -->
<g id="node25" class="node">
<title>0x1c1d190</title>
<polygon fill="lightgrey" stroke="black" points="341,-550 251,-550 251,-531 341,-531 341,-550"/>
<text text-anchor="middle" x="296" y="-538" font-family="Times,serif" font-size="10.00">dat/asassn.csv</text>
</g>
<!-- 0x1c1d190&#45;&gt;0x1c1cf30 -->
<g id="edge41" class="edge">
<title>0x1c1d190&#45;&gt;0x1c1cf30</title>
<path fill="none" stroke="black" d="M341.28,-543.68C369.43,-545.7 405.74,-548.31 433.87,-550.33"/>
</g>
<!-- 0x1c1cb50 -->
<g id="node26" class="node">
<title>0x1c1cb50</title>
<polygon fill="lightgrey" stroke="black" points="671,-360 586,-360 586,-341 671,-341 671,-360"/>
<text text-anchor="middle" x="628.5" y="-348" font-family="Times,serif" font-size="10.00">dat/stars.json</text>
</g>
<!-- 0x1c1cb50&#45;&gt;0x1c1c530 -->
<g id="edge42" class="edge">
<title>0x1c1cb50&#45;&gt;0x1c1c530</title>
<path fill="none" stroke="black" d="M671.31,-347.55C690.44,-346.2 713.31,-344.59 733.53,-343.16"/>
</g>
</g>
<script><![CDATA[
function child(el, tag) {
    for (c of el.children)
        if (c.tagName == tag)
            return c;
}
function colorNode(node, reset=false) {
    const container = child(node, "polygon") || child(node, "ellipse");
    const color = reset ? "black" : "#f00";
    container.style.stroke = color;
}
function colorEdge(edge, reset=false) {
    const path = child(edge, "path");
    const polygon = child(edge, "polygon");
    const color = reset ? "black" : "#f00";
    path.style.stroke = color;
    if (polygon) {
        polygon.style.fill = color;
        polygon.style.stroke = color;
    }
}
function connectedEdges(node) {
    const nodeTitle = child(node, "title").textContent;
    const ret = [];
    for (const edge of document.querySelectorAll('.edge')) {
        const edgeTitle = child(edge, "title").textContent;
        if (edgeTitle.includes(nodeTitle))
            ret.push(edge);
    }
    return ret;
}
function highlight(ev) {
    const el = ev.target;
    if (el.className.baseVal != "node")
        return;
    colorNode(el);
    for (const edge of connectedEdges(el))
        colorEdge(edge);
}
function unhighlight() {
    for (const el of document.querySelectorAll("g")) {
        if (el.className.baseVal == "node") {
            colorNode(el, reset=true);
        } else if (el.className.baseVal == "edge") {
            colorEdge(el, reset=true);
        }
    }
}
for (const el of document.querySelectorAll("g")) {
    el.onmouseenter = highlight;
    el.onmouseleave = unhighlight;
}
]]></script></svg>
