<svg xmlns="http://www.w3.org/2000/svg" width="1589pt" height="890pt" viewBox="0.00 0.00 1589.00 890.14">
<g id="graph0" class="graph" transform="scale(1 1) rotate(0) translate(4 886.14)">
<polygon fill="white" stroke="none" points="-4,4 -4,-886.14 1585,-886.14 1585,4 -4,4" />

<g id="node1" class="node" x-title="0x1251220">
<polygon fill="lightgrey" stroke="black" points="1168,-732.14 1111,-732.14 1111,-713.14 1168,-713.14 1168,-732.14" />
<text text-anchor="middle" x="1139.5" y="-720.14" font-family="Times,serif" font-size="10.00">dag.svg</text>
</g>

<g id="node2" class="node" x-title="0x12502d0">
<ellipse fill="lightgrey" stroke="black" cx="955.5" cy="-722.64" rx="69.5" ry="13.5" />
<text text-anchor="middle" x="955.5" y="-720.14" font-family="Times,serif" font-size="10.00">lib.gengraph.py</text>
</g>

<g id="edge1" class="edge" x-title="0x12502d0-&gt;0x1251220">
<path fill="none" stroke="black" d="M1025.31,-722.64C1050.28,-722.64 1077.62,-722.64 1099.18,-722.64" />
<polygon fill="black" stroke="black" points="1098.99,-726.14 1108.99,-722.64 1098.99,-719.14 1098.99,-726.14" />
</g>

<g id="node3" class="node" x-title="0x12506a0">
<polygon fill="lightgrey" stroke="black" points="819,-769.14 748,-769.14 748,-750.14 819,-750.14 819,-769.14" />
<text text-anchor="middle" x="783.5" y="-757.14" font-family="Times,serif" font-size="10.00">build.ninja</text>
</g>

<g id="edge2" class="edge" x-title="0x12506a0-&gt;0x12502d0">
<path fill="none" stroke="black" d="M819.31,-752.07C844.86,-746.51 879.83,-738.89 907.81,-732.81" />
</g>

<g id="node4" class="node" x-title="0x1250770">
<polygon fill="lightgrey" stroke="black" points="820.5,-732.14 746.5,-732.14 746.5,-713.14 820.5,-713.14 820.5,-732.14" />
<text text-anchor="middle" x="783.5" y="-720.14" font-family="Times,serif" font-size="10.00">lib/graph.js</text>
</g>

<g id="edge3" class="edge" x-title="0x1250770-&gt;0x12502d0">
<path fill="none" stroke="black" d="M820.97,-722.64C839.8,-722.64 863.41,-722.64 885.51,-722.64" />
</g>

<g id="node5" class="node" x-title="0x1250840">
<polygon fill="lightgrey" stroke="black" points="832.5,-695.14 734.5,-695.14 734.5,-676.14 832.5,-676.14 832.5,-695.14" />
<text text-anchor="middle" x="783.5" y="-683.14" font-family="Times,serif" font-size="10.00">lib/gengraph.py</text>
</g>

<g id="edge4" class="edge" x-title="0x1250840-&gt;0x12502d0">
<path fill="none" stroke="black" d="M830.06,-695.56C854.05,-700.78 883.44,-707.18 907.63,-712.44" />
</g>

<g id="node6" class="node" x-title="0x12509c0">
<ellipse fill="lightgrey" stroke="black" cx="622.5" cy="-723.64" rx="46" ry="13.5" />
<text text-anchor="middle" x="622.5" y="-721.14" font-family="Times,serif" font-size="10.00">..build.py</text>
</g>

<g id="edge5" class="edge" x-title="0x12509c0-&gt;0x12506a0">
<path fill="none" stroke="black" d="M659.98,-731.9C682.69,-737.04 712.12,-743.71 736.43,-749.21" />
<polygon fill="black" stroke="black" points="735.55,-752.6 746.08,-751.4 737.1,-745.77 735.55,-752.6" />
</g>

<g id="node7" class="node" x-title="0x1250d20">
<polygon fill="lightgrey" stroke="black" points="480.5,-771.14 426.5,-771.14 426.5,-752.14 480.5,-752.14 480.5,-771.14" />
<text text-anchor="middle" x="453.5" y="-759.14" font-family="Times,serif" font-size="10.00">lib/x.py</text>
</g>

<g id="edge6" class="edge" x-title="0x1250d20-&gt;0x12509c0">
<path fill="none" stroke="black" d="M480.96,-755.62C509.1,-749.22 553.81,-739.05 585.22,-731.9" />
</g>

<g id="node8" class="node" x-title="0x1250df0">
<polygon fill="lightgrey" stroke="black" points="120,-392.14 31,-392.14 31,-373.14 120,-373.14 120,-392.14" />
<text text-anchor="middle" x="75.5" y="-380.14" font-family="Times,serif" font-size="10.00">dat/config.yml</text>
</g>

<g id="edge7" class="edge" x-title="0x1250df0-&gt;0x12509c0">
<path fill="none" stroke="black" d="M77.19,-392.41C80.58,-432.63 99.08,-586.9 187,-661.64 301.95,-759.36 499.01,-743.01 582.4,-730.58" />
</g>

<g id="node9" class="node" x-title="0x12514e0">
<ellipse fill="lightgrey" stroke="black" cx="265" cy="-421.64" rx="56" ry="13.5" />
<text text-anchor="middle" x="265" y="-419.14" font-family="Times,serif" font-size="10.00">src.query.py</text>
</g>

<g id="edge8" class="edge" x-title="0x1250df0-&gt;0x12514e0">
<path fill="none" stroke="black" d="M120.46,-391.79C150.98,-398.14 191.43,-406.55 221.61,-412.82" />
</g>

<g id="node10" class="node" x-title="0x12528b0">
<ellipse fill="lightgrey" stroke="black" cx="622.5" cy="-195.64" rx="58.5" ry="13.5" />
<text text-anchor="middle" x="622.5" y="-193.14" font-family="Times,serif" font-size="10.00">src.period.py</text>
</g>

<g id="edge9" class="edge" x-title="0x1250df0-&gt;0x12528b0">
<path fill="none" stroke="black" d="M94.9,-372.78C116.53,-361.43 153.72,-342.67 187,-329.64 329.24,-273.95 504.69,-225.89 581.88,-205.75" />
</g>

<g id="node11" class="node" x-title="0x1252f80">
<ellipse fill="lightgrey" stroke="black" cx="1331" cy="-486.64" rx="77" ry="13.5" />
<text text-anchor="middle" x="1331" y="-484.14" font-family="Times,serif" font-size="10.00">src.color_index.py</text>
</g>

<g id="edge10" class="edge" x-title="0x1250df0-&gt;0x1252f80">
<path fill="none" stroke="black" d="M80.07,-392.48C91.18,-421.74 127.96,-509.07 187,-555.64 285.04,-633 327.62,-647.64 452.5,-647.64 452.5,-647.64 452.5,-647.64 956.5,-647.64 1077.17,-647.64 1110.37,-629.19 1218,-574.64 1257.48,-554.63 1296.51,-519.58 1316.41,-500.31" />
</g>

<g id="node12" class="node" x-title="0x12518e0">
<ellipse fill="lightgrey" stroke="black" cx="955.5" cy="-457.64" rx="67" ry="13.5" />
<text text-anchor="middle" x="955.5" y="-455.14" font-family="Times,serif" font-size="10.00">src.calibrate.py</text>
</g>

<g id="edge11" class="edge" x-title="0x1250df0-&gt;0x12518e0">
<path fill="none" stroke="black" d="M84.65,-392.4C121.92,-435.85 281.7,-609.64 452.5,-609.64 452.5,-609.64 452.5,-609.64 623.5,-609.64 755.66,-609.64 892.65,-508.33 938.49,-471.13" />
</g>

<g id="node13" class="node" x-title="0x1253950">
<ellipse fill="lightgrey" stroke="black" cx="1331" cy="-347.64" rx="75.5" ry="13.5" />
<text text-anchor="middle" x="1331" y="-345.14" font-family="Times,serif" font-size="10.00">src.lightcurves.py</text>
</g>

<g id="edge12" class="edge" x-title="0x1250df0-&gt;0x1253950">
<path fill="none" stroke="black" d="M76.72,-372.84C78.26,-329.47 90.45,-153.09 187,-65.64 276.96,15.84 331.12,-1.64 452.5,-1.64 452.5,-1.64 452.5,-1.64 956.5,-1.64 1079.56,-1.64 1127.62,-9.13 1218,-92.64 1293.29,-162.21 1320.69,-291.43 1327.88,-333.8" />
</g>

<g id="node14" class="node" x-title="0x12549f0">
<ellipse fill="lightgrey" stroke="black" cx="955.5" cy="-305.64" rx="50" ry="13.5" />
<text text-anchor="middle" x="955.5" y="-303.14" font-family="Times,serif" font-size="10.00">src.tess.py</text>
</g>

<g id="edge13" class="edge" x-title="0x1250df0-&gt;0x12549f0">
<path fill="none" stroke="black" d="M120.34,-375.12C190.33,-363.79 331.74,-343.64 452.5,-343.64 452.5,-343.64 452.5,-343.64 623.5,-343.64 728.63,-343.64 851.32,-324.49 913.65,-313.38" />
</g>

<g id="node15" class="node" x-title="0x1254c30">
<ellipse fill="lightgrey" stroke="black" cx="955.5" cy="-111.64" rx="60" ry="13.5" />
<text text-anchor="middle" x="955.5" y="-109.14" font-family="Times,serif" font-size="10.00">src.asassn.py</text>
</g>

<g id="edge14" class="edge" x-title="0x1250df0-&gt;0x1254c30">
<path fill="none" stroke="black" d="M81.06,-372.75C107.72,-316.51 249.28,-39.64 452.5,-39.64 452.5,-39.64 452.5,-39.64 623.5,-39.64 735.53,-39.64 864.12,-79.51 922.58,-99.91" />
</g>

<g id="node16" class="node" x-title="0x1250ec0">
<polygon fill="lightgrey" stroke="black" points="500.5,-449.14 406.5,-449.14 406.5,-430.14 500.5,-430.14 500.5,-449.14" />
<text text-anchor="middle" x="453.5" y="-437.14" font-family="Times,serif" font-size="10.00">dat/known.json</text>
</g>

<g id="edge15" class="edge" x-title="0x12514e0-&gt;0x1250ec0">
<path fill="none" stroke="black" d="M317.46,-426.61C341.47,-428.93 370.15,-431.69 394.88,-434.08" />
<polygon fill="black" stroke="black" points="394.51,-437.56 404.8,-435.04 395.18,-430.59 394.51,-437.56" />
</g>

<g id="node17" class="node" x-title="0x1252c30">
<polygon fill="lightgrey" stroke="black" points="850,-201.14 717,-201.14 717,-182.14 850,-182.14 850,-201.14" />
<text text-anchor="middle" x="783.5" y="-189.14" font-family="Times,serif" font-size="10.00">img/period/asassn.png</text>
</g>

<g id="edge16" class="edge" x-title="0x12528b0-&gt;0x1252c30">
<path fill="none" stroke="black" d="M680.9,-194.2C688.76,-194 696.94,-193.8 705.08,-193.59" />
<polygon fill="black" stroke="black" points="705.12,-197.09 715.02,-193.34 704.94,-190.09 705.12,-197.09" />
</g>

<g id="node18" class="node" x-title="0x1252630">
<polygon fill="lightgrey" stroke="black" points="830,-277.14 737,-277.14 737,-258.14 830,-258.14 830,-277.14" />
<text text-anchor="middle" x="783.5" y="-265.14" font-family="Times,serif" font-size="10.00">dat/period.json</text>
</g>

<g id="edge17" class="edge" x-title="0x12528b0-&gt;0x1252630">
<path fill="none" stroke="black" d="M650.47,-207.86C678.09,-220.36 721.02,-239.8 750.38,-253.1" />
<polygon fill="black" stroke="black" points="748.59,-256.13 759.15,-257.07 751.48,-249.75 748.59,-256.13" />
</g>

<g id="node19" class="node" x-title="0x12535d0">
<polygon fill="lightgrey" stroke="black" points="1573,-496.14 1452,-496.14 1452,-477.14 1573,-477.14 1573,-496.14" />
<text text-anchor="middle" x="1512.5" y="-484.14" font-family="Times,serif" font-size="10.00">img/color_index.png</text>
</g>

<g id="edge18" class="edge" x-title="0x1252f80-&gt;0x12535d0">
<path fill="none" stroke="black" d="M1408.38,-486.64C1419.04,-486.64 1429.94,-486.64 1440.49,-486.64" />
<polygon fill="black" stroke="black" points="1440.25,-490.14 1450.25,-486.64 1440.25,-483.14 1440.25,-490.14" />
</g>

<g id="node20" class="node" x-title="0x12520c0">
<polygon fill="lightgrey" stroke="black" points="1171,-431.14 1108,-431.14 1108,-412.14 1171,-412.14 1171,-431.14" />
<text text-anchor="middle" x="1139.5" y="-419.14" font-family="Times,serif" font-size="10.00">dat/B.csv</text>
</g>

<g id="edge19" class="edge" x-title="0x12518e0-&gt;0x12520c0">
<path fill="none" stroke="black" d="M1004.79,-448.09C1033.36,-442.44 1069.19,-435.35 1096.56,-429.94" />
<polygon fill="black" stroke="black" points="1097.12,-433.4 1106.25,-428.02 1095.76,-426.53 1097.12,-433.4" />
</g>

<g id="node21" class="node" x-title="0x1252170">
<polygon fill="lightgrey" stroke="black" points="1170,-394.14 1109,-394.14 1109,-375.14 1170,-375.14 1170,-394.14" />
<text text-anchor="middle" x="1139.5" y="-382.14" font-family="Times,serif" font-size="10.00">dat/V.csv</text>
</g>

<g id="edge20" class="edge" x-title="0x12518e0-&gt;0x1252170">
<path fill="none" stroke="black" d="M977.37,-444.6C997.95,-432.24 1030.64,-413.94 1061,-402.64 1072.58,-398.33 1085.52,-394.84 1097.47,-392.11" />
<polygon fill="black" stroke="black" points="1098.01,-395.58 1107.05,-390.06 1096.54,-388.73 1098.01,-395.58" />
</g>

<g id="node22" class="node" x-title="0x1252220">
<polygon fill="lightgrey" stroke="black" points="1174.5,-357.14 1104.5,-357.14 1104.5,-338.14 1174.5,-338.14 1174.5,-357.14" />
<text text-anchor="middle" x="1139.5" y="-345.14" font-family="Times,serif" font-size="10.00">dat/SG.csv</text>
</g>

<g id="edge21" class="edge" x-title="0x12518e0-&gt;0x1252220">
<path fill="none" stroke="black" d="M971.43,-444.15C999.05,-419.25 1055.81,-368.31 1061,-365.64 1070.85,-360.58 1082.12,-356.92 1092.97,-354.29" />
<polygon fill="black" stroke="black" points="1093.53,-357.75 1102.56,-352.21 1092.05,-350.9 1093.53,-357.75" />
</g>

<g id="node23" class="node" x-title="0x12522d0">
<polygon fill="lightgrey" stroke="black" points="1174.5,-505.14 1104.5,-505.14 1104.5,-486.14 1174.5,-486.14 1174.5,-505.14" />
<text text-anchor="middle" x="1139.5" y="-493.14" font-family="Times,serif" font-size="10.00">dat/SR.csv</text>
</g>

<g id="edge22" class="edge" x-title="0x12518e0-&gt;0x12522d0">
<path fill="none" stroke="black" d="M1003.37,-467.43C1030.92,-473.18 1065.6,-480.42 1092.93,-486.13" />
<polygon fill="black" stroke="black" points="1092.16,-489.54 1102.67,-488.16 1093.59,-482.69 1092.16,-489.54" />
</g>

<g id="node24" class="node" x-title="0x1252380">
<polygon fill="lightgrey" stroke="black" points="1172.5,-468.14 1106.5,-468.14 1106.5,-449.14 1172.5,-449.14 1172.5,-468.14" />
<text text-anchor="middle" x="1139.5" y="-456.14" font-family="Times,serif" font-size="10.00">dat/SI.csv</text>
</g>

<g id="edge23" class="edge" x-title="0x12518e0-&gt;0x1252380">
<path fill="none" stroke="black" d="M1022.72,-458.01C1046.73,-458.14 1073.24,-458.28 1094.82,-458.4" />
<polygon fill="black" stroke="black" points="1094.72,-461.9 1104.74,-458.46 1094.76,-454.9 1094.72,-461.9" />
</g>

<g id="node25" class="node" x-title="0x12540f0">
<polygon fill="lightgrey" stroke="black" points="1579.5,-367.14 1445.5,-367.14 1445.5,-348.14 1579.5,-348.14 1579.5,-367.14" />
<text text-anchor="middle" x="1512.5" y="-355.14" font-family="Times,serif" font-size="10.00">img/lightcurves/all.png</text>
</g>

<g id="edge24" class="edge" x-title="0x1253950-&gt;0x12540f0">
<path fill="none" stroke="black" d="M1403.72,-351.64C1413.65,-352.19 1423.89,-352.76 1433.92,-353.32" />
<polygon fill="black" stroke="black" points="1433.45,-356.8 1443.63,-353.86 1433.84,-349.81 1433.45,-356.8" />
</g>

<g id="node26" class="node" x-title="0x12541c0">
<polygon fill="lightgrey" stroke="black" points="1577.5,-330.14 1447.5,-330.14 1447.5,-311.14 1577.5,-311.14 1577.5,-330.14" />
<text text-anchor="middle" x="1512.5" y="-318.14" font-family="Times,serif" font-size="10.00">img/lightcurves/B.png</text>
</g>

<g id="edge25" class="edge" x-title="0x1253950-&gt;0x12541c0">
<path fill="none" stroke="black" d="M1389.78,-338.95C1404.55,-336.73 1420.63,-334.31 1436.14,-331.98" />
<polygon fill="black" stroke="black" points="1436.43,-335.47 1445.8,-330.53 1435.39,-328.55 1436.43,-335.47" />
</g>

<g id="node27" class="node" x-title="0x1254290">
<polygon fill="lightgrey" stroke="black" points="1576.5,-293.14 1448.5,-293.14 1448.5,-274.14 1576.5,-274.14 1576.5,-293.14" />
<text text-anchor="middle" x="1512.5" y="-281.14" font-family="Times,serif" font-size="10.00">img/lightcurves/V.png</text>
</g>

<g id="edge26" class="edge" x-title="0x1253950-&gt;0x1254290">
<path fill="none" stroke="black" d="M1360.16,-334.89C1382.58,-325.03 1414.92,-311.45 1444,-301.64 1449.12,-299.92 1454.5,-298.25 1459.89,-296.67" />
<polygon fill="black" stroke="black" points="1460.78,-300.05 1469.46,-293.97 1458.88,-293.32 1460.78,-300.05" />
</g>

<g id="node28" class="node" x-title="0x1254360">
<polygon fill="lightgrey" stroke="black" points="1581,-256.14 1444,-256.14 1444,-237.14 1581,-237.14 1581,-256.14" />
<text text-anchor="middle" x="1512.5" y="-244.14" font-family="Times,serif" font-size="10.00">img/lightcurves/SG.png</text>
</g>

<g id="edge27" class="edge" x-title="0x1253950-&gt;0x1254360">
<path fill="none" stroke="black" d="M1346.39,-334.12C1366.64,-315.8 1405.41,-283.24 1444,-264.64 1447.28,-263.06 1450.71,-261.61 1454.23,-260.26" />
<polygon fill="black" stroke="black" points="1455.17,-263.64 1463.48,-257.08 1452.89,-257.02 1455.17,-263.64" />
</g>

<g id="node29" class="node" x-title="0x1254430">
<polygon fill="lightgrey" stroke="black" points="1581,-441.14 1444,-441.14 1444,-422.14 1581,-422.14 1581,-441.14" />
<text text-anchor="middle" x="1512.5" y="-429.14" font-family="Times,serif" font-size="10.00">img/lightcurves/SR.png</text>
</g>

<g id="edge28" class="edge" x-title="0x1253950-&gt;0x1254430">
<path fill="none" stroke="black" d="M1351.44,-360.97C1373.18,-375.37 1409.83,-398.19 1444,-412.64 1448.86,-414.7 1454.01,-416.6 1459.21,-418.35" />
<polygon fill="black" stroke="black" points="1457.85,-421.59 1468.44,-421.25 1459.95,-414.91 1457.85,-421.59" />
</g>

<g id="node30" class="node" x-title="0x1254500">
<polygon fill="lightgrey" stroke="black" points="1579,-404.14 1446,-404.14 1446,-385.14 1579,-385.14 1579,-404.14" />
<text text-anchor="middle" x="1512.5" y="-392.14" font-family="Times,serif" font-size="10.00">img/lightcurves/SI.png</text>
</g>

<g id="edge29" class="edge" x-title="0x1253950-&gt;0x1254500">
<path fill="none" stroke="black" d="M1374.99,-358.9C1401.34,-365.8 1435.14,-374.65 1462.52,-381.82" />
<polygon fill="black" stroke="black" points="1461.41,-385.14 1471.97,-384.29 1463.18,-378.37 1461.41,-385.14" />
</g>

<g id="node31" class="node" x-title="0x1254a80">
<polygon fill="lightgrey" stroke="black" points="1211,-281.14 1068,-281.14 1068,-262.14 1211,-262.14 1211,-281.14" />
<text text-anchor="middle" x="1139.5" y="-269.14" font-family="Times,serif" font-size="10.00">img/lightcurves/tess.png</text>
</g>

<g id="edge30" class="edge" x-title="0x12549f0-&gt;0x1254a80">
<path fill="none" stroke="black" d="M997.34,-298.01C1019.89,-293.8 1048.42,-288.47 1073.92,-283.71" />
<polygon fill="black" stroke="black" points="1074.33,-287.19 1083.52,-281.91 1073.05,-280.31 1074.33,-287.19" />
</g>

<g id="node32" class="node" x-title="0x1254f70">
<polygon fill="lightgrey" stroke="black" points="1218,-121.14 1061,-121.14 1061,-102.14 1218,-102.14 1218,-121.14" />
<text text-anchor="middle" x="1139.5" y="-109.14" font-family="Times,serif" font-size="10.00">img/lightcurves/asassn.png</text>
</g>

<g id="edge31" class="edge" x-title="0x1254c30-&gt;0x1254f70">
<path fill="none" stroke="black" d="M1015.84,-111.64C1026.58,-111.64 1037.99,-111.64 1049.36,-111.64" />
<polygon fill="black" stroke="black" points="1049.17,-115.14 1059.17,-111.64 1049.17,-108.14 1049.17,-115.14" />
</g>

<g id="edge32" class="edge" x-title="0x1250ec0-&gt;0x12509c0">
<path fill="none" stroke="black" d="M460.25,-449.42C485.25,-491.94 584.61,-660.9 613.55,-710.12" />
</g>

<g id="edge33" class="edge" x-title="0x1250ec0-&gt;0x12528b0">
<path fill="none" stroke="black" d="M459.03,-429.82C477.55,-389.75 547.41,-239.97 564,-223.64 571.04,-216.71 580.14,-211.22 589.01,-206.99" />
</g>

<g id="edge34" class="edge" x-title="0x1250ec0-&gt;0x1252f80">
<path fill="none" stroke="black" d="M468.09,-449.56C511.51,-480.26 651.75,-571.64 782.5,-571.64 782.5,-571.64 782.5,-571.64 956.5,-571.64 1073.21,-571.64 1106.34,-581.59 1218,-547.64 1253.17,-536.95 1289.82,-514.48 1311.24,-500" />
</g>

<g id="edge35" class="edge" x-title="0x1250ec0-&gt;0x12518e0">
<path fill="none" stroke="black" d="M481.06,-449.5C502.97,-457.12 535.04,-467.11 564,-471.64 689.6,-491.3 723.34,-486.47 850,-475.64 868.98,-474.02 889.7,-470.77 907.64,-467.47" />
</g>

<g id="edge36" class="edge" x-title="0x1250ec0-&gt;0x1253950">
<path fill="none" stroke="black" d="M500.7,-439.73C546.62,-439.26 618.97,-437.06 681,-428.64 757.29,-418.29 775.47,-409.95 850,-390.64 944.62,-366.13 964.25,-342.56 1061,-328.64 1130.07,-318.71 1148.47,-322.79 1218,-328.64 1238.44,-330.36 1260.76,-333.82 1280.05,-337.32" />
</g>

<g id="edge37" class="edge" x-title="0x1250ec0-&gt;0x12549f0">
<path fill="none" stroke="black" d="M500.9,-433.97C575.86,-423.93 727.57,-400 850,-357.64 880.26,-347.17 912.97,-329.82 933.59,-318.07" />
</g>

<g id="edge38" class="edge" x-title="0x1250ec0-&gt;0x1254c30">
<path fill="none" stroke="black" d="M465.11,-429.77C499.09,-398.67 609.28,-301.63 717,-248.64 772.28,-221.45 796.52,-240.21 850,-209.64 889.73,-186.93 926.33,-146.24 943.78,-125.15" />
</g>

<g id="edge39" class="edge" x-title="0x1252630-&gt;0x12518e0">
<path fill="none" stroke="black" d="M793.4,-277.59C821.75,-309.28 909.98,-407.89 942.4,-444.12" />
</g>

<g id="edge40" class="edge" x-title="0x1252630-&gt;0x1253950">
<path fill="none" stroke="black" d="M819.9,-257.7C895.71,-238.25 1078.2,-201.34 1218,-252.64 1262.52,-268.98 1301.47,-311.73 1319.44,-333.88" />
</g>

<g id="edge41" class="edge" x-title="0x1252630-&gt;0x12549f0">
<path fill="none" stroke="black" d="M829.17,-277.63C856.12,-283.65 890.12,-291.25 915.9,-297.02" />
</g>

<g id="edge42" class="edge" x-title="0x1252630-&gt;0x1254c30">
<path fill="none" stroke="black" d="M822.65,-257.65C832.11,-254.13 841.86,-249.53 850,-243.64 895.95,-210.41 932.27,-151.74 947.17,-125.27" />
</g>

<g id="edge43" class="edge" x-title="0x12520c0-&gt;0x1252f80">
<path fill="none" stroke="black" d="M1171.38,-427.56C1185.71,-430.63 1202.89,-434.75 1218,-439.64 1247.69,-449.25 1280.49,-463.45 1302.87,-473.73" />
</g>

<g id="edge44" class="edge" x-title="0x12520c0-&gt;0x1253950">
<path fill="none" stroke="black" d="M1171.13,-415.73C1185.57,-412.55 1202.9,-408.13 1218,-402.64 1249.97,-391.03 1284.85,-372.97 1307.05,-360.75" />
</g>

<g id="edge45" class="edge" x-title="0x1252170-&gt;0x1252f80">
<path fill="none" stroke="black" d="M1170.16,-388.56C1185.01,-391.25 1202.97,-395.64 1218,-402.64 1257.22,-420.91 1296.05,-454.38 1316.07,-473.09" />
</g>

<g id="edge46" class="edge" x-title="0x1252170-&gt;0x1253950">
<path fill="none" stroke="black" d="M1170.11,-378.86C1199.05,-373.21 1243.7,-364.49 1278.47,-357.7" />
</g>

<g id="edge47" class="edge" x-title="0x1252220-&gt;0x1252f80">
<path fill="none" stroke="black" d="M1174.94,-351.15C1189,-353.7 1204.98,-358.08 1218,-365.64 1265.53,-393.24 1304.76,-447.5 1321.41,-472.91" />
</g>

<g id="edge48" class="edge" x-title="0x1252220-&gt;0x1253950">
<path fill="none" stroke="black" d="M1174.82,-347.64C1197.22,-347.64 1227.35,-347.64 1255.1,-347.64" />
</g>

<g id="edge49" class="edge" x-title="0x12522d0-&gt;0x1252f80">
<path fill="none" stroke="black" d="M1174.82,-494.01C1197.54,-492.93 1228.21,-491.48 1256.29,-490.14" />
</g>

<g id="edge50" class="edge" x-title="0x12522d0-&gt;0x1253950">
<path fill="none" stroke="black" d="M1174.68,-491.9C1188.86,-489.21 1204.99,-484.58 1218,-476.64 1267.11,-446.66 1306.11,-388.04 1322.12,-361.4" />
</g>

<g id="edge51" class="edge" x-title="0x1252380-&gt;0x1252f80">
<path fill="none" stroke="black" d="M1172.65,-463.39C1199.47,-467.36 1238.4,-473.11 1270.83,-477.9" />
</g>

<g id="edge52" class="edge" x-title="0x1252380-&gt;0x1253950">
<path fill="none" stroke="black" d="M1172.93,-454.04C1187.26,-451.17 1204,-446.65 1218,-439.64 1258.95,-419.15 1298.29,-381.29 1317.6,-361.12" />
</g>

<g id="node33" class="node" x-title="0x1250f90">
<polygon fill="lightgrey" stroke="black" points="483,-695.14 424,-695.14 424,-676.14 483,-676.14 483,-695.14" />
<text text-anchor="middle" x="453.5" y="-683.14" font-family="Times,serif" font-size="10.00">build.py</text>
</g>

<g id="edge53" class="edge" x-title="0x1250f90-&gt;0x12509c0">
<path fill="none" stroke="black" d="M483.21,-692.18C511.47,-698.6 554.71,-708.45 585.31,-715.41" />
</g>

<g id="node34" class="node" x-title="0x1252cd0">
<polygon fill="lightgrey" stroke="black" points="492.5,-205.14 414.5,-205.14 414.5,-186.14 492.5,-186.14 492.5,-205.14" />
<text text-anchor="middle" x="453.5" y="-193.14" font-family="Times,serif" font-size="10.00">matplotlibrc</text>
</g>

<g id="edge54" class="edge" x-title="0x1252cd0-&gt;0x12528b0">
<path fill="none" stroke="black" d="M492.81,-195.64C513.81,-195.64 540.25,-195.64 563.7,-195.64" />
</g>

<g id="edge55" class="edge" x-title="0x1252cd0-&gt;0x1252f80">
<path fill="none" stroke="black" d="M460,-205.36C484,-246.77 584.41,-409.32 717,-475.64 916.71,-575.55 996.25,-539.99 1218,-513.64 1242.53,-510.73 1269.46,-504.34 1290.76,-498.51" />
</g>

<g id="edge56" class="edge" x-title="0x1252cd0-&gt;0x1253950">
<path fill="none" stroke="black" d="M492.81,-186.42C513.74,-181.67 540.17,-176.17 564,-172.64 660.43,-158.38 685.02,-153.64 782.5,-153.64 782.5,-153.64 782.5,-153.64 956.5,-153.64 1076.81,-153.64 1115.36,-160.87 1218,-223.64 1265.76,-252.85 1305.17,-308.5 1321.67,-334.12" />
</g>

<g id="edge57" class="edge" x-title="0x1252cd0-&gt;0x12549f0">
<path fill="none" stroke="black" d="M477.14,-205.54C521.95,-224.65 625.53,-266.42 717,-285.64 781.18,-299.13 856.93,-303.58 905.32,-305.02" />
</g>

<g id="edge58" class="edge" x-title="0x1252cd0-&gt;0x1254c30">
<path fill="none" stroke="black" d="M468.95,-185.84C489.19,-172.68 527.6,-149.8 564,-139.64 678.73,-107.62 819.38,-106.32 896.7,-108.69" />
</g>

<g id="node35" class="node" x-title="0x1252d50">
<polygon fill="lightgrey" stroke="black" points="498.5,-128.14 408.5,-128.14 408.5,-109.14 498.5,-109.14 498.5,-128.14" />
<text text-anchor="middle" x="453.5" y="-116.14" font-family="Times,serif" font-size="10.00">dat/asassn.csv</text>
</g>

<g id="edge59" class="edge" x-title="0x1252d50-&gt;0x12528b0">
<path fill="none" stroke="black" d="M475.99,-128.55C506.38,-142.56 561.88,-168.16 594.86,-183.36" />
</g>

<g id="edge60" class="edge" x-title="0x1252d50-&gt;0x1254c30">
<path fill="none" stroke="black" d="M498.81,-110.18C518.66,-106.79 542.42,-103.31 564,-101.64 690.73,-91.86 723.03,-95.58 850,-101.64 866.66,-102.44 884.76,-103.94 901.14,-105.55" />
</g>

<g id="node36" class="node" x-title="0x1252580">
<polygon fill="lightgrey" stroke="black" points="826,-467.14 741,-467.14 741,-448.14 826,-448.14 826,-467.14" />
<text text-anchor="middle" x="783.5" y="-455.14" font-family="Times,serif" font-size="10.00">dat/stars.json</text>
</g>

<g id="edge61" class="edge" x-title="0x1252580-&gt;0x12518e0">
<path fill="none" stroke="black" d="M826.09,-457.64C844.76,-457.64 867.26,-457.64 888.17,-457.64" />
</g>

<g id="node37" class="node" x-title="0x1255850">
<polygon fill="lightgrey" stroke="black" points="528,-808.14 379,-808.14 379,-789.14 528,-789.14 528,-808.14" />
<text text-anchor="middle" x="453.5" y="-796.14" font-family="Times,serif" font-size="10.00">screencasts/main/out.mp4</text>
</g>

<g id="node38" class="node" x-title="0x1255180">
<ellipse fill="lightgrey" stroke="black" cx="265" cy="-798.64" rx="78" ry="13.5" />
<text text-anchor="middle" x="265" y="-796.14" font-family="Times,serif" font-size="10.00">src.screencasts.py</text>
</g>

<g id="edge62" class="edge" x-title="0x1255180-&gt;0x1255850">
<path fill="none" stroke="black" d="M343.47,-798.64C351.27,-798.64 359.22,-798.64 367.1,-798.64" />
<polygon fill="black" stroke="black" points="367.05,-802.14 377.05,-798.64 367.05,-795.14 367.05,-802.14" />
</g>

<g id="node39" class="node" x-title="0x1255930">
<polygon fill="lightgrey" stroke="black" points="134,-882.14 17,-882.14 17,-863.14 134,-863.14 134,-882.14" />
<text text-anchor="middle" x="75.5" y="-870.14" font-family="Times,serif" font-size="10.00">dat/screencasts.yml</text>
</g>

<g id="edge63" class="edge" x-title="0x1255930-&gt;0x1255180">
<path fill="none" stroke="black" d="M124.66,-862.68C133.52,-860.37 142.62,-857.69 151,-854.64 183.51,-842.83 218.94,-824.26 241.29,-811.78" />
</g>

<g id="node40" class="node" x-title="0x1255a20">
<polygon fill="lightgrey" stroke="black" points="150.5,-845.14 0.5,-845.14 0.5,-826.14 150.5,-826.14 150.5,-845.14" />
<text text-anchor="middle" x="75.5" y="-833.14" font-family="Times,serif" font-size="10.00">screencasts/main/sab.mov</text>
</g>

<g id="edge64" class="edge" x-title="0x1255a20-&gt;0x1255180">
<path fill="none" stroke="black" d="M126.75,-825.73C153.11,-820.53 185.36,-814.16 211.98,-808.91" />
</g>

<g id="node41" class="node" x-title="0x1255b20">
<polygon fill="lightgrey" stroke="black" points="148.5,-808.14 2.5,-808.14 2.5,-789.14 148.5,-789.14 148.5,-808.14" />
<text text-anchor="middle" x="75.5" y="-796.14" font-family="Times,serif" font-size="10.00">screencasts/main/tm.mov</text>
</g>

<g id="edge65" class="edge" x-title="0x1255b20-&gt;0x1255180">
<path fill="none" stroke="black" d="M148.99,-798.64C161.36,-798.64 174.25,-798.64 186.73,-798.64" />
</g>

<g id="node42" class="node" x-title="0x1255c10">
<polygon fill="lightgrey" stroke="black" points="151,-771.14 0,-771.14 0,-752.14 151,-752.14 151,-771.14" />
<text text-anchor="middle" x="75.5" y="-759.14" font-family="Times,serif" font-size="10.00">screencasts/main/elle.mp4</text>
</g>

<g id="edge66" class="edge" x-title="0x1255c10-&gt;0x1255180">
<path fill="none" stroke="black" d="M126.75,-771.56C153.11,-776.76 185.36,-783.12 211.98,-788.38" />
</g>

<g id="node43" class="node" x-title="0x1255d10">
<polygon fill="lightgrey" stroke="black" points="147,-734.14 4,-734.14 4,-715.14 147,-715.14 147,-734.14" />
<text text-anchor="middle" x="75.5" y="-722.14" font-family="Times,serif" font-size="10.00">screencasts/main/jb.mp4</text>
</g>

<g id="edge67" class="edge" x-title="0x1255d10-&gt;0x1255180">
<path fill="none" stroke="black" d="M124.66,-734.61C133.52,-736.91 142.62,-739.6 151,-742.64 183.51,-754.46 218.94,-773.02 241.29,-785.5" />
</g>
</g>
<script>function fade(node, reset=false) {
    node.style.opacity = reset ? "" : "20%";
}
function getDisconnectedElems(node) {
    const nodeId = node.getAttribute("x-title");
    const connectedIds = [nodeId];
    const ret = [];
    for (const edge of document.querySelectorAll('.edge')) {
        const edgeId = edge.getAttribute("x-title");
        const nodeIds = edgeId.split('-&gt;');
        if (nodeIds.includes(nodeId)) {
            const otherNodeId = nodeIds[Number(nodeIds[0] == nodeId)];
            if (!ret.includes(otherNodeId))
                connectedIds.push(otherNodeId);
            connectedIds.push(edgeId);
        }
    }
    for (const el of document.querySelectorAll('.node, .edge')) {
        const id = el.getAttribute("x-title");
        if (!connectedIds.includes(id))
            ret.push(el);
    }
    return ret;
}
function highlight(ev) {
    const el = ev.target;
    const reset = ev.type == 'mouseleave';
    if (el.className.baseVal != "node" &amp;&amp; !reset)
        return;
    for (const elem of getDisconnectedElems(el))
        fade(elem, reset);
}
for (const el of document.querySelectorAll('.node, .edge')) {
    el.onmouseenter = highlight;
    el.onmouseleave = highlight;
}
</script></svg>